<?xml version="1.0" encoding="UTF-8"?>
<!DOCTYPE svg PUBLIC "-//W3C//DTD SVG 1.1//EN" "http://www.w3.org/Graphics/SVG/1.1/DTD/svg11.dtd">
<svg xmlns="http://www.w3.org/2000/svg" version="1.1" width="300px" height="300px" style="shape-rendering:geometricPrecision; text-rendering:geometricPrecision; image-rendering:optimizeQuality; fill-rule:evenodd; clip-rule:evenodd" xmlns:xlink="http://www.w3.org/1999/xlink">
<g><path style="opacity:0.959" fill="#fe351e" d="M 148.5,8.5 C 181.799,26.7768 215.133,45.1102 248.5,63.5C 249.777,66.0341 249.777,68.5341 248.5,71C 246.336,71.9143 244.336,73.081 242.5,74.5C 211.5,57.1667 180.5,39.8333 149.5,22.5C 111.661,43.9202 73.6613,65.0869 35.5,86C 73.3378,107.753 111.338,129.253 149.5,150.5C 191.5,126.833 233.5,103.167 275.5,79.5C 277.413,80.373 279.247,81.373 281,82.5C 281.825,99.4073 281.658,116.241 280.5,133C 236.833,157.167 193.167,181.333 149.5,205.5C 109.672,183.754 70.0056,161.754 30.5,139.5C 29.1828,149.06 29.1828,158.56 30.5,168C 70.1667,190.167 109.833,212.333 149.5,234.5C 191.909,211.213 234.076,187.547 276,163.5C 277.242,164.872 278.742,165.872 280.5,166.5C 281.824,183.731 281.824,200.898 280.5,218C 236.833,242.167 193.167,266.333 149.5,290.5C 105.833,266.333 62.1667,242.167 18.5,218C 15.3409,213.223 16.3409,209.556 21.5,207C 22.5,206.333 23.5,206.333 24.5,207C 65.8814,230.69 107.548,253.857 149.5,276.5C 189.291,254.77 228.957,232.77 268.5,210.5C 269.665,200.851 269.832,191.184 269,181.5C 229.21,203.644 189.377,225.644 149.5,247.5C 105.129,223.564 60.9628,199.231 17,174.5C 16.1671,157.823 16.3337,141.157 17.5,124.5C 19.5,123.5 21.5,122.5 23.5,121.5C 65.2685,145.273 107.268,168.606 149.5,191.5C 189.291,169.77 228.957,147.77 268.5,125.5C 269.665,115.851 269.832,106.184 269,96.5C 229.21,118.644 189.377,140.644 149.5,162.5C 105.215,138.691 61.2153,114.357 17.5,89.5C 16.2234,86.9659 16.2234,84.4659 17.5,82C 61.5525,57.9792 105.219,33.4792 148.5,8.5 Z"/></g>
</svg>
