<?xml version="1.0" encoding="UTF-8"?>
<svg version="1.1" xmlns="http://www.w3.org/2000/svg" width="1332" height="1664">
<path d="M0 0 C439.56 0 879.12 0 1332 0 C1332 549.12 1332 1098.24 1332 1664 C892.44 1664 452.88 1664 0 1664 C0 1114.88 0 565.76 0 0 Z " fill="#FCBF1C" transform="translate(0,0)"/>
<path d="M0 0 C439.56 0 879.12 0 1332 0 C1332 549.12 1332 1098.24 1332 1664 C892.44 1664 452.88 1664 0 1664 C0 1114.88 0 565.76 0 0 Z M776 95 C775.67 95.66 775.34 96.32 775 97 C773.31713764 97.38949267 771.63101031 97.76845546 769.93359375 98.08862305 C756.19175422 100.75379335 745.22344942 108.68609659 737 120 C734.15403479 124.24053982 731.45815012 128.51973526 729 133 C728.44957031 133.97710937 727.89914062 134.95421875 727.33203125 135.9609375 C723.39585226 145.4760382 724.85550653 158.97157988 724.87974548 169.06614685 C724.87930795 170.4114034 724.87842971 171.75665987 724.87715632 173.1019159 C724.87494706 176.75074521 724.87888296 180.39954451 724.88393438 184.04837 C724.88829069 188.00110846 724.88678881 191.9538455 724.8860321 195.90658569 C724.88551013 202.73913912 724.88862269 209.57168293 724.89426994 216.40423393 C724.90242936 226.28271053 724.9050047 236.16118253 724.90625793 246.03966213 C724.9084415 262.07047074 724.91508267 278.10127424 724.92456055 294.13208008 C724.9337527 309.6958819 724.9408247 325.25968233 724.94506836 340.82348633 C724.94533108 341.78434505 724.94559381 342.74520377 724.94586449 343.73517942 C724.94716962 348.55597491 724.9484333 353.37677041 724.94967639 358.19756591 C724.96002734 398.13171419 724.97762666 438.06585676 725 478 C724.16663266 477.99829126 724.16663266 477.99829126 723.31642962 477.996548 C690.38176615 477.92940063 657.44711986 477.87793368 624.51240328 477.84680401 C620.55709686 477.84305193 616.60179058 477.83916896 612.64648438 477.83520508 C611.85906056 477.83441815 611.07163674 477.83363122 610.2603516 477.83282044 C597.51374438 477.81976973 584.76717778 477.79611773 572.02059466 477.76854161 C558.93953501 477.7404781 545.85849663 477.72382174 532.77740812 477.71773452 C524.7069338 477.71362003 516.63657432 477.70062896 508.56613535 477.6762506 C502.3756826 477.65850467 496.18531724 477.65663678 489.99484253 477.66067696 C487.45680535 477.65985134 484.91876384 477.65388022 482.38075256 477.64238358 C478.91517417 477.62745471 475.45008686 477.63104831 471.98449707 477.63923645 C470.98058945 477.63049793 469.97668183 477.6217594 468.94235277 477.61275607 C462.90452177 477.65130563 458.54005085 478.59332849 453 481 C451.0698425 481.44945453 449.13236479 481.86918731 447.1875 482.25 C440.51358316 483.85949257 435.4883076 486.9578179 430 491 C429.02933594 491.7115625 429.02933594 491.7115625 428.0390625 492.4375 C419.1747909 499.49682942 413.57358165 508.78701679 409 519 C408.48512874 519.93632043 407.97025747 520.87264086 407.43978405 521.83733463 C405.0560145 527.47268069 405.59830058 533.54906141 405.63923645 539.55967712 C405.63792729 540.94752843 405.63529883 542.33537901 405.63146895 543.72322565 C405.62477373 547.52703297 405.63674324 551.33058598 405.65180314 555.13436091 C405.6647732 559.23993382 405.66037335 563.34549269 405.65809631 567.45108032 C405.65652419 574.56100289 405.665927 581.67084278 405.68280983 588.78074455 C405.70720356 599.06042238 405.71500548 609.34006028 405.7187738 619.61976392 C405.7253377 636.29837112 405.74529719 652.97693428 405.77368164 669.65551758 C405.8012238 685.85603617 405.82245662 702.0565428 405.83520508 718.25708008 C405.83599325 719.25588453 405.83678142 720.25468899 405.83759347 721.28376024 C405.84150862 726.2945296 405.84529974 731.30529903 405.84902918 736.31606853 C405.88012316 777.87740966 405.93295729 819.43870231 406 861 C405.15768038 860.99829126 405.15768038 860.99829126 404.29834419 860.996548 C371.00454858 860.92939009 337.71076998 860.87792836 304.4169218 860.84680401 C300.41784033 860.84305196 296.418759 860.83916899 292.41967773 860.83520508 C291.62354438 860.83441815 290.82741103 860.83363122 290.00715243 860.83282044 C277.12219067 860.8197723 264.23726914 860.79612171 251.35233123 860.76854161 C238.12775516 860.74047094 224.90320013 860.72382023 211.67859548 860.71773452 C203.52060259 860.71362152 195.36272339 860.70063851 187.20476549 860.6762506 C180.94554029 860.65849388 174.68640148 860.65663858 168.42715454 860.66067696 C165.862124 860.65985186 163.29708915 860.65388755 160.73208427 860.64238358 C157.22744616 860.62743679 153.72329274 860.63105485 150.21864319 860.63923645 C149.20597557 860.63049793 148.19330794 860.6217594 147.14995342 860.61275607 C140.88205544 860.65224934 135.81491986 861.68750048 130 864 C129.11570313 864.29261719 128.23140625 864.58523438 127.3203125 864.88671875 C120.32939691 867.43678583 114.80382611 871.39940613 109 876 C108.2575 876.5878125 107.515 877.175625 106.75 877.78125 C105.11455311 879.12653695 103.54812644 880.55508199 102 882 C102 882.66 102 883.32 102 884 C101.34 884 100.68 884 100 884 C89.67972924 895.7501878 84.51493711 913.03666739 84.62526989 928.38227749 C84.62120916 929.49134001 84.61714844 930.60040254 84.61296466 931.74307302 C84.60302653 935.45583317 84.61444263 939.16821457 84.6257782 942.88096619 C84.62303735 945.57113756 84.61910913 948.26128352 84.61373454 950.9514485 C84.60445261 956.79858889 84.60628596 962.64564325 84.61546707 968.49278259 C84.62908227 977.18778469 84.62549638 985.88272087 84.61850847 994.57772778 C84.60658587 1010.10805766 84.61166415 1025.63834692 84.62378674 1041.16867456 C84.63432365 1054.76015868 84.63886214 1068.35162897 84.63749123 1081.94311714 C84.6374072 1082.84473147 84.63732317 1083.74634581 84.63723659 1084.67528178 C84.63688434 1088.33525464 84.63650033 1091.9952275 84.63607101 1095.65520035 C84.63210598 1129.98851586 84.64482356 1164.32180692 84.66559757 1198.65511544 C84.68396544 1229.15509289 84.68978021 1259.6550469 84.68432617 1290.1550293 C84.68397974 1292.11328631 84.68363364 1294.07154333 84.68328788 1296.02980035 C84.68311689 1296.99792727 84.68294589 1297.9660542 84.68276971 1298.9635183 C84.68191616 1303.83699396 84.68109238 1308.71046961 84.68030071 1313.58394527 C84.68014363 1314.54541748 84.67998655 1315.50688969 84.67982471 1316.49749742 C84.6758341 1341.9857472 84.68131103 1367.47399473 84.689812 1392.96224314 C84.69071904 1395.70505242 84.69162469 1398.4478617 84.69252724 1401.19067098 C84.69312835 1403.01016409 84.69373697 1404.82965719 84.69435314 1406.64915029 C84.69857372 1419.33127896 84.6991531 1432.01340318 84.69724765 1444.69553232 C84.69480415 1461.04013853 84.69888062 1477.38472098 84.71445765 1493.7293207 C84.72250476 1502.37203665 84.72511175 1511.01471304 84.7198153 1519.65743135 C84.71683621 1525.43211486 84.72114686 1531.20676343 84.73136387 1536.98143858 C84.73698457 1540.27049913 84.73840515 1543.55946331 84.73319729 1546.84852695 C84.72808932 1550.3963927 84.73528043 1553.94403146 84.74552441 1557.49188137 C84.74112792 1558.50615897 84.73673144 1559.52043658 84.73220173 1560.56544986 C84.76887047 1567.23102607 85.60493325 1573.48398867 87 1580 C87.66 1580 88.32 1580 89 1580 C89.061875 1580.94875 89.12375 1581.8975 89.1875 1582.875 C91.10358158 1595.89385568 102.17290088 1607.86026464 112.15625 1615.69140625 C126.25911804 1625.59817447 141.9030483 1627.45242958 158.67508888 1627.37473011 C160.45799077 1627.37755973 162.24089097 1627.38170389 164.02378714 1627.38703534 C168.91825971 1627.39786976 173.812551 1627.39007246 178.70701692 1627.3792013 C184.03365743 1627.37068146 189.36027369 1627.37958759 194.68691289 1627.38626546 C204.02093883 1627.39556018 213.35491093 1627.39370299 222.68893623 1627.38453293 C236.56879987 1627.37093431 250.44862215 1627.37449812 264.32848878 1627.38149153 C287.67955887 1627.39273018 311.03060327 1627.38976052 334.38167191 1627.37832069 C357.50986591 1627.36700688 380.63804991 1627.36103303 403.7662468 1627.36250877 C405.21891163 1627.36259418 406.67157645 1627.36267906 408.12424128 1627.36276341 C413.96191135 1627.36311125 419.79958142 1627.36349634 425.63725148 1627.36392899 C441.95564882 1627.3651236 458.2740461 1627.36530551 474.59244347 1627.36472607 C475.70707426 1627.36468703 475.70707426 1627.36468703 476.84422284 1627.3646472 C500.52074639 1627.36374859 524.19726681 1627.35845091 547.87378883 1627.3500185 C549.02561743 1627.34960872 549.02561743 1627.34960872 550.20071528 1627.34919066 C562.67062024 1627.344737 575.1405251 1627.34002222 587.61042996 1627.33529177 C637.07232191 1627.31654497 686.53419858 1627.31012826 735.99609375 1627.31567383 C739.12203485 1627.31602081 742.24797596 1627.31636643 745.37391706 1627.31671212 C746.1467959 1627.31679772 746.91967475 1627.31688333 747.71597416 1627.31697152 C756.27534887 1627.31791765 764.83472357 1627.31882937 773.39409828 1627.31969929 C774.54546019 1627.31981767 774.54546019 1627.31981767 775.72008194 1627.31993843 C817.15402837 1627.32416046 858.58797308 1627.31885647 900.02191865 1627.310188 C901.48255521 1627.30988471 902.94319177 1627.30958181 904.40382833 1627.3092793 C905.12586194 1627.30912971 905.84789555 1627.30898011 906.59180896 1627.30882599 C908.04849193 1627.30852457 909.5051749 1627.30822358 910.96185786 1627.30792303 C914.5908528 1627.30717417 918.21984773 1627.30641818 921.84884266 1627.30564686 C937.75819954 1627.3022981 953.66755516 1627.30022952 969.5769124 1627.30158257 C970.65233162 1627.30167338 970.65233162 1627.30167338 971.74947647 1627.30176603 C975.35921124 1627.302078 978.968946 1627.30241142 982.57868077 1627.30275235 C1008.66231343 1627.30520266 1034.74592866 1627.30113963 1060.82955767 1627.28554235 C1074.62925242 1627.27748111 1088.42892236 1627.27489868 1102.2286186 1627.2801847 C1111.43944972 1627.28315551 1120.65025887 1627.2788797 1129.86108474 1627.26863613 C1135.11349006 1627.26299499 1140.36584469 1627.2605268 1145.61825044 1627.26680271 C1150.39575643 1627.27244251 1155.1731639 1627.2688974 1159.95065999 1627.25800393 C1161.66884635 1627.25569529 1163.38704128 1627.25673546 1165.10522251 1627.26152648 C1184.23731437 1627.31085282 1200.72996906 1623.82862684 1215.31640625 1610.7265625 C1227.53075797 1598.31663892 1235.33906223 1583.46625363 1235.25299966 1565.97521669 C1235.25757931 1564.47448633 1235.25757931 1564.47448633 1235.26225147 1562.94343819 C1235.27007385 1559.575348 1235.2636103 1556.20743614 1235.25726891 1552.83934498 C1235.25996106 1550.39605488 1235.26352819 1547.95276562 1235.26789337 1545.50947794 C1235.27539662 1540.17248902 1235.2766531 1534.83555213 1235.27248149 1529.49856345 C1235.26627062 1521.50881872 1235.27155458 1513.51910979 1235.2790789 1505.52936766 C1235.29155802 1491.91298301 1235.29448941 1478.29661107 1235.29224396 1464.68022156 C1235.28999652 1450.87804443 1235.2920581 1437.0758781 1235.29938889 1423.27370262 C1235.29984819 1422.40249214 1235.3003075 1421.53128166 1235.30078072 1420.63367086 C1235.30266396 1417.08545556 1235.30457533 1413.53724027 1235.3065231 1409.989025 C1235.32682256 1372.95573217 1235.33293547 1335.92244538 1235.33410732 1298.88914762 C1235.33423682 1294.90170477 1235.3343727 1290.91426193 1235.33451414 1286.92681909 C1235.33454815 1285.93735202 1235.33458216 1284.94788496 1235.3346172 1283.92843405 C1235.33543377 1262.01154603 1235.3398125 1240.09465916 1235.34482583 1218.17777175 C1235.34688251 1209.1559474 1235.34886256 1200.13412303 1235.35085833 1191.11229867 C1235.35107951 1190.11549336 1235.35130069 1189.11868805 1235.35152857 1188.09167653 C1235.3641787 1130.96121259 1235.37242659 1073.83074941 1235.37151146 1016.700284 C1235.3714799 1014.56177346 1235.37144843 1012.42326292 1235.37141704 1010.28475237 C1235.37127027 1000.62933306 1235.37109393 990.97391374 1235.37090927 981.31849443 C1235.37082703 977.01280718 1235.37074673 972.70711994 1235.37066665 968.4014327 C1235.37062586 966.24635736 1235.37058382 964.09128203 1235.37054053 961.9362067 C1235.36917993 893.7850176 1235.38381572 825.63384929 1235.41162109 757.48266602 C1235.41862299 740.31158867 1235.42556184 723.1405113 1235.43214989 705.96943378 C1235.43255564 704.91217963 1235.43296138 703.85492548 1235.43337943 702.76563332 C1235.44580699 670.18651233 1235.45334008 637.60739304 1235.45586586 605.02826977 C1235.45594576 604.0055969 1235.45602566 602.98292404 1235.45610799 601.92926108 C1235.45781444 579.48041959 1235.45833696 557.03157819 1235.45776723 534.58273664 C1235.45757426 526.55035638 1235.45747018 518.51797611 1235.45740977 510.48559584 C1235.45739395 508.48729952 1235.45737354 506.4890032 1235.45734853 504.49070688 C1235.45699571 472.6342832 1235.46839876 440.7778773 1235.48565616 408.92145871 C1235.50294695 376.84036145 1235.50734636 344.75928881 1235.49413352 312.67818885 C1235.49230888 308.24656017 1235.49062233 303.81493145 1235.48901749 299.38330269 C1235.48869731 298.51457073 1235.48837714 297.64583877 1235.48804726 296.7507816 C1235.48333852 282.98698335 1235.49206269 269.22322765 1235.50635986 255.4594374 C1235.52013297 241.93018866 1235.51966328 228.40100285 1235.50397559 214.87175551 C1235.49520235 206.93713833 1235.49738069 199.00270633 1235.51570916 191.06810442 C1235.52808799 185.18079469 1235.51964985 179.2936353 1235.50304256 173.40633183 C1235.49959331 171.03690991 1235.5028782 168.66746641 1235.51364497 166.29806643 C1235.77210605 149.7032357 1235.77210605 149.7032357 1231 134 C1230.48179688 132.88625 1229.96359375 131.7725 1229.4296875 130.625 C1219.30868983 113.53628032 1206.82278543 102.26898417 1187.85298157 95.95204353 C1180.91965042 94.26663022 1173.67678514 94.73224105 1166.58666992 94.75949097 C1164.90097107 94.7586183 1163.21527249 94.7568662 1161.52957535 94.75431263 C1156.90717471 94.74984705 1152.28486701 94.75783197 1147.66247821 94.76786876 C1142.67416055 94.7765123 1137.68584806 94.77358245 1132.69752502 94.77206421 C1124.05814372 94.77101593 1115.41879265 94.77728657 1106.77941895 94.78853989 C1094.28836563 94.80479965 1081.79732692 94.81000338 1069.30626416 94.81251587 C1049.03994256 94.81689222 1028.77363707 94.83019971 1008.50732422 94.84912109 C988.82145264 94.86748143 969.13558544 94.88163719 949.44970703 94.89013672 C948.23610162 94.89066217 947.02249621 94.89118761 945.77211487 94.89172898 C939.68376298 94.89433907 933.59541105 94.89686649 927.5070591 94.89935279 C877.00469493 94.92008343 826.50234825 94.95530734 776 95 Z " fill="#FEFEFE" transform="translate(0,0)"/>
<path d="M0 0 C51.66214444 -0.06866971 103.32428428 -0.12153062 154.98646538 -0.15319599 C161.0859477 -0.1569481 167.18542993 -0.16083107 173.28491211 -0.16479492 C174.49920691 -0.16558185 175.7135017 -0.16636878 176.96459331 -0.16717956 C196.62511629 -0.18023273 216.28561294 -0.2038861 235.9461203 -0.23145839 C256.12028316 -0.25951502 276.29443223 -0.27617681 296.4686138 -0.28226548 C308.91669607 -0.28638138 321.36470393 -0.29938025 333.8127633 -0.3237494 C342.34938042 -0.33960975 350.88595909 -0.34439967 359.42258988 -0.34050413 C364.34742666 -0.33858307 369.27213344 -0.34152383 374.1969471 -0.35761642 C378.70953952 -0.37225411 383.22191496 -0.37292728 387.73451754 -0.36269668 C389.36323982 -0.36143292 390.99197585 -0.36520559 392.62067125 -0.37464955 C406.37948002 -0.44976243 417.17419221 1.6529024 429 9 C429.91910156 9.56460938 430.83820313 10.12921875 431.78515625 10.7109375 C444.96929686 19.50036457 455.84764182 35.32525298 459 51 C459.2762856 54.3436981 459.26950082 57.67114991 459.25299966 61.02478331 C459.25605276 62.02527022 459.25910585 63.02575712 459.26225147 64.05656181 C459.27007385 67.424652 459.2636103 70.79256386 459.25726891 74.16065502 C459.25996106 76.60394512 459.26352819 79.04723438 459.26789337 81.49052206 C459.27539662 86.82751098 459.2766531 92.16444787 459.27248149 97.50143655 C459.26627062 105.49118128 459.27155458 113.48089021 459.2790789 121.47063234 C459.29155802 135.08701699 459.29448941 148.70338893 459.29224396 162.31977844 C459.28999652 176.12195557 459.2920581 189.9241219 459.29938889 203.72629738 C459.30007784 205.0331131 459.30007784 205.0331131 459.30078072 206.36632914 C459.30266396 209.91454444 459.30457533 213.46275973 459.3065231 217.010975 C459.32682256 254.04426783 459.33293547 291.07755462 459.33410732 328.11085238 C459.33423682 332.09829523 459.3343727 336.08573807 459.33451414 340.07318091 C459.33454815 341.06264798 459.33458216 342.05211504 459.3346172 343.07156595 C459.33543377 364.98845397 459.3398125 386.90534084 459.34482583 408.82222825 C459.34688251 417.8440526 459.34886256 426.86587697 459.35085833 435.88770133 C459.35107951 436.88450664 459.35130069 437.88131195 459.35152857 438.90832347 C459.3641787 496.03878741 459.37242659 553.16925059 459.37151146 610.299716 C459.3714799 612.43822654 459.37144843 614.57673708 459.37141704 616.71524763 C459.37127027 626.37066694 459.37109393 636.02608626 459.37090927 645.68150557 C459.37082703 649.98719282 459.37074673 654.29288006 459.37066665 658.5985673 C459.37062586 660.75364264 459.37058382 662.90871797 459.37054053 665.0637933 C459.36917993 733.2149824 459.38381572 801.36615071 459.41162109 869.51733398 C459.41862299 886.68841133 459.42556184 903.8594887 459.43214989 921.03056622 C459.43255564 922.08782037 459.43296138 923.14507452 459.43337943 924.23436668 C459.44580699 956.81348767 459.45334008 989.39260696 459.45586586 1021.97173023 C459.45594576 1022.9944031 459.45602566 1024.01707596 459.45610799 1025.07073892 C459.45781444 1047.51958041 459.45833696 1069.96842181 459.45776723 1092.41726336 C459.45757426 1100.44964362 459.45747018 1108.48202389 459.45740977 1116.51440416 C459.45739395 1118.51270048 459.45737354 1120.5109968 459.45734853 1122.50929312 C459.45699571 1154.3657168 459.46839876 1186.2221227 459.48565616 1218.07854129 C459.50294695 1250.15963855 459.50734636 1282.24071119 459.49413352 1314.32181115 C459.49230888 1318.75343983 459.49062233 1323.18506855 459.48901749 1327.61669731 C459.48869731 1328.48542927 459.48837714 1329.35416123 459.48804726 1330.2492184 C459.48333852 1344.01301665 459.49206269 1357.77677235 459.50635986 1371.5405626 C459.52013297 1385.06981134 459.51966328 1398.59899715 459.50397559 1412.12824449 C459.49520235 1420.06286167 459.49738069 1427.99729367 459.51570916 1435.93189558 C459.52808799 1441.81920531 459.51964985 1447.7063647 459.50304256 1453.59366817 C459.49959331 1455.96309009 459.5028782 1458.33253359 459.51364497 1460.70193357 C459.60990508 1483.40171549 459.60990508 1483.40171549 455 1493 C454.54463581 1493.96215321 454.08927161 1494.92430641 453.62010851 1495.91561578 C446.14830247 1511.04017744 434.6053375 1521.83753189 419 1528 C418.26523438 1528.30808594 417.53046875 1528.61617187 416.7734375 1528.93359375 C408.97950249 1532.07825092 401.36262929 1532.14407354 393.09779358 1532.12025452 C391.46561006 1532.12153615 391.46561006 1532.12153615 389.80045313 1532.12284368 C386.16000205 1532.12448877 382.51959721 1532.11899299 378.87915039 1532.11352539 C376.26731365 1532.11324328 373.65547683 1532.11340171 371.04364014 1532.1139679 C365.42341192 1532.11449149 359.80319534 1532.11136188 354.18297005 1532.10573006 C346.05713256 1532.09759276 337.93130068 1532.09499755 329.80545955 1532.09374207 C316.62087284 1532.09155505 303.43629233 1532.08490446 290.25170898 1532.07543945 C277.44637076 1532.06625627 264.64103422 1532.05917987 251.83569336 1532.05493164 C251.0459786 1532.05466892 250.25626383 1532.05440619 249.44261832 1532.05413551 C245.48073389 1532.05283044 241.51884944 1532.05156674 237.55696499 1532.05032361 C204.70463882 1532.03996191 171.85232024 1532.02235312 139 1532 C138.9997558 1531.04780276 138.9995116 1530.09560552 138.99925999 1529.11455382 C138.96677063 1402.54590041 138.96677063 1402.54590041 138.88336182 1218.18231201 C138.88249564 1216.61903436 138.88162947 1215.05575671 138.8807633 1213.49247906 C138.86256443 1180.67886834 138.84354394 1147.86525815 138.8235743 1115.05164846 C138.81354377 1098.56828501 138.80367112 1082.08492147 138.79394775 1065.60155784 C138.7924801 1063.11510468 138.79100795 1060.62865153 138.7895356 1058.14219838 C138.7669033 1019.854342 138.74765702 981.5664876 138.73822021 943.27862549 C138.73801725 942.45540281 138.73781429 941.63218013 138.73760517 940.78401132 C138.73435335 927.51122517 138.7313857 914.23843897 138.72845577 900.96565275 C138.72001233 862.7359059 138.70946757 824.50616486 138.68501663 786.27642441 C138.68426394 785.09717141 138.68426394 785.09717141 138.68349605 783.89409513 C138.67244271 766.63576005 138.66030868 749.37742591 138.64715141 732.11909232 C138.64187641 725.17491244 138.63675697 718.23073246 138.63169098 711.28655243 C138.63085367 710.14653731 138.63085367 710.14653731 138.62999945 708.98349157 C138.61209166 684.49613611 138.60684743 660.00879802 138.60824626 635.52143665 C138.60959739 610.85415867 138.59852709 586.18692003 138.57019765 561.51965728 C138.56628559 558.11059784 138.56251592 554.70153826 138.55883217 551.29247856 C138.5581049 550.62420799 138.55737763 549.95593742 138.55662833 549.26741622 C138.54480554 538.04413716 138.54881497 526.82090037 138.55702825 515.59761972 C138.56308006 505.83614475 138.55470367 496.07475165 138.5345077 486.31329586 C138.52340858 480.74778355 138.518666 475.18246377 138.53148755 469.61695078 C138.54303069 464.55279211 138.53617245 459.48900311 138.5146993 454.42487986 C138.51019672 452.60517959 138.51236908 450.78544727 138.52207924 448.96576735 C138.61832652 429.48115357 133.11329087 414.69510118 119.4765625 400.28515625 C105.72103767 387.59275558 89.81502096 383.71316779 71.58569336 383.68115234 C70.26764709 383.67110672 68.94960083 383.6610611 67.59161377 383.65071106 C64.00343031 383.62358069 60.41528573 383.60831246 56.82702708 383.59528303 C53.06738408 383.57957763 49.30781963 383.55281132 45.54823303 383.5272522 C38.44057784 383.48059489 31.33290766 383.44378794 24.2251783 383.41057932 C16.12833973 383.37226534 8.03158031 383.32287969 -0.06519139 383.27259517 C-16.71007063 383.16946955 -33.35499391 383.08014661 -50 383 C-49.89540728 342.30196161 -49.78563345 301.60394023 -49.66888306 260.90593483 C-49.65511301 256.10428218 -49.64138598 251.30262941 -49.62768555 246.50097656 C-49.62495724 245.54502908 -49.62222894 244.58908159 -49.61941796 243.604166 C-49.57530857 228.11307756 -49.53468677 212.62198183 -49.49534739 197.13088062 C-49.45492268 181.24287578 -49.4107651 165.35488449 -49.36312145 149.46689963 C-49.33382651 139.65831356 -49.30746473 129.84972851 -49.28482103 120.04112479 C-49.26902784 113.32062896 -49.24961816 106.60014973 -49.22733159 99.87967232 C-49.21456948 95.99876697 -49.20343351 92.1178744 -49.19658089 88.23695374 C-49.18911886 84.03442591 -49.17405764 79.83196015 -49.15821838 75.62945557 C-49.15724028 74.39600348 -49.15626217 73.16255139 -49.15525442 71.89172196 C-49.14977998 70.76907119 -49.14430554 69.64642041 -49.1386652 68.48974991 C-49.13600716 67.51918474 -49.13334911 66.54861958 -49.13061053 65.54864335 C-49.01059439 63.20673159 -48.62601673 61.24826051 -48 59 C-47.86958287 57.32391733 -47.77638916 55.64471809 -47.7109375 53.96484375 C-46.64919376 33.53009899 -46.64919376 33.53009899 -39 25 C-38.00806641 23.73736328 -38.00806641 23.73736328 -36.99609375 22.44921875 C-27.87669674 11.38166326 -17.958339 5.44746434 -4.140625 2.75390625 C-3.10421875 2.50511719 -2.0678125 2.25632812 -1 2 C-0.67 1.34 -0.34 0.68 0 0 Z " fill="#E69303" transform="translate(776,95)"/>
<path d="M0 0 C-1.485 0.495 -1.485 0.495 -3 1 C-3.33 1.66 -3.66 2.32 -4 3 C-5.99609375 4.0703125 -5.99609375 4.0703125 -8.4375 5.125 C-9.24058594 5.47820312 -10.04367187 5.83140625 -10.87109375 6.1953125 C-13 7 -13 7 -15 7 C-15.33 7.99 -15.66 8.98 -16 10 C-17.453125 11.39453125 -17.453125 11.39453125 -19.25 12.8125 C-24.19740407 16.90830173 -27.81579917 21.3897414 -31 27 C-31.66 27.99 -32.32 28.98 -33 30 C-33.70626239 31.98636298 -34.36893571 33.98848259 -35 36 C-35.34580329 36.90205359 -35.69160658 37.80410717 -36.04788876 38.73349571 C-37.13334942 42.45749535 -37.24313576 45.57339593 -37.23377991 49.4515686 C-37.23528271 50.54770197 -37.23528271 50.54770197 -37.23681587 51.66597944 C-37.23776264 54.10897213 -37.22443047 56.55167509 -37.21118164 58.99462891 C-37.208999 60.75615001 -37.20771859 62.51767243 -37.20726776 64.27919483 C-37.20437152 68.0866485 -37.19513691 71.89401612 -37.18103218 75.70144463 C-37.15847871 81.80592986 -37.14997208 87.91038749 -37.14329529 94.01490784 C-37.132438 102.71205393 -37.11529658 111.4091668 -37.09375 120.10629272 C-37.04168589 141.35125286 -37.02331008 162.59625813 -37.00660849 183.84127116 C-37.00390346 187.15575803 -37.00083869 190.47024441 -36.997715 193.78473091 C-36.96592423 228.92194814 -37.08141966 264.05246639 -37.5 299.1875 C-37.51209126 300.2167585 -37.52418251 301.246017 -37.53664017 302.30646515 C-37.67312754 313.87124772 -37.82327428 325.43575918 -38 337 C-37.34 337.33 -36.68 337.66 -36 338 C-36.33 338.99 -36.66 339.98 -37 341 C-37.15346953 343.65606301 -37.25717898 346.29095095 -37.31640625 348.94921875 C-37.3475779 350.10814384 -37.3475779 350.10814384 -37.37937927 351.29048157 C-37.44471038 353.7560648 -37.50368315 356.22175361 -37.5625 358.6875 C-37.60570087 360.36003691 -37.64931566 362.03256319 -37.69335938 363.70507812 C-37.8003749 367.8032775 -37.90168857 371.90158296 -38 376 C-37.30093599 375.99815641 -36.60187199 375.99631283 -35.88162422 375.99441338 C-18.89010288 375.95028938 -1.89859604 375.91717029 15.09296989 375.89637566 C23.30988494 375.88605284 31.5267618 375.87197338 39.74365234 375.84912109 C46.90354885 375.8292179 54.06341771 375.81629088 61.22334111 375.81182301 C65.016227 375.8092104 68.80903378 375.80304894 72.60189438 375.78853989 C76.16902195 375.7750044 79.73603752 375.77076912 83.30318832 375.77378464 C85.24228083 375.7729687 87.18136103 375.76218601 89.12042236 375.75115967 C90.26749664 375.753909 91.41457092 375.75665833 92.59640503 375.75949097 C94.0980058 375.75672559 94.0980058 375.75672559 95.62994194 375.75390434 C98 376 98 376 100 378 C102.1496544 378.79745244 104.32016401 379.53918392 106.5 380.25 C112.88895818 382.43718143 118.43772474 385.17240042 124 389 C124.78117187 389.52335937 125.56234375 390.04671875 126.3671875 390.5859375 C132.33755718 394.86771778 136.10474337 399.82601824 140 406 C140.474375 406.69351562 140.94875 407.38703125 141.4375 408.1015625 C148.51469313 418.67522605 149.15194748 429.61484596 149.12304783 441.99652004 C149.12420167 443.20840739 149.12535552 444.42029474 149.12654433 445.66890594 C149.12873628 449.03513079 149.12644214 452.40129864 149.12226619 455.76751804 C149.11882856 459.42870986 149.12120345 463.08989864 149.12284368 466.75109106 C149.124917 473.16843318 149.12327435 479.58576603 149.11920547 486.00310707 C149.113172 495.54546796 149.11286953 505.08782301 149.11374746 514.63018546 C149.11506164 530.68172654 149.1117189 546.73326351 149.10573006 562.78480339 C149.0998148 578.67983966 149.09596447 594.57487421 149.09487724 610.46991158 C149.0948085 611.45789565 149.09473976 612.44587973 149.09466894 613.46380272 C149.09433061 618.48119203 149.09402923 623.49858134 149.09374207 628.51597065 C149.09164117 664.06216194 149.08490245 699.60835099 149.07543945 735.15454102 C149.06625639 769.6890461 149.0591721 804.22355058 149.05493164 838.75805664 C149.05480011 839.82239782 149.05466859 840.886739 149.05453308 841.98333295 C149.05321457 852.67179975 149.05193875 863.36026656 149.05069422 874.04873337 C149.04815794 895.82273655 149.04533669 917.59673968 149.04234314 939.3707428 C149.04220585 940.37189537 149.04206856 941.37304794 149.04192711 942.40453847 C149.03272509 1009.26969325 149.01687974 1076.13484678 149 1143 C91.34210795 1143.11451595 33.68422632 1143.20259486 -23.97375705 1143.25532665 C-30.78523928 1143.26156296 -37.59672126 1143.26804578 -44.40820312 1143.2746582 C-45.08600289 1143.275312 -45.76380265 1143.27596579 -46.4621418 1143.2766394 C-68.40468365 1143.29792026 -90.34716083 1143.33545739 -112.28966355 1143.3814861 C-135.49190784 1143.43006861 -158.69411371 1143.45999738 -181.89641249 1143.47044247 C-195.78633236 1143.47729321 -209.6760665 1143.49890836 -223.56592919 1143.53958233 C-233.0987167 1143.56607056 -242.6314086 1143.57398721 -252.16423021 1143.56750689 C-257.65911045 1143.5643135 -263.15366678 1143.56910945 -268.648489 1143.59602737 C-273.69015383 1143.62054362 -278.73128009 1143.62146952 -283.77297087 1143.60449447 C-285.58621066 1143.60239971 -287.39948549 1143.60858565 -289.21265738 1143.62441591 C-309.74105833 1143.79305985 -327.09507639 1139.43492405 -342.1328125 1124.890625 C-349.52058841 1117.53702915 -354.92389174 1110.08608574 -358 1100 C-358 1098.68 -358 1097.36 -358 1096 C-358.66 1096 -359.32 1096 -360 1096 C-361.61916195 1088.42912272 -362.28989417 1081.24615915 -362.26285553 1073.51422787 C-362.2669608 1072.40610867 -362.27106606 1071.29798948 -362.27529573 1070.15629092 C-362.28658124 1066.45277635 -362.28372804 1062.74941183 -362.28088379 1059.04588318 C-362.28605418 1056.35984263 -362.29200428 1053.67381391 -362.29889059 1050.98777825 C-362.3139988 1044.38610819 -362.31843406 1037.7844705 -362.3195487 1031.18278495 C-362.3213811 1023.27164138 -362.3347312 1015.36052749 -362.34824235 1007.44939675 C-362.38031275 988.33289073 -362.39216282 969.21638799 -362.40173985 950.0998599 C-362.40641624 941.05227408 -362.41362199 932.00469079 -362.4211306 922.95710695 C-362.44679587 891.97088852 -362.46823579 860.98467148 -362.4751358 829.99844265 C-362.47557906 828.05453549 -362.47602263 826.11062833 -362.47646651 824.16672117 C-362.47690778 822.21819721 -362.47734875 820.26967325 -362.4777894 818.32114929 C-362.47867449 814.41226033 -362.47956873 810.50337138 -362.48046875 806.59448242 C-362.48068753 805.6253104 -362.48090631 804.65613837 -362.48113173 803.6575975 C-362.48839264 772.23370478 -362.52023482 740.80990435 -362.56684948 709.38604697 C-362.61607299 676.1425949 -362.64348268 642.89919556 -362.64587164 609.65570599 C-362.64621453 606.00451567 -362.64664539 602.35332538 -362.6471405 598.70213509 C-362.64725204 597.80314609 -362.64736358 596.9041571 -362.64747849 595.97792601 C-362.64977687 581.52964676 -362.67179801 567.08146248 -362.70091461 552.63321526 C-362.72968756 538.10400186 -362.73609433 523.57490983 -362.72003466 509.04567575 C-362.71114272 500.42206511 -362.71875978 491.79884706 -362.75051167 483.17528824 C-362.77008927 477.40445362 -362.76758164 471.63389239 -362.74763921 465.86305995 C-362.73691022 462.58172231 -362.73862298 459.30127904 -362.76065665 456.01997655 C-362.89862272 434.07611534 -359.19090151 418.28635227 -347 400 C-346.34 400 -345.68 400 -345 400 C-344.80019531 399.44441406 -344.60039062 398.88882812 -344.39453125 398.31640625 C-342.44725559 395.08185592 -339.67379896 393.14822298 -336.6875 390.9375 C-335.83381836 390.2868457 -335.83381836 390.2868457 -334.96289062 389.62304688 C-330.08211543 385.94145181 -325.36878247 382.97175783 -319.5625 380.9375 C-318.20318359 380.45603516 -318.20318359 380.45603516 -316.81640625 379.96484375 C-315.88699219 379.64644531 -314.95757812 379.32804687 -314 379 C-313.17585539 378.6550606 -312.35171078 378.31012119 -311.50259209 377.95472908 C-306.67690246 376.6393529 -302.12186217 376.73108856 -297.14212036 376.75949097 C-295.49896782 376.75692769 -295.49896782 376.75692769 -293.82262027 376.75431263 C-290.15137435 376.75101793 -286.48031112 376.76202132 -282.80908203 376.77294922 C-280.17768864 376.77351334 -277.54629494 376.77319676 -274.91490173 376.77206421 C-269.24935133 376.77101638 -263.58384706 376.77728226 -257.91830826 376.78853989 C-249.72693463 376.80480583 -241.53558326 376.81000401 -233.34419523 376.81251587 C-220.0536696 376.81689125 -206.76316854 376.83019611 -193.47265625 376.84912109 C-180.56347781 376.86748394 -167.65430605 376.88163847 -154.74511719 376.89013672 C-153.55118997 376.89092489 -153.55118997 376.89092489 -152.33314301 376.89172898 C-148.34001983 376.89433909 -144.34689661 376.8968665 -140.35377336 376.89935279 C-107.23583101 376.92008042 -74.1179188 376.95530169 -41 377 C-41.0018986 376.29570681 -41.0037972 375.59141362 -41.00575334 374.86577821 C-41.11769403 333.10446076 -41.2034582 291.34316076 -41.25532665 249.58172341 C-41.26158003 244.56506145 -41.26805165 239.54839979 -41.2746582 234.53173828 C-41.27596976 233.53303006 -41.27728131 232.53432183 -41.2786326 231.50534973 C-41.30037687 215.34385979 -41.33979302 199.18245898 -41.38576398 183.02102187 C-41.43255583 166.43238745 -41.46030117 149.84379963 -41.47044247 133.25510192 C-41.47729596 123.0226331 -41.49892585 112.79041618 -41.53958233 102.55802491 C-41.56605438 95.53703424 -41.5739909 88.5161734 -41.56750689 81.49513647 C-41.56431092 77.44699451 -41.56913814 73.3992921 -41.59602737 69.35122871 C-41.62050848 65.63842016 -41.62149278 61.92634326 -41.60449447 58.21349975 C-41.60140914 56.24794467 -41.62284084 54.28239713 -41.64540654 52.31696916 C-41.5204488 37.36972392 -34.39715042 24.08974269 -24.3359375 13.23828125 C-6.91284404 -3.45642202 -6.91284404 -3.45642202 0 0 Z " fill="#FED967" transform="translate(447,484)"/>
<path d="M0 0 C3.14181296 2.8543705 4.92379222 5.4326487 6.625 9.3125 C7.23214844 10.66794922 7.23214844 10.66794922 7.8515625 12.05078125 C10.54368936 18.96423628 11.28908914 24.64838028 11.251849 32.02708465 C11.25477786 33.02782001 11.25770673 34.02855538 11.26072434 35.05961606 C11.26812811 38.42855158 11.26124039 41.79730692 11.25447559 45.16624165 C11.25686443 47.61013688 11.26012895 50.05403139 11.26419219 52.49792442 C11.2710365 57.83623248 11.27163319 63.17448774 11.26680271 68.51279411 C11.25960692 76.50448189 11.26392105 84.49613519 11.27048406 92.48782203 C11.28132698 106.10744991 11.28263766 119.72706397 11.27878571 133.34669495 C11.27491237 147.15209496 11.27535986 160.95748466 11.2810955 174.76288414 C11.28145433 175.63429558 11.28181316 176.50570702 11.28218286 177.40352487 C11.28365774 180.95255412 11.28516213 184.50158335 11.28670432 188.05061256 C11.30234955 224.09735341 11.30501716 260.14408719 11.30254826 296.19083082 C11.30220982 301.17356856 11.30188772 306.1563063 11.30158257 311.13904405 C11.30152153 312.12870121 11.30146049 313.11835838 11.30139759 314.13800516 C11.30012635 336.05855807 11.30272589 357.97911001 11.30610864 379.89966263 C11.30687938 384.90309756 11.3076241 389.90653249 11.30837366 394.90996742 C11.30867535 396.91800758 11.30897723 398.92604773 11.3092793 400.93408789 C11.30942898 401.92942841 11.30957866 402.92476892 11.30973287 403.95027127 C11.3100364 405.96354311 11.31034108 407.97681494 11.31064692 409.99008677 C11.31932194 467.12783806 11.32396241 524.26558848 11.31969929 581.40334034 C11.31962123 582.46169707 11.31954317 583.5200538 11.31946275 584.61048195 C11.31858993 596.41264832 11.31766067 608.21481468 11.31671212 620.01698104 C11.31662661 621.08257052 11.3165411 622.14815999 11.316453 623.24604006 C11.31574215 632.10091102 11.31574215 632.10091102 11.31541077 636.17405281 C11.30987449 704.33877817 11.31741774 772.50348998 11.33618164 840.66821289 C11.34090373 857.84375156 11.34558419 875.01929024 11.3500185 892.19482899 C11.35029182 893.25234799 11.35056515 894.309867 11.35084675 895.39943203 C11.35921591 927.98429131 11.36389751 960.56914947 11.36472607 993.15400982 C11.36475243 994.17678975 11.3647788 995.19956969 11.36480596 996.25334296 C11.36534671 1018.70398379 11.36497438 1041.15462452 11.36376625 1063.60526532 C11.36334061 1071.63816024 11.36297549 1079.67105517 11.36263681 1087.70395009 C11.36255151 1089.70238346 11.36246257 1091.70081682 11.36236999 1093.69925019 C11.36092029 1125.56320583 11.36805347 1157.42715227 11.37937395 1189.29110571 C11.39101429 1222.26886928 11.39159833 1255.24661641 11.37953053 1288.22438005 C11.37827866 1291.76389091 11.37707518 1295.30340179 11.37590981 1298.84291267 C11.37561951 1299.71158487 11.37532922 1300.58025707 11.37503013 1301.47525267 C11.37070054 1315.24370487 11.37644284 1329.01213378 11.38635 1342.78058232 C11.39587473 1356.31103697 11.39472895 1369.84145557 11.38214377 1383.37190812 C11.37508089 1391.30941888 11.37624893 1399.24682614 11.38949216 1407.18432958 C11.39839906 1413.07023263 11.39173389 1418.95604995 11.37890258 1424.84194812 C11.37616485 1427.21343317 11.37849642 1429.58493063 11.38640973 1431.95640406 C11.39640489 1435.17008369 11.38795276 1438.38321105 11.37489682 1441.59686786 C11.38218719 1442.51368433 11.38947755 1443.4305008 11.39698883 1444.37509959 C11.3440068 1450.67528205 10.09451907 1456.06639854 8 1462 C6.83705456 1458.30033811 7.48354582 1455.98224674 8.50281716 1452.26167409 C9.40360891 1448.16399172 9.2730628 1444.05579982 9.251849 1439.877325 C9.25477786 1438.87841099 9.25770673 1437.87949698 9.26072434 1436.85031285 C9.26811742 1433.49362028 9.26124523 1430.13710916 9.25447559 1426.78041744 C9.25686485 1424.34297598 9.26012965 1421.90553524 9.26419219 1419.46809599 C9.27103256 1414.14706593 9.27163584 1408.82608885 9.26680271 1403.50506049 C9.25960303 1395.53929867 9.26392329 1387.57357141 9.27048406 1379.60781053 C9.28132366 1366.03207073 9.28263863 1352.45634479 9.27878571 1338.88060188 C9.27491171 1325.12077605 9.27536091 1311.36096055 9.2810955 1297.60113525 C9.28145433 1296.73244338 9.28181316 1295.86375151 9.28218286 1294.96873564 C9.28365774 1291.43076228 9.28516213 1287.89278894 9.28670432 1284.35481561 C9.30234709 1248.42586232 9.30501746 1212.49691614 9.30254826 1176.56796005 C9.30220982 1171.60211096 9.30188772 1166.63626187 9.30158257 1161.67041278 C9.30149101 1160.19096079 9.30149101 1160.19096079 9.30139759 1158.68162089 C9.30012628 1136.83429143 9.30272599 1114.98696295 9.30610864 1093.13963379 C9.30687938 1088.15278471 9.3076241 1083.16593563 9.30837366 1078.17908655 C9.30867535 1076.17770786 9.30897723 1074.17632917 9.3092793 1072.17495048 C9.30942898 1071.18291278 9.30957866 1070.19087508 9.30973287 1069.16877563 C9.3100364 1067.16218532 9.31034108 1065.155595 9.31064692 1063.14900469 C9.31932143 1006.204286 9.32396272 949.25956817 9.31969929 892.3148489 C9.31962123 891.26014351 9.31954317 890.20543813 9.31946275 889.11877197 C9.31858993 877.35732551 9.31766067 865.59587905 9.31671212 853.83443259 C9.31658385 852.24156246 9.31658385 852.24156246 9.316453 850.61651313 C9.31593421 844.17480685 9.31593421 844.17480685 9.31541077 837.73310058 C9.30987367 769.79349725 9.31742031 701.85390751 9.33618164 633.91430664 C9.34090369 616.79327364 9.34558413 599.67224062 9.3500185 582.55120754 C9.35029182 581.497057 9.35056515 580.44290647 9.35084675 579.35681197 C9.35921498 546.87941802 9.36389742 514.40202519 9.36472607 481.92463017 C9.36475243 480.90533641 9.3647788 479.88604266 9.36480596 478.83586122 C9.36534669 456.46261166 9.36497443 434.0893622 9.36376625 411.71611268 C9.36334061 403.7111301 9.36297549 395.70614753 9.36263681 387.70116495 C9.36255151 385.7096668 9.36246257 383.71816864 9.36236999 381.72667049 C9.36091995 349.96584214 9.3680556 318.20502301 9.37937395 286.44419688 C9.3910103 253.57827631 9.39160267 220.71237222 9.37953053 187.84645157 C9.37827864 184.32012229 9.37707517 180.793793 9.37590981 177.26746368 C9.37561951 176.40202018 9.37532922 175.53657668 9.37503013 174.64490761 C9.37069801 160.91933469 9.37644723 147.19378511 9.38635 133.46821585 C9.39586712 119.98492114 9.39473926 106.50166261 9.38214377 93.01837003 C9.37507248 85.10527005 9.37626678 77.19227387 9.38949216 69.2791812 C9.39838042 63.41665492 9.39175404 57.55421498 9.37890258 51.69169363 C9.37615884 49.325745 9.37851428 46.95978398 9.38640973 44.59384693 C9.39636235 41.39481212 9.38799007 38.19633709 9.37489682 34.99732584 C9.38218719 34.07639713 9.38947755 33.15546843 9.39698883 32.2066328 C9.35000973 26.68558362 8.48284778 22.93751152 6 18 C5.41015625 15.84765625 5.41015625 15.84765625 5.0625 14.0625 C4.19482892 10.25809602 2.6685172 7.07881618 0.8046875 3.6640625 C0 2 0 2 0 0 Z " fill="#E2A649" transform="translate(1224,124)"/>
<path d="M0 0 C-0.99 0.33 -1.98 0.66 -3 1 C-3.33 1.66 -3.66 2.32 -4 3 C-5.99609375 4.0703125 -5.99609375 4.0703125 -8.4375 5.125 C-9.24058594 5.47820312 -10.04367187 5.83140625 -10.87109375 6.1953125 C-13 7 -13 7 -15 7 C-15.33 7.99 -15.66 8.98 -16 10 C-17.453125 11.39453125 -17.453125 11.39453125 -19.25 12.8125 C-24.19740407 16.90830173 -27.81579917 21.3897414 -31 27 C-31.66 27.99 -32.32 28.98 -33 30 C-33.70626239 31.98636298 -34.36893571 33.98848259 -35 36 C-35.34580329 36.90205359 -35.69160658 37.80410717 -36.04788876 38.73349571 C-37.13334942 42.45749535 -37.24313576 45.57339593 -37.23377991 49.4515686 C-37.23478177 50.18232418 -37.23578364 50.91307976 -37.23681587 51.66597944 C-37.23776264 54.10897213 -37.22443047 56.55167509 -37.21118164 58.99462891 C-37.208999 60.75615001 -37.20771859 62.51767243 -37.20726776 64.27919483 C-37.20437152 68.0866485 -37.19513691 71.89401612 -37.18103218 75.70144463 C-37.15847871 81.80592986 -37.14997208 87.91038749 -37.14329529 94.01490784 C-37.132438 102.71205393 -37.11529658 111.4091668 -37.09375 120.10629272 C-37.04168589 141.35125286 -37.02331008 162.59625813 -37.00660849 183.84127116 C-37.00390346 187.15575803 -37.00083869 190.47024441 -36.997715 193.78473091 C-36.96592423 228.92194814 -37.08141966 264.05246639 -37.5 299.1875 C-37.51813688 300.73138775 -37.51813688 300.73138775 -37.53664017 302.30646515 C-37.67312754 313.87124772 -37.82327428 325.43575918 -38 337 C-37.34 337.33 -36.68 337.66 -36 338 C-36.33 338.99 -36.66 339.98 -37 341 C-37.33 352.55 -37.66 364.1 -38 376 C6.88 376 51.76 376 98 376 C98.33 376.66 98.66 377.32 99 378 C30.195 377.505 30.195 377.505 -40 377 C-40.11028298 334.41685783 -40.20258231 291.83385064 -40.25532665 249.25060647 C-40.26157998 244.220212 -40.26805161 239.18981784 -40.2746582 234.15942383 C-40.27596976 233.1579873 -40.27728131 232.15655077 -40.2786326 231.12476768 C-40.30037326 214.92192099 -40.3397874 198.71916324 -40.38576398 182.51636926 C-40.43256591 165.88365951 -40.4603033 149.25099626 -40.47044247 132.61822337 C-40.47729388 122.35965461 -40.49891239 112.10133728 -40.53958233 101.84284594 C-40.56606683 94.80269221 -40.57398809 87.76266795 -40.56750689 80.72246806 C-40.56431285 76.66407622 -40.56911592 72.60612292 -40.59602737 68.5478096 C-40.62053596 64.82446381 -40.62147535 61.10184732 -40.60449447 57.37846645 C-40.60141418 55.409674 -40.62282109 53.44088888 -40.64540654 51.47222358 C-40.54263042 39.12179131 -36.52500101 28.74152358 -29 19 C-28.24976563 18.00419922 -28.24976563 18.00419922 -27.484375 16.98828125 C-22.70832573 11.08777377 -8.44716238 -4.22358119 0 0 Z " fill="#FECE46" transform="translate(447,484)"/>
<path d="M0 0 C0.33 0 0.66 0 1 0 C1.39330375 3.93303753 0.96467754 6.37140307 -0.9375 9.75 C-5.19655772 17.64069919 -4.13883371 27.49435301 -4.09765625 36.22216797 C-4.09619598 37.40450516 -4.09473572 38.58684235 -4.0932312 39.80500793 C-4.08845416 43.02782554 -4.07928125 46.25059599 -4.06846237 49.47339773 C-4.05836232 52.89315807 -4.0549429 56.31292449 -4.05102539 59.73269653 C-4.03904115 69.17573866 -4.01726563 78.61875309 -3.99479675 88.06177521 C-3.97436817 96.65862481 -3.95631452 105.25546299 -3.94658184 113.85233223 C-3.94098058 118.50647195 -3.92750047 123.1605463 -3.91235352 127.81466675 C-3.88870626 140.15224484 -4.01295469 152.46280748 -4.42312754 164.79399595 C-5.14712264 187.14119843 -5.17360444 209.48667427 -5.20060861 231.84354043 C-5.20876151 237.72027032 -5.22240562 243.59698811 -5.23532104 249.47370911 C-5.25687724 259.61097577 -5.27509566 269.74824378 -5.29092598 279.88552094 C-5.30749793 290.49539399 -5.32599972 301.10526092 -5.34705925 311.71512604 C-5.34837686 312.37948421 -5.34969446 313.04384239 -5.351052 313.72833263 C-5.35775583 317.10347177 -5.36449395 320.47861085 -5.37124526 323.8537499 C-5.41876944 347.64289086 -5.46202147 371.43203781 -5.50268555 395.22119141 C-5.54215365 418.30485468 -5.58360392 441.38851303 -5.62768555 464.47216797 C-5.62904808 465.18607392 -5.63041061 465.89997987 -5.63181442 466.63551934 C-5.64550202 473.80608846 -5.65922935 480.9766575 -5.67298577 488.14722649 C-5.70099812 502.74921257 -5.72874558 517.35119915 -5.7563324 531.95318604 C-5.7576006 532.62428377 -5.7588688 533.2953815 -5.76017542 533.98681553 C-5.8445617 578.65786899 -5.92275747 623.32893368 -6 668 C-6.33 668 -6.66 668 -7 668 C-7.10286888 606.47576276 -7.1982614 544.95151558 -7.25405884 483.42721558 C-7.25488718 482.51619068 -7.25571552 481.60516578 -7.25656897 480.66653406 C-7.2745277 460.86604536 -7.29114861 441.06555575 -7.30639198 421.26506478 C-7.3138758 411.55447658 -7.32165515 401.84388863 -7.32958984 392.13330078 C-7.3303744 391.16699638 -7.33115895 390.20069198 -7.33196728 389.20510562 C-7.35752134 357.9017143 -7.4025787 326.5983881 -7.45778332 295.29503621 C-7.51442455 263.11852073 -7.55132325 230.94204126 -7.56348994 198.76547677 C-7.56521879 194.21756136 -7.56717261 189.66964606 -7.56926346 185.1217308 C-7.569668 184.22666291 -7.57007253 183.33159501 -7.57048933 182.40940384 C-7.57757117 168.01908952 -7.60537657 153.62888677 -7.6409922 139.2386179 C-7.67638026 124.76072244 -7.68979176 110.28293725 -7.68100826 95.80500008 C-7.67645544 87.21031783 -7.68851489 78.61604016 -7.72478526 70.02143119 C-7.7473937 64.26950735 -7.74790617 58.51784644 -7.73099088 52.76590398 C-7.72198894 49.49515695 -7.72546163 46.22531782 -7.74929909 42.95462383 C-7.85511626 27.53294713 -6.99955674 13.99911347 0 0 Z " fill="#F2C079" transform="translate(92,897)"/>
<path d="M0 0 C0.66 0 1.32 0 2 0 C1.99777939 0.80766312 1.99555878 1.61532623 1.99327087 2.44746399 C1.9732431 10.05477586 1.95801315 17.66207497 1.94818783 25.26940632 C1.94296676 29.18051083 1.93588315 33.09159357 1.92456055 37.00268555 C1.91370416 40.77630515 1.90771731 44.54990381 1.90512276 48.32353783 C1.90327348 49.76405352 1.89966238 51.20456806 1.89426994 52.64507484 C1.88702314 54.6609142 1.88659163 56.67677458 1.88647461 58.69262695 C1.884254 59.84068314 1.88203339 60.98873932 1.87974548 62.17158508 C1.87318275 65.07895488 1.87318275 65.07895488 3 68 C2.67 68.99 2.34 69.98 2 71 C1.86794803 74.49937717 1.9415 77.67499999 2.5625 81.125 C3.01645342 84.10812246 2.63005847 86.08597956 2 89 C2.33 89.99 2.66 90.98 3 92 C2.91291766 94.36517564 2.75879256 96.72806546 2.57001591 99.08730316 C1.93119349 107.93480562 1.86269925 116.73627487 1.87974548 125.60314941 C1.8793083 127.32050101 1.87843068 129.03785254 1.87715632 130.75520372 C1.87494033 135.42791281 1.87889254 140.10059858 1.88393438 144.7733047 C1.88828069 149.82964875 1.8867895 154.88599164 1.8860321 159.94233704 C1.88550951 168.68742684 1.88862864 177.43250913 1.89426994 186.17759705 C1.90242083 198.82129562 1.90500383 211.4649906 1.90625793 224.10869151 C1.90844283 244.62568572 1.91508763 265.14267593 1.92456055 285.65966797 C1.93374924 305.58186829 1.94082294 325.50406752 1.94506836 345.42626953 C1.94533108 346.65569513 1.94559381 347.88512073 1.94586449 349.15180165 C1.94716959 355.31989292 1.94843329 361.48798419 1.94967639 367.65607548 C1.96003148 418.77071974 1.97763445 469.88535968 2 521 C1.34 521.33 0.68 521.66 0 522 C0 349.74 0 177.48 0 0 Z " fill="#D17401" transform="translate(916,744)"/>
<path d="M0 0 C0.33 0 0.66 0 1 0 C1 110.88 1 221.76 1 336 C-84.14 336 -169.28 336 -257 336 C-257 336.66 -257 337.32 -257 338 C-262.28 338 -267.56 338 -273 338 C-272.67 337.34 -272.34 336.68 -272 336 C-268.7162872 335.10442791 -265.60575282 334.87536098 -262.2149229 334.87695217 C-260.80445029 334.87396586 -260.80445029 334.87396586 -259.36548328 334.87091923 C-258.34145751 334.87383189 -257.31743174 334.87674456 -256.26237488 334.87974548 C-255.1704332 334.87888947 -254.07849152 334.87803345 -252.95346069 334.87715149 C-249.2764931 334.87549396 -245.59957087 334.88102378 -241.92260742 334.88647461 C-239.24871121 334.88678088 -236.57481771 334.88669199 -233.90092182 334.88610935 C-227.4582138 334.88557774 -221.01551972 334.89019464 -214.57281529 334.89661068 C-207.12036018 334.90381015 -199.66791345 334.9046054 -192.2154541 334.90539551 C-172.53946719 334.91064603 -152.86348339 334.92460714 -133.1875 334.9375 C-89.235625 334.958125 -45.28375 334.97875 0 335 C0 224.45 0 113.9 0 0 Z " fill="#F8D286" transform="translate(406,526)"/>
<path d="M0 0 C1.11667279 3.35001838 0.76286236 5.59254812 0 9 C32.29825214 9.02283043 64.59650197 9.04051889 96.8947603 9.05106533 C100.71100883 9.05231598 104.52725735 9.05361031 108.34350586 9.05493164 C109.10322721 9.05519395 109.86294856 9.05545626 110.64569177 9.05572652 C122.9343631 9.06007352 135.22302974 9.06795574 147.51169828 9.0771528 C160.12833956 9.08651631 172.74497838 9.09206133 185.36162299 9.09408849 C193.14183987 9.09545812 200.92204349 9.09977832 208.70225628 9.10791647 C214.67598935 9.11384535 220.64971108 9.11445213 226.62344742 9.11310768 C229.06830235 9.11338224 231.51315779 9.11536398 233.95800972 9.11920547 C237.30416278 9.12420418 240.65025974 9.12297558 243.99641418 9.12025452 C244.95656474 9.12316736 245.9167153 9.1260802 246.90596133 9.12908131 C253.31805734 9.11505445 259.6244866 8.6772736 266 8 C266 8.66 266 9.32 266 10 C263.16077955 10.94640682 261.43258087 11.12443674 258.4922533 11.12304783 C257.56318033 11.12503888 256.63410736 11.12702993 255.67688066 11.12908131 C254.65451788 11.12616847 253.63215511 11.12325563 252.57881165 11.12025452 C250.95175467 11.12153615 250.95175467 11.12153615 249.29182786 11.12284368 C245.63895269 11.12449737 241.98612293 11.11897888 238.33325195 11.11352539 C235.72200522 11.11324347 233.11075841 11.11340135 230.49951172 11.1139679 C224.86829974 11.11449271 219.23709934 11.11135036 213.60589027 11.10573006 C205.46406879 11.09760928 197.32225291 11.09499924 189.18042781 11.09374207 C175.97143763 11.09155246 162.76245362 11.08489483 149.5534668 11.07543945 C136.72078482 11.06626299 123.88810452 11.0591833 111.05541992 11.05493164 C110.26465426 11.05466892 109.47388861 11.05440619 108.65916035 11.05413551 C104.69219338 11.05283049 100.7252264 11.05156678 96.75825942 11.05032361 C63.83883512 11.03995383 30.91941838 11.02233798 -2 11 C-1.85957123 9.35369672 -1.71250671 7.70795821 -1.5625 6.0625 C-1.48128906 5.14597656 -1.40007813 4.22945312 -1.31640625 3.28515625 C-1 1 -1 1 0 0 Z " fill="#D07A0F" transform="translate(917,1616)"/>
<path d="M0 0 C0.66 0 1.32 0 2 0 C2.14285714 7.42857143 2.14285714 7.42857143 1 11 C1.66 11.33 2.32 11.66 3 12 C2.67 13.32 2.34 14.64 2 16 C2.66 16.33 3.32 16.66 4 17 C3.649375 17.9075 3.29875 18.815 2.9375 19.75 C1.97833252 23.07511394 2.08990365 23.86522368 3 27 C2.66666667 28.66666667 2.33333333 30.33333333 2 32 C2.22792236 32.85198975 2.22792236 32.85198975 2.46044922 33.72119141 C3.1964394 36.82966758 3.12990697 39.76776456 3.1328125 42.9609375 C3.13376923 43.62912506 3.13472595 44.29731262 3.13571167 44.98574829 C3.13639048 46.39609878 3.13455705 47.80645244 3.13037109 49.21679688 C3.12503546 51.36074965 3.13031744 53.50449134 3.13671875 55.6484375 C3.13605759 57.02343796 3.13477563 58.39843828 3.1328125 59.7734375 C3.13168457 61.01528809 3.13055664 62.25713867 3.12939453 63.53662109 C3 67 3 67 2.5 69.80989075 C1.98472398 73.09746437 1.87298048 76.17886409 1.87060547 79.50512695 C1.86745331 80.77697342 1.86430115 82.04881989 1.86105347 83.35920715 C1.86284412 84.73556554 1.86489528 86.11192361 1.8671875 87.48828125 C1.86651286 88.91546139 1.86554149 90.34264142 1.86428833 91.76982117 C1.86281749 94.75630796 1.86494522 97.74276476 1.86962891 100.72924805 C1.87531025 104.53513908 1.87205342 108.34095932 1.86605644 112.14684772 C1.86242094 115.09387228 1.86360334 118.04088042 1.86618423 120.9879055 C1.86684607 122.38996578 1.86605142 123.7920276 1.86370468 125.19408607 C1.85408494 132.55931226 2.09834841 139.69315073 3 147 C3.00362349 148.79241987 2.96082686 150.58640415 2.84375 152.375 C2.76447266 153.75945312 2.76447266 153.75945312 2.68359375 155.171875 C2.56119792 157.05729167 2.43880208 158.94270833 2.31640625 160.828125 C2.02220704 165.96584771 2.02985119 170.74477003 2.86132812 175.83203125 C3 178 3 178 2.53320312 180.66894531 C1.84474654 184.96990761 1.89553363 189.13729077 1.9375 193.484375 C1.94128662 194.38117981 1.94507324 195.27798462 1.94897461 196.20196533 C1.96114011 199.05136027 1.97978161 201.90065152 2 204.75 C2.02652291 208.51562207 2.04653185 212.2811951 2.0625 216.046875 C2.07079834 216.91455505 2.07909668 217.78223511 2.08764648 218.6762085 C2.11278431 224.77443137 2.11278431 224.77443137 1 227 C1.66 227.33 2.32 227.66 3 228 C3.07335566 232.10791723 3.0582349 236.05224396 2.5 240.125 C1.54891376 246.21373245 1.54891376 246.21373245 3 252 C2.82273159 255.61627557 2.48136103 259.20672307 2.15625 262.8125 C1.74388588 265.89649605 1.74388588 265.89649605 3 268 C3.70842458 276.74821982 2.30342796 285.3764275 1 294 C0.67 294 0.34 294 0 294 C0 196.98 0 99.96 0 0 Z " fill="#DC8B00" transform="translate(915,1329)"/>
<path d="M0 0 C0.92558958 -0.0039821 1.85117916 -0.00796419 2.8048169 -0.01206696 C3.82328873 -0.00624128 4.84176055 -0.00041559 5.89109516 0.00558662 C6.97171626 0.00387777 8.05233736 0.00216892 9.16570455 0.00040829 C12.80481005 -0.00289908 16.44373319 0.0081377 20.08282185 0.01904488 C22.68421645 0.01960872 25.28561138 0.01929296 27.88700581 0.01815987 C33.49695141 0.01711025 39.10685056 0.02339486 44.71678448 0.03463554 C52.82783888 0.05087719 60.93887077 0.05609718 69.04993967 0.05861153 C82.20902512 0.06299073 95.36808579 0.07630594 108.52715778 0.09521675 C121.31133621 0.11356972 134.09550791 0.12772908 146.87969685 0.13623238 C147.66747551 0.13675782 148.45525417 0.13728327 149.26690491 0.13782464 C153.21888778 0.14043468 157.17087069 0.1429621 161.12285364 0.14544845 C193.91787735 0.16618796 226.7128707 0.20141962 259.50787067 0.24609566 C258.19537067 1.76953316 258.19537067 1.76953316 256.50787067 3.24609566 C253.50787067 2.87109566 253.50787067 2.87109566 250.50787067 2.24609566 C249.02287067 2.74109566 249.02287067 2.74109566 247.50787067 3.24609566 C244.9308127 3.34296379 242.38167647 3.38607204 239.80474567 3.37890816 C239.04873066 3.37986488 238.29271564 3.38082161 237.51379108 3.38180733 C235.91334672 3.38248763 234.31289958 3.38064377 232.71246052 3.37646675 C230.28091825 3.37114609 227.84956322 3.37640135 225.41802692 3.38281441 C223.85943277 3.38215302 222.30083873 3.3808706 220.74224567 3.37890816 C220.02220356 3.38093239 219.30216145 3.38295662 218.56029987 3.38504219 C215.42024662 3.37070802 212.42294074 3.23276642 209.31837845 2.74552441 C205.03237504 2.18377425 200.89507373 2.11029187 196.57978535 2.12584114 C195.70400772 2.12498672 194.82823009 2.12413229 193.92591375 2.12325197 C191.00407426 2.12161055 188.08229273 2.12709658 185.16045856 2.13257027 C183.06093058 2.13285245 180.9614025 2.13269379 178.86187458 2.13212776 C173.17031319 2.13184102 167.47877291 2.13771797 161.78721642 2.14470172 C155.83614633 2.15095564 149.88507575 2.15154067 143.93400288 2.15272713 C132.66841214 2.15583442 121.40283111 2.16403972 110.13724464 2.17407662 C97.3102418 2.18525641 84.4832385 2.19075291 71.656232 2.19577205 C45.27343951 2.20622282 18.89065564 2.22381064 -7.49212933 2.24609566 C-4.3315868 0.1390673 -3.60518006 -0.00341885 0 0 Z " fill="#FECB5C" transform="translate(465.4921293258667,477.75390434265137)"/>
<path d="M0 0 C3.14181296 2.8543705 4.92379222 5.4326487 6.625 9.3125 C7.23214844 10.66794922 7.23214844 10.66794922 7.8515625 12.05078125 C10.18348531 18.03922249 11.29421151 23.44411121 11.24609566 29.85791683 C11.24840335 30.62238515 11.25071103 31.38685347 11.25308865 32.1744875 C11.25837722 34.73294481 11.2494141 37.29114977 11.24050903 39.84959412 C11.24138133 41.70354667 11.24313277 43.55749897 11.24568737 45.41144997 C11.25016007 50.50357117 11.24215821 55.59560826 11.23213124 60.68771875 C11.22349798 66.17980787 11.22641682 71.67189221 11.22793579 77.16398621 C11.22898472 86.67863019 11.22270728 96.19324675 11.21146011 105.70788383 C11.19520917 119.46446568 11.18999752 133.22103426 11.18748413 146.97762466 C11.18310639 169.29653224 11.16981233 191.61542701 11.15087891 213.93432617 C11.1325076 235.6156405 11.11834157 257.29695093 11.10986328 278.97827148 C11.10960023 279.64668785 11.10933718 280.31510422 11.10906615 281.00377562 C11.10616743 288.38241031 11.10338375 295.76104504 11.10064721 303.13967979 C11.07991226 358.75979662 11.04468458 414.37989761 11 470 C10.67 470 10.34 470 10 470 C9.99853479 468.59157732 9.99853479 468.59157732 9.99703997 467.15470165 C9.93891053 411.53188756 9.86501968 355.90911261 9.77101372 300.28634703 C9.75974526 293.61090146 9.74860339 286.93545569 9.73754883 280.26000977 C9.73644626 279.59572008 9.7353437 278.9314304 9.73420772 278.24701072 C9.69853454 256.71263977 9.6725597 235.17827039 9.65161031 213.6438805 C9.62942061 190.88865859 9.59618834 168.13347352 9.55129844 145.37828451 C9.52476066 131.74483017 9.50708094 118.11142298 9.50065396 104.47794408 C9.49540659 95.13491651 9.47921153 85.79194832 9.45433434 76.44895255 C9.44029707 71.05477161 9.43115686 65.66069701 9.43499184 60.26649666 C9.43839526 55.32972755 9.42807647 50.39318581 9.40676448 45.45646328 C9.40148439 43.66900978 9.40127443 41.88153273 9.40660437 40.09407937 C9.41310759 37.66613601 9.40122557 35.23894537 9.38476086 32.81106472 C9.39103755 32.11552009 9.39731425 31.41997547 9.40378115 30.70335373 C9.34140064 25.7161337 8.12056425 22.41030989 6 18 C5.41015625 15.84765625 5.41015625 15.84765625 5.0625 14.0625 C4.19482892 10.25809602 2.6685172 7.07881618 0.8046875 3.6640625 C0 2 0 2 0 0 Z " fill="#EFB652" transform="translate(1224,124)"/>
<path d="M0 0 C0.33 0 0.66 0 1 0 C0.8608331 3.41697238 0.71250415 6.83348757 0.5625 10.25 C0.52318359 11.21808594 0.48386719 12.18617188 0.44335938 13.18359375 C0.40146484 14.11816406 0.35957031 15.05273438 0.31640625 16.015625 C0.27974854 16.87446289 0.24309082 17.73330078 0.20532227 18.61816406 C0 21 0 21 -0.50416607 22.82332492 C-1.07833623 25.34389038 -1.13116072 27.62280834 -1.1386652 30.20863724 C-1.14413964 31.2685869 -1.14961409 32.32853655 -1.15525442 33.4206059 C-1.15623253 34.58402092 -1.15721064 35.74743594 -1.15821838 36.94610596 C-1.16315636 38.18275647 -1.16809434 39.41940698 -1.17318195 40.69353175 C-1.18589948 44.12777845 -1.19418113 47.56198454 -1.20060861 50.99624538 C-1.20861296 54.6990163 -1.22231062 58.40176661 -1.23532104 62.10452271 C-1.25708328 68.52037155 -1.2752287 74.93622249 -1.29092598 81.35208893 C-1.31362689 90.62838413 -1.34176942 99.90465652 -1.37124526 109.18093237 C-1.41891844 124.23063756 -1.46218337 139.28035206 -1.50268555 154.33007812 C-1.54204186 168.95052821 -1.58346842 183.57097002 -1.62768555 198.19140625 C-1.63177196 199.54293891 -1.63177196 199.54293891 -1.63594092 200.92177525 C-1.64962042 205.44188234 -1.66334069 209.9619893 -1.67708123 214.4820962 C-1.79104171 251.98804692 -1.89785202 289.49401533 -2 327 C-2.33 327 -2.66 327 -3 327 C-3.06865336 286.35305655 -3.1215223 245.70612065 -3.15319599 205.05913081 C-3.15694815 200.26134428 -3.16083111 195.46355785 -3.16479492 190.66577148 C-3.16558185 189.71061093 -3.16636878 188.75545038 -3.16717956 187.77134556 C-3.18023662 172.30165896 -3.20389212 156.83200578 -3.23145839 141.36233901 C-3.25950422 125.49128313 -3.27617452 109.62024476 -3.28226548 93.74916512 C-3.28638363 83.9543603 -3.29939464 74.15964994 -3.3237494 64.36487419 C-3.33959644 57.64996443 -3.3444027 50.93510356 -3.34050413 44.22017645 C-3.33858098 40.34490954 -3.34154744 36.46980777 -3.35761642 32.59457016 C-3.3749113 28.39301156 -3.36896776 24.19180517 -3.36076355 19.99021912 C-3.36950207 18.76550555 -3.3782406 17.54079199 -3.38724393 16.27896589 C-3.35440079 10.07326588 -3.01042176 5.47723192 0 0 Z " fill="#F7A41A" transform="translate(729,133)"/>
<path d="M0 0 C0.92260488 -0.00199105 1.84520977 -0.0039821 2.79577237 -0.00603348 C3.80063662 -0.00312064 4.80550087 -0.0002078 5.84081554 0.00279331 C6.91497839 0.00193889 7.98914123 0.00108446 9.09585446 0.00020415 C12.70105917 -0.00144511 16.30621752 0.00406171 19.91141796 0.00952244 C22.49340342 0.00980445 25.07538897 0.00964629 27.65737438 0.00907993 C33.21925176 0.00855575 38.7811174 0.01169155 44.34299183 0.01731777 C52.38451405 0.02544703 60.42603061 0.02804946 68.4675565 0.02930576 C81.51460208 0.03149404 94.5616414 0.03814805 107.60868359 0.04760838 C120.28218587 0.05678829 132.95568646 0.06386629 145.6291914 0.06811619 C146.80111023 0.06851027 146.80111023 0.06851027 147.9967042 0.06891232 C151.91617768 0.07021736 155.83565118 0.07148107 159.75512469 0.07272422 C192.2677576 0.08308985 224.78038284 0.10070207 257.29300976 0.12304783 C257.29300976 0.45304783 257.29300976 0.78304783 257.29300976 1.12304783 C174.13300976 1.12304783 90.97300976 1.12304783 5.29300976 1.12304783 C5.29300976 1.78304783 5.29300976 2.44304783 5.29300976 3.12304783 C0.01300976 3.12304783 -5.26699024 3.12304783 -10.70699024 3.12304783 C-10.37699024 2.46304783 -10.04699024 1.80304783 -9.70699024 1.12304783 C-6.44910991 0.23643279 -3.36385966 -0.00160873 0 0 Z " fill="#FCEDB2" transform="translate(143.7069902420044,860.8769521713257)"/>
<path d="M0 0 C0.91728858 3.1223978 1.12150439 5.90582824 1.11352539 9.15489197 C1.1134549 10.19651993 1.1133844 11.23814789 1.11331177 12.31134033 C1.10814545 13.44859558 1.10297913 14.58585083 1.09765625 15.75756836 C1.09619598 16.95956375 1.09473572 18.16155914 1.0932312 19.39997864 C1.08942395 22.01148026 1.08380933 24.62290527 1.07516479 27.23438835 C1.06163078 31.36528657 1.0557457 35.49617405 1.05102539 39.62709045 C1.03898526 49.14269812 1.01693622 58.6582777 0.99479675 68.17386627 C0.9746098 76.89329199 0.95654082 85.61270824 0.94658184 94.33215243 C0.94160435 98.4369662 0.93175173 102.54173045 0.91815186 106.64652431 C0.90892897 109.80202267 0.9061717 112.95752829 0.90234375 116.11303711 C0.89717743 117.24826813 0.89201111 118.38349915 0.88668823 119.5531311 C0.88661774 120.59757889 0.88654724 121.64202667 0.88647461 122.71812439 C0.884254 123.62273879 0.88203339 124.52735319 0.87974548 125.45938015 C0.93425191 128.04209973 0.93425191 128.04209973 1.56568909 130.68558598 C2.09418075 133.50188298 1.49807214 134.62070895 0 137 C0.66 137.33 1.32 137.66 2 138 C1.67 138.33 1.34 138.66 1 139 C0.91758875 140.37141314 0.9035529 141.74704078 0.91821289 143.12084961 C0.92800926 144.43242287 0.92800926 144.43242287 0.93800354 145.77049255 C0.94943893 146.72150345 0.96087433 147.67251434 0.97265625 148.65234375 C0.98530219 150.64518056 0.99766317 152.63801919 1.00976562 154.63085938 C1.03461767 157.78903807 1.06260161 160.94712372 1.09594727 164.10522461 C1.12605433 167.14177058 1.14389628 170.17819659 1.16015625 173.21484375 C1.17361588 174.16383041 1.1870755 175.11281708 1.20094299 176.09056091 C1.20432175 176.96809525 1.2077005 177.84562958 1.21118164 178.74975586 C1.21863907 179.5239537 1.2260965 180.29815155 1.23377991 181.09580994 C1 183 1 183 -1 185 C-1.02332624 161.02665225 -1.04097782 137.05330618 -1.05181217 113.07994938 C-1.05697571 101.94953597 -1.06401952 90.8191296 -1.07543945 79.6887207 C-1.08538451 69.99119784 -1.091853 60.29368007 -1.09408849 50.59615225 C-1.0953959 45.45802171 -1.09848366 40.31990574 -1.10573006 35.18177986 C-1.11248747 30.35150554 -1.11461753 25.52125188 -1.11310768 20.69097328 C-1.11338414 18.91274147 -1.1153909 17.13450902 -1.11920547 15.35628128 C-1.12413838 12.93936364 -1.1229998 10.52252533 -1.12025452 8.10560608 C-1.12316736 7.39258443 -1.1260802 6.67956279 -1.12908131 5.94493443 C-1.11412121 1.11412121 -1.11412121 1.11412121 0 0 Z " fill="#D97905" transform="translate(917,541)"/>
<path d="M0 0 C-0.99 0.33 -1.98 0.66 -3 1 C-3.33 1.66 -3.66 2.32 -4 3 C-5.99609375 4.0703125 -5.99609375 4.0703125 -8.4375 5.125 C-9.24058594 5.47820312 -10.04367187 5.83140625 -10.87109375 6.1953125 C-13 7 -13 7 -15 7 C-15.33 7.99 -15.66 8.98 -16 10 C-17.453125 11.39453125 -17.453125 11.39453125 -19.25 12.8125 C-24.19740407 16.90830173 -27.81579917 21.3897414 -31 27 C-31.66 27.99 -32.32 28.98 -33 30 C-33.69437747 31.99054876 -34.35610218 33.99255385 -35 36 C-35.50799637 37.09127197 -36.01599274 38.18254395 -36.53938293 39.30688477 C-38.84266032 45.4682637 -38.4405638 51.9139153 -38.43237305 58.40234375 C-38.44140123 59.85178965 -38.45173104 61.30122794 -38.46325684 62.75065613 C-38.49072911 66.66536724 -38.50009798 70.5799331 -38.50611091 74.49472809 C-38.51552015 78.59338588 -38.54172553 82.69193626 -38.56611633 86.79052734 C-38.60971506 94.54279476 -38.63830265 102.29504125 -38.66143972 110.0473938 C-38.688527 118.8769776 -38.73243628 127.70645299 -38.77772844 136.53595924 C-38.87047975 154.69058219 -38.94220396 172.84523381 -39 191 C-39.33 191 -39.66 191 -40 191 C-40.11707763 171.66701773 -40.20510739 152.33410793 -40.25906086 133.000844 C-40.28478422 124.02298404 -40.31982173 115.04534504 -40.37719727 106.06762695 C-40.42721281 98.23778094 -40.45933361 90.40809504 -40.47044247 82.57809371 C-40.47693072 78.43648707 -40.49205545 74.29533828 -40.52865028 70.15387917 C-40.56289777 66.24595649 -40.57299595 62.33867488 -40.56553841 58.43061638 C-40.56690026 57.00570298 -40.57666065 55.5807654 -40.59602737 54.15598297 C-40.77006235 40.67740085 -37.25502335 29.68657725 -29 19 C-28.24976563 18.00419922 -28.24976563 18.00419922 -27.484375 16.98828125 C-22.70832573 11.08777377 -8.44716238 -4.22358119 0 0 Z " fill="#FED161" transform="translate(447,484)"/>
<path d="M0 0 C0.33 0 0.66 0 1 0 C0.8608331 3.41697238 0.71250415 6.83348757 0.5625 10.25 C0.52318359 11.21808594 0.48386719 12.18617188 0.44335938 13.18359375 C0.40146484 14.11816406 0.35957031 15.05273438 0.31640625 16.015625 C0.27974854 16.87446289 0.24309082 17.73330078 0.20532227 18.61816406 C0 21 0 21 -0.5 22.65002441 C-1.22907545 26.07664341 -1.17863889 29.49327741 -1.20532227 32.98144531 C-1.21522186 33.7818222 -1.22512146 34.5821991 -1.23532104 35.40682983 C-1.26685942 38.04723166 -1.29166313 40.68765147 -1.31640625 43.328125 C-1.3369824 45.16087303 -1.35797904 46.99361639 -1.37937927 48.82635498 C-1.43453171 53.64644582 -1.48397108 58.466579 -1.53222656 63.28674316 C-1.58249146 68.20682537 -1.63815148 73.12684621 -1.69335938 78.046875 C-1.80085743 87.69786422 -1.90232093 97.34890676 -2 107 C-2.33 107 -2.66 107 -3 107 C-3.06955183 94.08254898 -3.12283775 81.16514261 -3.15543652 68.24754238 C-3.17108334 62.24918942 -3.19230397 56.25096471 -3.22631836 50.25268555 C-3.25894641 44.46255802 -3.27686041 38.67255376 -3.28463173 32.88234138 C-3.29016901 30.67477542 -3.30098196 28.46721609 -3.31719017 26.25970268 C-3.33900987 23.16444262 -3.34196498 20.06969 -3.34057617 16.97436523 C-3.351362 16.06445831 -3.36214783 15.15455139 -3.3732605 14.21707153 C-3.34658442 8.7121247 -2.52343611 4.9089424 0 0 Z " fill="#FBAA1B" transform="translate(729,133)"/>
<path d="M0 0 C3.14181296 2.8543705 4.92379222 5.4326487 6.625 9.3125 C7.23214844 10.66794922 7.23214844 10.66794922 7.8515625 12.05078125 C11.08406366 20.3519322 11.265008 27.58484192 11.1953125 36.46484375 C11.19157708 37.8673126 11.18873261 39.26978407 11.18673706 40.67225647 C11.17914221 44.34326527 11.15952998 48.01411295 11.1373291 51.68505859 C11.11678072 55.43910544 11.10771621 59.19317861 11.09765625 62.94726562 C11.07627965 70.29825011 11.04219457 77.64910238 11 85 C10.67 85 10.34 85 10 85 C9.99413376 84.26385971 9.98826752 83.52771942 9.98222351 82.76927185 C9.92416878 75.81051895 9.85201925 68.85203729 9.76428509 61.89359951 C9.71967697 58.31670347 9.68040047 54.73991882 9.65356445 51.1628418 C9.62743513 47.70668193 9.5869665 44.2509529 9.53681374 40.79506111 C9.5121637 38.84381509 9.50212513 36.89240204 9.49235535 34.94102478 C9.38645769 28.51725844 9.08211408 23.6762101 6 18 C5.41015625 15.84765625 5.41015625 15.84765625 5.0625 14.0625 C4.19482892 10.25809602 2.6685172 7.07881618 0.8046875 3.6640625 C0 2 0 2 0 0 Z " fill="#F1B33C" transform="translate(1224,124)"/>
<path d="M0 0 C0.66 0 1.32 0 2 0 C2.14285714 7.42857143 2.14285714 7.42857143 1 11 C1.66 11.33 2.32 11.66 3 12 C2.67 13.32 2.34 14.64 2 16 C2.66 16.33 3.32 16.66 4 17 C3.649375 17.9075 3.29875 18.815 2.9375 19.75 C1.97833252 23.07511394 2.08990365 23.86522368 3 27 C2.66666667 28.66666667 2.33333333 30.33333333 2 32 C2.15122314 32.56509277 2.30244629 33.13018555 2.45825195 33.71240234 C3.66086968 38.79060337 3.18589022 44.23141664 3.18530273 49.43652344 C3.18749954 51.62454384 3.20570556 53.81206802 3.22460938 56 C3.22754165 57.38801911 3.22952756 58.77604061 3.23046875 60.1640625 C3.23457764 61.42686035 3.23868652 62.6896582 3.24291992 63.99072266 C3 67 3 67 1 69 C0.17677801 45.99138328 -0.136665 23.02279598 0 0 Z " fill="#D37E01" transform="translate(915,1329)"/>
<path d="M0 0 C1.22126839 0.00212242 1.22126839 0.00212242 2.46720886 0.00428772 C5.05500031 0.00986308 7.64270367 0.02241101 10.23046875 0.03515625 C11.99023312 0.04017444 13.74999886 0.04473679 15.50976562 0.04882812 C19.81253369 0.05982444 24.11523631 0.07707204 28.41796875 0.09765625 C28.41796875 0.42765625 28.41796875 0.75765625 28.41796875 1.09765625 C19.50796875 1.09765625 10.59796875 1.09765625 1.41796875 1.09765625 C1.41796875 1.75765625 1.41796875 2.41765625 1.41796875 3.09765625 C-3.86203125 3.09765625 -9.14203125 3.09765625 -14.58203125 3.09765625 C-14.25203125 2.43765625 -13.92203125 1.77765625 -13.58203125 1.09765625 C-9.15619577 -0.25425277 -4.58272632 -0.03018769 0 0 Z " fill="#FDEAA1" transform="translate(147.58203125,860.90234375)"/>
<path d="M0 0 C0.33 0 0.66 0 1 0 C0.67 6.93 0.34 13.86 0 21 C-0.99 21.33 -1.98 21.66 -3 22 C-3.55353075 6.07061503 -3.55353075 6.07061503 0 0 Z " fill="#F9AF34" transform="translate(729,133)"/>
<path d="M0 0 C12.54 0 25.08 0 38 0 C37.01 0.99 36.02 1.98 35 3 C32.75317383 2.70727539 32.75317383 2.70727539 30 2 C27.65185634 1.8548483 25.30080143 1.75364089 22.94921875 1.68359375 C22.29041214 1.66281265 21.63160553 1.64203156 20.95283508 1.62062073 C18.86448815 1.55564511 16.77602388 1.49648425 14.6875 1.4375 C13.2649622 1.39426521 11.84243594 1.3506494 10.41992188 1.30664062 C6.94673703 1.20001784 3.47342274 1.09860652 0 1 C0 0.67 0 0.34 0 0 Z " fill="#FBC86E" transform="translate(687,478)"/>
<path d="M0 0 C0.33 0 0.66 0 1 0 C1.47547043 4.75470428 0.35171823 7.37871982 -1.91015625 11.5 C-4.18109536 16.70932269 -4.96854777 22.43640919 -6 28 C-6.33 28 -6.66 28 -7 28 C-7.34641432 21.55816768 -6.2364015 16.66416802 -4.0625 10.625 C-3.78470703 9.81933594 -3.50691406 9.01367188 -3.22070312 8.18359375 C-1.23441793 2.46883585 -1.23441793 2.46883585 0 0 Z " fill="#FDE39F" transform="translate(92,897)"/>
<path d="M0 0 C4.16204606 2.55398281 7.22931926 4.95054353 10 9 C10 9.66 10 10.32 10 11 C9.01 11.33 8.02 11.66 7 12 C6.773125 11.4225 6.54625 10.845 6.3125 10.25 C5.06819082 7.78801489 5.06819082 7.78801489 2.375 6 C1.59125 5.34 0.8075 4.68 0 4 C0 2.68 0 1.36 0 0 Z " fill="#F7A51C" transform="translate(1210,108)"/>
<path d="M0 0 C0.33 0.66 0.66 1.32 1 2 C0.34 2 -0.32 2 -1 2 C-1.268125 2.58265625 -1.53625 3.1653125 -1.8125 3.765625 C-3.01480991 6.02786601 -4.33825913 7.80576318 -6 9.75 C-6.515625 10.36359375 -7.03125 10.9771875 -7.5625 11.609375 C-9 13 -9 13 -11 13 C-9.56179563 7.72658399 -5.9961885 4.50608991 -2 1 C-1.34 0.67 -0.68 0.34 0 0 Z " fill="#F9B034" transform="translate(748,109)"/>
<path d="M0 0 C0.66 0.33 1.32 0.66 2 1 C0.21427748 2.83947337 -1.57802449 4.67157741 -3.375 6.5 C-3.88289063 7.02464844 -4.39078125 7.54929687 -4.9140625 8.08984375 C-6.23832604 9.43153181 -7.61605865 10.71995815 -9 12 C-9.66 12 -10.32 12 -11 12 C-11 11.34 -11 10.68 -11 10 C-10.34 10 -9.68 10 -9 10 C-8.74476562 9.40703125 -8.48953125 8.8140625 -8.2265625 8.203125 C-6.88183502 5.78775462 -5.50785633 4.48788294 -3.375 2.75 C-2.74335937 2.22921875 -2.11171875 1.7084375 -1.4609375 1.171875 C-0.73777344 0.59179688 -0.73777344 0.59179688 0 0 Z " fill="#FCDE92" transform="translate(111,874)"/>
<path d="M0 0 C4.16138263 -0.08159574 7.9472484 0.01751476 12 1 C12 1.66 12 2.32 12 3 C3.42857143 3.28571429 3.42857143 3.28571429 0 1 C0 0.67 0 0.34 0 0 Z " fill="#FAD059" transform="translate(132,1623)"/>
<path d="M0 0 C2.55803184 3.83704776 4.34505724 7.75712791 3.625 12.4375 C3.41875 12.953125 3.2125 13.46875 3 14 C0.31907309 11.31907309 0.61329743 9.60832637 0.375 5.875 C0.30023437 4.77929688 0.22546875 3.68359375 0.1484375 2.5546875 C0.09945313 1.71164063 0.05046875 0.86859375 0 0 Z " fill="#F3BE4E" transform="translate(1231,136)"/>
<path d="M0 0 C3.96 0 7.92 0 12 0 C10.515 1.485 10.515 1.485 9 3 C6.73828125 2.85546875 6.73828125 2.85546875 4.3125 2.1875 C3.50425781 1.97480469 2.69601562 1.76210938 1.86328125 1.54296875 C0.94095703 1.27419922 0.94095703 1.27419922 0 1 C0 0.67 0 0.34 0 0 Z " fill="#F9C75C" transform="translate(713,478)"/>
<path d="M0 0 C2.64 0 5.28 0 8 0 C7.67 0.66 7.34 1.32 7 2 C4.71484375 2.6328125 4.71484375 2.6328125 1.9375 3.125 C1.01839844 3.29257813 0.09929688 3.46015625 -0.84765625 3.6328125 C-1.91306641 3.81457031 -1.91306641 3.81457031 -3 4 C-2.67 3.34 -2.34 2.68 -2 2 C-1.34 2 -0.68 2 0 2 C0 1.34 0 0.68 0 0 Z " fill="#FED27C" transform="translate(768,96)"/>
<path d="M0 0 C0 0.66 0 1.32 0 2 C-4.43076923 4.09230769 -4.43076923 4.09230769 -7.3125 3.625 C-7.869375 3.41875 -8.42625 3.2125 -9 3 C-5.55930376 0.70620251 -4.27709699 0 0 0 Z " fill="#FCB038" transform="translate(765,100)"/>
<path d="M0 0 C2 0 2 0 3.5625 1.25 C5.14533111 3.17692483 5.5806825 4.56795851 6 7 C3.53199953 5.84826645 1.95216435 4.95216435 0 3 C0 2.01 0 1.02 0 0 Z " fill="#E98706" transform="translate(894,491)"/>
<path d="M0 0 C1.65 0.33 3.3 0.66 5 1 C2.4345406 3.5654594 0.52313332 3.54046087 -3 4 C-2.34 3.67 -1.68 3.34 -1 3 C-0.67 2.01 -0.34 1.02 0 0 Z " fill="#E59621" transform="translate(1187,1622)"/>
</svg>
