<?xml version="1.0" standalone="no"?>
<!DOCTYPE svg PUBLIC "-//W3C//DTD SVG 20010904//EN"
 "http://www.w3.org/TR/2001/REC-SVG-20010904/DTD/svg10.dtd">
<svg version="1.0" xmlns="http://www.w3.org/2000/svg"
 width="276.000000pt" height="274.000000pt" viewBox="0 0 276.000000 274.000000"
 preserveAspectRatio="xMidYMid meet">

<g transform="translate(0.000000,274.000000) scale(0.100000,-0.100000)"
fill="#000000" stroke="none">
<path d="M548 1293 c23 -2 59 -2 80 0 20 2 1 4 -43 4 -44 0 -61 -2 -37 -4z"/>
<path d="M480 1275 c0 -8 2 -15 4 -15 2 0 6 7 10 15 3 8 1 15 -4 15 -6 0 -10
-7 -10 -15z"/>
<path d="M1452 1260 c0 -14 2 -19 5 -12 2 6 2 18 0 25 -3 6 -5 1 -5 -13z"/>
<path d="M483 1235 c0 -8 4 -15 9 -15 4 0 8 7 8 15 0 8 -4 15 -8 15 -5 0 -9
-7 -9 -15z"/>
<path d="M501 1174 c0 -11 3 -14 6 -6 3 7 2 16 -1 19 -3 4 -6 -2 -5 -13z"/>
<path d="M1453 490 c0 -36 2 -50 4 -32 2 17 2 47 0 65 -2 17 -4 3 -4 -33z"/>
</g>
</svg>
