<?xml version="1.0" encoding="UTF-8"?>
<svg version="1.1" xmlns="http://www.w3.org/2000/svg" width="512" height="512">
<path d="M0 0 C1.82651344 0.41727104 1.82651344 0.41727104 3.68992615 0.8429718 C7.0031914 1.60110763 10.3151327 2.3646042 13.62660313 3.13051558 C17.11434665 3.93575978 20.60373461 4.7338144 24.09295654 5.53262329 C30.70338624 7.04708279 37.31240881 8.56758889 43.92090487 10.09046137 C53.58293491 12.31670952 63.24706932 14.53378861 72.91119003 16.75094032 C74.3480004 17.08058949 75.78480995 17.41024225 77.22161865 17.73989868 C77.92431122 17.90111131 78.62700378 18.06232394 79.35099006 18.22842181 C83.48377272 19.17678199 87.61616112 20.12683621 91.74818373 21.07850242 C93.70827032 21.52986173 95.66847303 21.98071664 97.62867737 22.43156433 C99.99875105 22.97669638 102.36865209 23.52257996 104.73832703 24.06944275 C111.71857773 25.67366035 118.71237637 27.18410611 125.72871017 28.62307167 C128.42871094 29.27197266 128.42871094 29.27197266 129.42871094 30.27197266 C129.55431749 32.48087833 129.60851527 34.69384545 129.63644409 36.90614319 C129.64647087 37.60780765 129.65649765 38.3094721 129.66682827 39.03239912 C129.69910773 41.40136489 129.72392187 43.77034727 129.74853516 46.1394043 C129.76951979 47.83098667 129.79076612 49.52256581 129.81225586 51.21414185 C130.00024933 66.67837342 130.10286037 82.1436849 130.18440056 97.60880375 C130.24597208 109.04349335 130.34946656 120.47621508 130.50709522 131.90999132 C130.61415628 139.94569278 130.67144661 147.98085255 130.6925317 156.01723379 C130.70660598 160.81854331 130.74305191 165.61727855 130.83376694 170.41780281 C130.91831692 174.93889406 130.9411835 179.4561759 130.91740417 183.97795486 C130.91937906 185.63410155 130.94351766 187.29039809 130.99184036 188.94584084 C131.13212262 194.01142066 131.06232212 198.44053032 129.42871094 203.27197266 C125.48318116 207.08094699 121.44520097 209.03843852 116.42871094 211.27197266 C114.40150552 212.42805535 112.38491198 213.60321482 110.38574219 214.80712891 C108.33865543 215.98480743 106.29044265 217.16053045 104.24121094 218.33447266 C102.54039241 219.31243716 100.83957554 220.29040457 99.13885498 221.26853943 C97.39191912 222.272913 95.64450536 223.27645046 93.89697266 224.27978516 C88.3625019 227.45881383 82.83267804 230.64588392 77.30371094 233.83447266 C75.68879761 234.7656189 75.68879761 234.7656189 74.04125977 235.71557617 C66.82472597 239.88002594 59.62263667 244.0686071 52.42871094 248.27197266 C40.90918193 255.00276101 29.35536171 261.67314947 17.79443359 268.33251953 C14.27977843 270.35779304 10.76615624 272.38484745 7.25292969 274.41259766 C6.66278076 274.75319717 6.07263184 275.09379669 5.46459961 275.44471741 C2.63178337 277.07967173 -0.20097906 278.7147192 -3.03369141 280.34985352 C-5.01835541 281.49506976 -7.00517674 282.63655951 -8.99462891 283.7734375 C-10.57482161 284.69244668 -12.1416552 285.63555634 -13.68310547 286.61816406 C-17.99088439 289.33038342 -17.99088439 289.33038342 -20.94384766 289.03320312 C-23.80789407 288.20342272 -26.09076747 287.07404209 -28.68457031 285.60400391 C-29.67255615 285.047854 -30.66054199 284.4917041 -31.6784668 283.91870117 C-32.73622314 283.31340576 -33.79397949 282.70811035 -34.88378906 282.08447266 C-35.99246338 281.45661865 -37.1011377 280.82876465 -38.2434082 280.18188477 C-47.70094564 274.81003567 -57.09830557 269.33501287 -66.48144531 263.83447266 C-72.78699325 260.13983955 -79.11423343 256.48344584 -85.44628906 252.83447266 C-86.52644287 252.21193604 -87.60659668 251.58939941 -88.71948242 250.94799805 C-90.9092524 249.68620439 -93.09911261 248.42456732 -95.2890625 247.16308594 C-100.71788848 244.03517118 -106.14448881 240.90340018 -111.57128906 237.77197266 C-118.15301783 233.97457302 -124.73492979 230.17749173 -131.31738281 226.38134766 C-132.43822266 225.73488281 -133.5590625 225.08841797 -134.71386719 224.42236328 C-136.80233637 223.21781052 -138.89087013 222.0133697 -140.97949219 220.80908203 C-142.95148741 219.67164247 -144.90230119 218.49664951 -146.82962036 217.28504944 C-149.59401134 215.65927939 -152.22901274 214.74029052 -155.30966187 213.86778259 C-161.21910724 211.87535491 -165.94109957 209.4915772 -169.57128906 204.27197266 C-173.01743673 192.72826506 -171.84021719 179.92483829 -171.49777389 168.02097726 C-171.37849649 163.174165 -171.36780073 158.32710307 -171.34529114 153.47904968 C-171.28637523 144.31168328 -171.13067692 135.14865329 -170.93965083 125.98319167 C-170.7268222 115.54360522 -170.62270385 105.10380467 -170.52743757 94.66258681 C-170.32915914 73.19663375 -169.99526083 51.73457694 -169.57128906 30.27197266 C-166.52530252 29.00008349 -163.58701309 27.94136278 -160.36686707 27.21885681 C-159.55955643 27.03558838 -158.75224579 26.85231995 -157.92047119 26.66349792 C-157.04751404 26.46976089 -156.17455688 26.27602386 -155.27514648 26.07641602 C-154.34380386 25.86624847 -153.41246124 25.65608093 -152.45289612 25.43954468 C-149.3617225 24.74302416 -146.2692581 24.05242063 -143.17675781 23.36181641 C-140.99278222 22.87093344 -138.80888986 22.37968005 -136.62507629 21.88807678 C-130.84293159 20.58748509 -125.05968153 19.29187551 -119.27618408 17.99731445 C-112.4210317 16.4618669 -105.56720706 14.92050421 -98.71328926 13.37955666 C-93.11579906 12.12149679 -87.51770132 10.86628068 -81.91818237 9.61727905 C-72.45484775 7.50470477 -62.99458748 5.38508048 -53.55650234 3.16196728 C-49.85784834 2.29087774 -46.15683024 1.43007622 -42.45571327 0.56952095 C-40.76063481 0.17184281 -39.06685293 -0.23141178 -37.37456322 -0.64079475 C-35.06209261 -1.20012892 -32.7458556 -1.7401979 -30.42797852 -2.27661133 C-29.77367922 -2.44069677 -29.11937992 -2.60478222 -28.44525337 -2.77383995 C-18.85744668 -4.93627365 -9.35476422 -2.17690269 0 0 Z " fill="#DB1F26" transform="translate(275.5712890625,114.72802734375)"/>
<path d="M0 0 C1.41802194 0.47276603 1.41802194 0.47276603 2.86469078 0.95508289 C22.00905377 7.33766669 41.15438999 13.71730392 60.30189896 20.09044456 C67.62517723 22.52826488 74.94803406 24.96735099 82.27091408 27.4063673 C88.64779957 29.53023198 95.02486854 31.65354169 101.40234375 33.77563477 C107.67529133 35.86294976 113.94772061 37.95181688 120.21982956 40.04165077 C122.59042333 40.83123345 124.96119289 41.62028855 127.33214188 42.40880394 C130.60681795 43.49796236 133.88087521 44.58896115 137.15478516 45.68041992 C138.12896896 46.00394943 139.10315277 46.32747894 140.1068573 46.66081238 C141.43389931 47.10384705 141.43389931 47.10384705 142.78775024 47.55583191 C143.55770136 47.81217502 144.32765247 48.06851812 145.12093544 48.3326292 C147 49 147 49 149 50 C149 118.97 149 187.94 149 259 C145.50527389 257.60210955 142.55006512 256.28283805 139.32421875 254.453125 C138.42662842 253.94539551 137.52903809 253.43766602 136.60424805 252.91455078 C135.64172119 252.36524902 134.67919434 251.81594727 133.6875 251.25 C132.67276611 250.67362793 131.65803223 250.09725586 130.61254883 249.50341797 C121.4219122 244.26959599 112.28811786 238.93975958 103.16015625 233.59765625 C93.56057762 227.98321325 83.91864049 222.4419968 74.28222656 216.89111328 C68.85340059 213.76319852 63.42680025 210.63142753 58 207.5 C51.41827123 203.70260037 44.83635928 199.90551907 38.25390625 196.109375 C37.13306641 195.46291016 36.01222656 194.81644531 34.85742188 194.15039062 C32.76895269 192.94583786 30.68041893 191.74139704 28.59179688 190.53710938 C26.61980165 189.39966981 24.66898787 188.22467686 22.7416687 187.01307678 C19.97727772 185.38730673 17.34227633 184.46831787 14.2616272 183.59580994 C8.35218182 181.60338226 3.6301895 179.21960454 0 174 C-3.44614767 162.4562924 -2.26892812 149.65286563 -1.92648482 137.7490046 C-1.80720742 132.90219234 -1.79651167 128.05513041 -1.77400208 123.20707703 C-1.71508616 114.03971062 -1.55938786 104.87668063 -1.36836177 95.71121901 C-1.15553313 85.27163256 -1.05141479 74.83183201 -0.95614851 64.39061415 C-0.75787007 42.9246611 -0.42397177 21.46260429 0 0 Z " fill="#9A161B" transform="translate(106,145)"/>
<path d="M0 0 C1.82651344 0.41727104 1.82651344 0.41727104 3.68992615 0.8429718 C7.0031914 1.60110763 10.3151327 2.3646042 13.62660313 3.13051558 C17.11434665 3.93575978 20.60373461 4.7338144 24.09295654 5.53262329 C30.70338624 7.04708279 37.31240881 8.56758889 43.92090487 10.09046137 C53.58293491 12.31670952 63.24706932 14.53378861 72.91119003 16.75094032 C74.3480004 17.08058949 75.78480995 17.41024225 77.22161865 17.73989868 C77.92431122 17.90111131 78.62700378 18.06232394 79.35099006 18.22842181 C83.48377272 19.17678199 87.61616112 20.12683621 91.74818373 21.07850242 C93.70827032 21.52986173 95.66847303 21.98071664 97.62867737 22.43156433 C99.99875105 22.97669638 102.36865209 23.52257996 104.73832703 24.06944275 C112.61946284 25.88070388 120.51768655 27.59621046 128.42871094 29.27197266 C128.42871094 29.93197266 128.42871094 30.59197266 128.42871094 31.27197266 C109.38930545 37.69632387 90.34419327 44.10346779 71.29213619 50.49020481 C62.44598085 53.45610776 53.60177842 56.42760248 44.76196289 59.41235352 C37.05678676 62.01397931 29.34814791 64.60502356 21.63517481 67.18344635 C17.55167346 68.54895734 13.47009568 69.91968588 9.39262199 71.30310249 C5.55318307 72.60557221 1.70926359 73.89382015 -2.1385231 75.17140961 C-3.54834132 75.64226461 -4.95645881 76.11824841 -6.36266518 76.59978294 C-8.28668046 77.25776944 -10.21763191 77.89536781 -12.14881897 78.53199768 C-13.22639497 78.89426232 -14.30397097 79.25652697 -15.41420078 79.62976933 C-21.18698807 80.80404856 -26.2730961 79.20485157 -31.7525177 77.37414551 C-32.94564575 76.97875076 -34.1387738 76.58335602 -35.36805725 76.17597961 C-36.67127255 75.73738832 -37.97444812 75.29867895 -39.27758789 74.85986328 C-40.66435009 74.39777898 -42.05128727 73.93621953 -43.43838501 73.47514343 C-47.18981305 72.22646826 -50.93872134 70.97038294 -54.68718553 69.71284294 C-58.61264381 68.39724411 -62.54029937 67.08823739 -66.46769714 65.77844238 C-73.05686663 63.57990615 -79.64454121 61.37694105 -86.23120117 59.17089844 C-94.69146237 56.33735629 -103.15401571 53.5107269 -111.61736012 50.686409 C-118.8926271 48.25855568 -126.16699763 45.8280207 -133.44114089 43.3968029 C-135.00306957 42.87480976 -136.56502947 42.35291003 -138.12702012 41.83110237 C-142.57544204 40.34503671 -147.0233881 38.85756528 -151.47052383 37.3676548 C-152.81922793 36.91604328 -154.16810129 36.46493692 -155.51715279 36.01436424 C-157.35356127 35.40090425 -159.1892897 34.7854096 -161.02497864 34.1697998 C-162.05382581 33.82542625 -163.08267298 33.4810527 -164.14269733 33.12624359 C-166.57128906 32.27197266 -166.57128906 32.27197266 -168.57128906 31.27197266 C-168.57128906 30.61197266 -168.57128906 29.95197266 -168.57128906 29.27197266 C-152.19313898 25.55946394 -135.81488957 21.84739379 -119.43652534 18.13582993 C-111.82987041 16.41204624 -104.22324669 14.68812503 -96.61669922 12.96386719 C-89.97823064 11.45905457 -83.33970068 9.9545131 -76.70110023 8.45028234 C-73.19385924 7.65557219 -69.68664684 6.86073642 -66.17950821 6.06557465 C-65.50639803 5.91298321 -64.83328786 5.76039177 -64.1397804 5.60317636 C-62.80708791 5.30102729 -61.47441556 4.99878935 -60.14176428 4.69645858 C-56.98219605 3.97996959 -53.82202142 3.26634801 -50.66090584 2.5567131 C-45.45571476 1.38761637 -40.25710336 0.20675084 -35.0770874 -1.06970215 C-33.85436788 -1.3635914 -33.85436788 -1.3635914 -32.60694695 -1.66341782 C-31.17912068 -2.0080348 -29.75399191 -2.36424051 -28.33325386 -2.73700333 C-18.82557704 -4.99805191 -9.28670267 -2.16106441 0 0 Z " fill="#E66267" transform="translate(275.5712890625,114.72802734375)"/>
<path d="M0 0 C-0.55094416 6.60068265 -1.46761253 13.00281154 -2.8203125 19.484375 C-2.99988495 20.36705048 -3.1794574 21.24972595 -3.36447144 22.15914917 C-3.74865748 24.04687076 -4.13486556 25.9341818 -4.52294922 27.82110596 C-5.55019684 32.81852401 -6.56142242 37.81916019 -7.5703125 42.8203125 C-7.87717987 44.34094803 -7.87717987 44.34094803 -8.19024658 45.89230347 C-10.56789296 57.73655726 -12.73900096 69.61777174 -14.87939453 81.50683594 C-15.01644806 82.26441193 -15.15350159 83.02198792 -15.29470825 83.80252075 C-15.66096453 85.82969275 -16.02396884 87.85745154 -16.38671875 89.88525391 C-17 93 -17 93 -18 96 C-20.43359375 97.60546875 -20.43359375 97.60546875 -23.4375 99.1875 C-24.42621094 99.71730469 -25.41492188 100.24710937 -26.43359375 100.79296875 C-29 102 -29 102 -31 102 C-35.63759526 85.74612048 -39.81055578 69.37365342 -44 53 C-44.15557373 53.78310547 -44.31114746 54.56621094 -44.47143555 55.37304688 C-47.18681494 69.02866493 -49.90928426 82.68228673 -52.75 96.3125 C-52.94811279 97.26382813 -53.14622559 98.21515625 -53.3503418 99.1953125 C-53.72129263 100.96750992 -54.10014843 102.73807798 -54.48828125 104.5065918 C-54.82915364 106.16753154 -55.11852891 107.83987824 -55.35546875 109.51879883 C-56.0525568 113.92545529 -56.37920723 115.49601429 -59.96875 118.41015625 C-61.1340625 118.95542969 -62.299375 119.50070312 -63.5 120.0625 C-64.6653125 120.63097656 -65.830625 121.19945312 -67.03125 121.78515625 C-70 123 -70 123 -72 123 C-75.12895581 111.34924103 -78.17864703 99.67836952 -81.21777344 88.00390625 C-82.22920985 84.1197884 -83.24229569 80.23610228 -84.25585938 76.35253906 C-84.74987903 74.45879705 -85.24337312 72.56491786 -85.73632812 70.67089844 C-87.04984965 65.62649056 -88.37357755 60.58501971 -89.7109375 55.546875 C-89.989375 54.49306641 -90.2678125 53.43925781 -90.5546875 52.35351562 C-91.09075888 50.32537891 -91.62969959 48.29799786 -92.171875 46.27148438 C-92.41164063 45.36205078 -92.65140625 44.45261719 -92.8984375 43.515625 C-93.11161621 42.71415039 -93.32479492 41.91267578 -93.54443359 41.08691406 C-94 39 -94 39 -94 36 C-91.5433053 34.99580363 -89.08481647 33.99649499 -86.625 33 C-85.92632812 32.71382812 -85.22765625 32.42765625 -84.5078125 32.1328125 C-79.2265625 30 -79.2265625 30 -77 30 C-74.34866484 37.3718132 -72.64272175 44.77111913 -71.0625 52.4375 C-70.57503685 54.76970239 -70.08674094 57.10173087 -69.59765625 59.43359375 C-69.34902832 60.62194824 -69.10040039 61.81030273 -68.84423828 63.03466797 C-67.29396533 70.37036445 -65.63887939 77.68370451 -64 85 C-63.86378235 84.18425003 -63.7275647 83.36850006 -63.58721924 82.5280304 C-62.29072584 74.8229188 -60.94271501 67.128993 -59.5367775 59.4430666 C-58.81580656 55.4914732 -58.11491133 51.53847373 -57.45947266 47.57543945 C-56.82552408 43.74693384 -56.13941253 39.93114385 -55.41689301 36.11839867 C-55.15111482 34.66612768 -54.90396532 33.21031388 -54.67630768 31.75158119 C-53.96382075 27.23357292 -53.13696565 23.0969589 -51 19 C-46.84549134 16.04280074 -42.17713049 14 -37 14 C-28.27448586 48.69566704 -28.27448586 48.69566704 -25 63 C-22.84352676 60.84352676 -22.96651875 56.47192711 -22.4765625 53.49609375 C-22.32972015 52.62541763 -22.18287781 51.75474152 -22.03158569 50.85768127 C-21.558932 48.05157556 -21.09168788 45.24460353 -20.625 42.4375 C-20.31810958 40.6021464 -20.01082238 38.76685911 -19.703125 36.93164062 C-19.55227951 36.0318045 -19.40143402 35.13196838 -19.24601746 34.2048645 C-18.79204107 31.51375034 -18.3306301 28.82398602 -17.8684082 26.13427734 C-17.30179432 22.83184953 -16.77330036 19.52721631 -16.27807617 16.21337891 C-16.04641809 14.76849742 -15.81442418 13.32366972 -15.58203125 11.87890625 C-15.39358643 10.62795166 -15.2051416 9.37699707 -15.01098633 8.08813477 C-13.78051847 4.32957694 -12.48354862 3.36557666 -9.0625 1.5 C-5.71808453 0.24899693 -3.64422166 0 0 0 Z " fill="#FEFBFB" transform="translate(381,200)"/>
<path d="M0 0 C7.30270239 4.16936296 16.16389683 10.57422717 19.15234375 18.73046875 C19.29590425 22.21314012 18.13975657 23.44975934 15.9453125 26.1015625 C15.30980469 26.89175781 14.67429688 27.68195313 14.01953125 28.49609375 C13.43816406 29.08777344 12.85679687 29.67945313 12.2578125 30.2890625 C11.5978125 30.2890625 10.9378125 30.2890625 10.2578125 30.2890625 C8.9988419 28.76706752 7.80037888 27.19475566 6.6328125 25.6015625 C3.0984688 21.08581301 -0.29497978 17.37250306 -5.7421875 15.2890625 C-9.12065464 15.4016444 -9.12065464 15.4016444 -11.7421875 17.2890625 C-12.61178308 23.23129896 -10.14017616 26.69463568 -6.7421875 31.2890625 C-4.24197888 34.04961052 -1.5697217 36.60318833 1.1328125 39.1640625 C11.87750599 49.64317045 21.21547108 60.84486421 21.5703125 76.4765625 C21.50294423 82.47233895 20.86151339 87.3710707 17.2578125 92.2890625 C14.15398807 95.11630851 11.15719814 96.2191456 6.94140625 96.546875 C-5.26305391 95.69269221 -14.70184364 86.58505166 -22.40771484 77.87841797 C-25.1938067 74.56018563 -27.60977183 71.05730388 -29.7421875 67.2890625 C-28.36030297 64.07862368 -26.81796847 62.23969885 -24.1171875 60.0390625 C-23.16972656 59.25789063 -23.16972656 59.25789063 -22.203125 58.4609375 C-21.47996094 57.88085938 -21.47996094 57.88085938 -20.7421875 57.2890625 C-20.10152344 58.16949219 -19.46085938 59.04992187 -18.80078125 59.95703125 C-11.90113525 70.08773889 -11.90113525 70.08773889 -1.53515625 75.79296875 C0.90950699 76.16332297 0.90950699 76.16332297 4.2578125 76.2890625 C4.81234124 71.27776572 5.16114344 66.78611199 2.1328125 62.5390625 C-1.21376585 58.59345461 -4.99747156 55.04315098 -8.6796875 51.4140625 C-19.42602519 40.82180421 -26.72477557 30.66156459 -27.2421875 15.0390625 C-27.04816338 9.36855107 -26.48814466 4.71106519 -22.7421875 0.2890625 C-15.91430502 -6.06122198 -7.66138846 -3.71056793 0 0 Z " fill="#FCFAFA" transform="translate(177.7421875,217.7109375)"/>
</svg>
