<?xml version="1.0" encoding="UTF-8"?>
<svg version="1.1" xmlns="http://www.w3.org/2000/svg" width="1024" height="1024">
<path d="M0 0 C337.92 0 675.84 0 1024 0 C1024 337.92 1024 675.84 1024 1024 C686.08 1024 348.16 1024 0 1024 C0 686.08 0 348.16 0 0 Z " fill="#02365E" transform="translate(0,0)"/>
<path d="M0 0 C1.35262928 -0.00599186 2.70525515 -0.01279891 4.05787659 -0.02035522 C7.71719332 -0.03795751 11.37641639 -0.04270821 15.03577137 -0.0439868 C17.32693506 -0.04541245 19.61807526 -0.04968992 21.90923309 -0.05498123 C29.91655477 -0.07346379 37.92381004 -0.08165424 45.93115234 -0.08007812 C53.37192058 -0.07887783 60.81239824 -0.09996258 68.253093 -0.13156545 C74.66016086 -0.1577995 81.06713423 -0.16844242 87.47425532 -0.16716731 C91.29254435 -0.16665968 95.11057503 -0.17223139 98.92881012 -0.19352341 C102.52409627 -0.21302616 106.11888086 -0.21294932 109.71418571 -0.19849014 C111.64552647 -0.19543453 113.57686793 -0.21199469 115.50813293 -0.22937012 C127.31230391 -0.14506292 137.1146778 2.87065576 145.62011719 11.29052734 C152.64299552 20.01331999 152.91622751 28.7747665 152.89477539 39.59448242 C152.89912808 40.93888124 152.90431308 42.28327759 152.91026306 43.62767029 C152.92360637 47.26420304 152.92423682 50.90063156 152.92169976 54.537184 C152.92062659 57.58112818 152.9255224 60.62505156 152.93030518 63.66899127 C152.94138484 70.85575948 152.94184687 78.04247543 152.93579102 85.22924805 C152.92975579 92.62341011 152.94205422 100.01738167 152.96336108 107.41151124 C152.98102379 113.77694874 152.98697099 120.14232586 152.98372334 126.50778693 C152.98191731 130.30195944 152.98447794 134.09599612 152.99843788 137.89014626 C153.01108745 141.46156553 153.00900552 145.03268983 152.99602699 148.604105 C152.99256415 150.52488614 153.00378727 152.44567659 153.01559448 154.36642456 C152.94557808 165.99321869 150.66683689 175.56698075 142.62011719 184.29052734 C132.98641515 191.77481592 124.05700187 192.58957402 112.22436523 192.58105469 C110.87011345 192.58704647 109.51586506 192.59385351 108.16162109 192.60140991 C104.49823943 192.61901127 100.83495131 192.62376281 97.17153144 192.62504148 C94.87836543 192.626467 92.58522291 192.63074417 90.29206276 192.63603592 C82.27941005 192.65451697 74.26682371 192.66270897 66.25415039 192.66113281 C58.80540996 192.65993201 51.35695955 192.68102709 43.90829247 192.71262014 C37.49614475 192.73883994 31.08409143 192.74949772 24.67189056 192.74822199 C20.84972119 192.74771402 17.02780978 192.75330522 13.2056942 192.77457809 C9.60794881 192.79405714 6.0107049 192.79401991 2.41294098 192.77954483 C0.47782946 192.77648389 -1.45728265 192.79306541 -3.39231873 192.8104248 C-10.92205875 192.75658324 -16.62914662 191.618276 -23.37988281 188.29052734 C-24.12193624 187.96365118 -24.86398966 187.63677502 -25.62852955 187.29999352 C-32.84474459 184.00810021 -35.52986388 176.22144294 -38.37988281 169.29052734 C-39.39773239 166.01735777 -39.51255557 163.02079185 -39.52705383 159.599823 C-39.53420914 158.43920853 -39.54136444 157.27859406 -39.54873657 156.08280945 C-39.55142548 154.81314835 -39.55411438 153.54348724 -39.55688477 152.23535156 C-39.56315301 150.88154426 -39.56980013 149.52773867 -39.57679749 148.17393494 C-39.59780215 143.73104034 -39.60819836 139.28814555 -39.61816406 134.84521484 C-39.62221334 133.31251126 -39.62633031 131.77980786 -39.63051414 130.24710464 C-39.64956006 123.04323689 -39.66379082 115.83937933 -39.67212611 108.63549125 C-39.68188848 100.33645645 -39.70818417 92.03768907 -39.74862701 83.73874843 C-39.77885549 77.31393397 -39.79360145 70.88919587 -39.79690713 64.46431172 C-39.79925046 60.63202034 -39.80811646 56.80001484 -39.8333683 52.96780014 C-39.85677166 49.35780546 -39.86083367 45.74828237 -39.85060692 42.13823128 C-39.84988111 40.19591842 -39.86888695 38.25362885 -39.88867188 36.31141663 C-39.84431629 28.78959021 -38.76829989 23.01739217 -35.37988281 16.29052734 C-35.01197789 15.53830336 -34.64407297 14.78607937 -34.26501942 14.01106071 C-30.75495474 7.16376941 -24.56374625 3.85419029 -17.54766846 1.23202515 C-11.82872405 -0.34777871 -5.88537212 -0.00424268 0 0 Z " fill="#FEFEFE" transform="translate(455.3798828125,159.70947265625)"/>
<path d="M0 0 C1.35676261 -0.00351195 2.71352104 -0.00918255 4.07026672 -0.01681519 C7.71282775 -0.03091369 11.35462032 -0.01415449 14.99710751 0.00946999 C18.82987437 0.02976013 22.66261494 0.02369037 26.49542236 0.0213623 C32.92399587 0.02141566 39.35227328 0.04104593 45.78076172 0.07324219 C53.19327382 0.1101883 60.60539959 0.11890676 68.01799178 0.11194468 C75.18079149 0.10562336 82.34346002 0.11641999 89.50623322 0.13591003 C92.54109835 0.14404462 95.57589608 0.14680094 98.61077118 0.1452179 C102.18642389 0.14433401 105.76171384 0.15868911 109.33727074 0.18444443 C111.26172972 0.19492948 113.1862508 0.19095476 115.11073303 0.18643188 C126.62033123 0.29874009 135.16256972 2.92468727 143.90722656 10.61523438 C151.69300983 19.70132372 152.20479027 28.36643639 152.18188477 39.91918945 C152.18623746 41.26358827 152.19142246 42.60798462 152.19737244 43.95237732 C152.21071574 47.58891007 152.2113462 51.22533859 152.20880914 54.86189103 C152.20773596 57.90583521 152.21263177 60.9497586 152.21741456 63.9936983 C152.22849422 71.18046652 152.22895624 78.36718246 152.22290039 85.55395508 C152.21686517 92.94811714 152.2291636 100.3420887 152.25047046 107.73621827 C152.26813316 114.10165577 152.27408037 120.46703289 152.27083272 126.83249396 C152.26902669 130.62666647 152.27158731 134.42070315 152.28554726 138.21485329 C152.29819683 141.78627256 152.29611489 145.35739686 152.28313637 148.92881203 C152.27967353 150.84959317 152.29089665 152.77038362 152.30270386 154.69113159 C152.23268745 166.31792572 149.95394627 175.89168778 141.90722656 184.61523438 C132.27352453 192.09952296 123.34411125 192.91428105 111.51147461 192.90576172 C110.15722282 192.9117535 108.80297443 192.91856054 107.44873047 192.92611694 C103.7853488 192.9437183 100.12206068 192.94846984 96.45864081 192.94974852 C94.16547481 192.95117403 91.87233229 192.9554512 89.57917213 192.96074295 C81.56651943 192.979224 73.55393308 192.987416 65.54125977 192.98583984 C58.09251933 192.98463904 50.64406893 193.00573413 43.19540185 193.03732717 C36.78325412 193.06354697 30.3712008 193.07420475 23.95899993 193.07292902 C20.13683056 193.07242105 16.31491916 193.07801226 12.49280357 193.09928513 C8.89505818 193.11876417 5.29781427 193.11872694 1.70005035 193.10425186 C-0.23506117 193.10119092 -2.17017327 193.11777244 -4.10520935 193.13513184 C-11.63494937 193.08129027 -17.34203725 191.94298303 -24.09277344 188.61523438 C-24.83482686 188.28835821 -25.57688028 187.96148205 -26.34142017 187.62470055 C-33.55763521 184.33280724 -36.24275451 176.54614998 -39.09277344 169.61523438 C-40.11062301 166.3420648 -40.22544619 163.34549889 -40.23994446 159.92453003 C-40.24709976 158.76391556 -40.25425507 157.60330109 -40.2616272 156.40751648 C-40.2643161 155.13785538 -40.267005 153.86819427 -40.26977539 152.56005859 C-40.27604363 151.20625129 -40.28269075 149.8524457 -40.28968811 148.49864197 C-40.31069277 144.05574737 -40.32108898 139.61285258 -40.33105469 135.16992188 C-40.33510396 133.6372183 -40.33922094 132.10451489 -40.34340477 130.57181168 C-40.36245068 123.36794392 -40.37668145 116.16408636 -40.38501674 108.96019828 C-40.39477911 100.66116348 -40.42107479 92.3623961 -40.46151763 84.06345546 C-40.49174611 77.63864101 -40.50649208 71.2139029 -40.50979775 64.78901875 C-40.51214109 60.95672737 -40.52100708 57.12472187 -40.54625893 53.29250717 C-40.56966228 49.68251249 -40.5737243 46.0729894 -40.56349754 42.46293831 C-40.56277174 40.52062545 -40.58177758 38.57833588 -40.6015625 36.63612366 C-40.54300284 26.70556868 -38.30052793 18.47839007 -32.09277344 10.61523438 C-31.43277344 10.61523438 -30.77277344 10.61523438 -30.09277344 10.61523438 C-29.76277344 9.62523437 -29.43277344 8.63523437 -29.09277344 7.61523438 C-28.43277344 7.61523438 -27.77277344 7.61523438 -27.09277344 7.61523438 C-27.09277344 6.95523438 -27.09277344 6.29523437 -27.09277344 5.61523438 C-17.84945686 1.39518294 -10.11508682 -0.10829091 0 0 Z " fill="#FEFEFE" transform="translate(200.0927734375,671.384765625)"/>
<path d="M0 0 C1.74742493 -0.00639748 1.74742493 -0.00639748 3.53015137 -0.01292419 C5.44171272 -0.01224442 5.44171272 -0.01224442 7.39189148 -0.0115509 C8.75056551 -0.01454384 10.1092387 -0.01794668 11.46791077 -0.02172852 C15.15604737 -0.03055994 18.84416076 -0.03290629 22.53230691 -0.0335443 C24.83798924 -0.0342554 27.14366568 -0.03639086 29.44934654 -0.03904152 C37.49741871 -0.04829273 45.54547432 -0.05237676 53.59355164 -0.05158997 C61.08820915 -0.05098952 68.5827946 -0.06153545 76.07743388 -0.07733363 C82.51748915 -0.09042365 88.95752092 -0.09577323 95.39758939 -0.09513456 C99.24142724 -0.09487996 103.08520108 -0.09770984 106.92902565 -0.10831261 C110.5462997 -0.11801798 114.16344885 -0.11805611 117.78072739 -0.11079597 C119.7343176 -0.10925742 121.68790785 -0.11758021 123.64147949 -0.12623596 C135.42116356 -0.08412811 144.5823994 2.46765061 153.22270203 11.05558777 C160.15696265 19.70179803 160.72989199 28.90393815 160.67729187 39.66471863 C160.68136473 41.0094139 160.6867106 42.35410583 160.69322205 43.6987915 C160.70681805 47.32699804 160.70162888 50.95494666 160.69208479 54.5831573 C160.68444634 58.3954717 160.6915455 62.20776522 160.69624329 66.02008057 C160.70168938 72.42119781 160.69454013 78.82221096 160.68022156 85.22331238 C160.66390419 92.60275783 160.66918145 99.98195446 160.68570077 107.36139387 C160.69935678 113.71838844 160.70121507 120.07530851 160.69338477 126.43231302 C160.68872988 130.2197375 160.6880226 134.00704541 160.69799423 137.7944622 C160.70672159 141.35771775 160.70053805 144.92065561 160.68331146 148.48387718 C160.67751413 150.39985606 160.6863132 152.3158621 160.69569397 154.23182678 C160.61113123 165.84636755 158.32722623 175.41949143 150.28910828 184.13371277 C140.65540624 191.61800135 131.72599296 192.43275944 119.89335632 192.42424011 C118.53910453 192.4302319 117.18485615 192.43703893 115.83061218 192.44459534 C112.16723052 192.4621967 108.5039424 192.46694823 104.84052253 192.46822691 C102.54735652 192.46965243 100.254214 192.47392959 97.96105385 192.47922134 C89.94840114 192.49770239 81.9358148 192.5058944 73.92314148 192.50431824 C66.47440105 192.50311744 59.02595064 192.52421252 51.57728356 192.55580556 C45.16513584 192.58202537 38.75308252 192.59268315 32.34088165 192.59140742 C28.51871228 192.59089945 24.69680087 192.59649065 20.87468529 192.61776352 C17.27693989 192.63724256 13.67969599 192.63720534 10.08193207 192.62273026 C8.14682054 192.61966931 6.21170844 192.63625083 4.27667236 192.65361023 C-5.63528511 192.58273456 -13.86246731 190.32983731 -21.71089172 184.13371277 C-21.71089172 183.47371277 -21.71089172 182.81371277 -21.71089172 182.13371277 C-22.37089172 182.13371277 -23.03089172 182.13371277 -23.71089172 182.13371277 C-25.14839172 180.15715027 -25.14839172 180.15715027 -26.71089172 177.50871277 C-27.22651672 176.65019714 -27.74214172 175.79168152 -28.27339172 174.90715027 C-30.81713203 169.99939044 -31.96005659 165.68840672 -31.97831726 160.16453552 C-31.98684723 158.99275757 -31.9953772 157.82097961 -32.00416565 156.61369324 C-32.00280609 154.7059613 -32.00280609 154.7059613 -32.00141907 152.75968933 C-32.00740886 151.39573297 -32.01421545 150.03177999 -32.02177429 148.66783142 C-32.03939802 144.97339998 -32.0441282 141.27906128 -32.04540586 137.58459187 C-32.04683035 135.27250271 -32.05110564 132.96043691 -32.0564003 130.64835358 C-32.07489027 122.57086702 -32.08307242 114.49344635 -32.08149719 106.41593933 C-32.08029684 98.90530462 -32.10138074 91.39495776 -32.13298452 83.88439584 C-32.15920425 77.42131339 -32.16986207 70.95832461 -32.16858637 64.49518943 C-32.16807831 60.64170689 -32.17367458 56.78848018 -32.19494247 52.93505096 C-32.21442077 49.30695146 -32.21438476 45.67934925 -32.19990921 42.05123138 C-32.19684779 40.0994117 -32.21343122 38.14759146 -32.23078918 36.19584656 C-32.15316756 25.24923994 -29.288795 16.56975501 -22.08589172 8.25871277 C-20.71089172 7.13371277 -20.71089172 7.13371277 -18.71089172 7.13371277 C-18.71089172 6.47371277 -18.71089172 5.81371277 -18.71089172 5.13371277 C-17.29611037 4.4837598 -15.87897685 3.83892554 -14.46089172 3.19621277 C-13.67198547 2.83656433 -12.88307922 2.47691589 -12.07026672 2.10636902 C-7.95305763 0.40904275 -4.45532191 0.00737603 0 0 Z " fill="#FEFEFE" transform="translate(447.7108917236328,415.8662872314453)"/>
<path d="M0 0 C1.34439882 -0.00435269 2.68879517 -0.00953769 4.03318787 -0.01548767 C7.66972062 -0.02883098 11.30614913 -0.02946143 14.94270158 -0.02692437 C17.98664576 -0.0258512 21.03056914 -0.03074701 24.07450885 -0.03552979 C31.26127706 -0.04660945 38.44799301 -0.04707148 45.63476562 -0.04101562 C53.02892769 -0.0349804 60.42289925 -0.04727883 67.81702882 -0.06858569 C74.18246631 -0.0862484 80.54784343 -0.0921956 86.91330451 -0.08894795 C90.70747701 -0.08714192 94.50151369 -0.08970255 98.29566383 -0.10366249 C101.86708311 -0.11631206 105.43820741 -0.11423013 109.00962257 -0.1012516 C110.93040372 -0.09778876 112.85119417 -0.10901188 114.77194214 -0.12081909 C128.0074707 -0.04111491 137.39855441 3.36124614 147.07104492 12.5246582 C152.3193071 21.40633266 153.27725912 29.87542638 153.19775391 40.03271484 C153.20154657 41.37770653 153.20705436 42.72269429 153.21412659 44.06767273 C153.227974 47.68758143 153.21698854 51.30700911 153.20041537 54.92689061 C153.18646049 58.73385095 153.19303663 62.5407863 153.19654846 66.34776306 C153.19924208 72.73696552 153.18584734 79.1259792 153.16259766 85.51513672 C153.13598181 92.87986449 153.1342476 100.2442771 153.14598602 107.60903651 C153.15680047 114.72376248 153.1505488 121.83837553 153.13643074 128.95309258 C153.13070378 131.96760191 153.13072746 134.98202772 153.13549614 137.99653816 C153.14030198 141.55163046 153.13001686 145.1063818 153.10854149 148.66140938 C153.10040999 150.57258608 153.10678485 152.48380767 153.11373901 154.39498901 C153.01458793 165.99727841 150.72557872 175.56974306 142.69604492 184.2746582 C133.06234289 191.75894678 124.13292961 192.57370487 112.30029297 192.56518555 C110.94604118 192.57117733 109.59179279 192.57798437 108.23754883 192.58554077 C104.57416716 192.60314213 100.91087904 192.60789367 97.24745917 192.60917234 C94.95429317 192.61059786 92.66115065 192.61487503 90.36799049 192.62016678 C82.35533779 192.63864783 74.34275144 192.64683983 66.33007812 192.64526367 C58.88133769 192.64406287 51.43288729 192.66515795 43.98422021 192.696751 C37.57207248 192.7229708 31.16001916 192.73362858 24.74781829 192.73235285 C20.92564892 192.73184488 17.10373751 192.73743608 13.28162193 192.75870895 C9.68387654 192.778188 6.08663263 192.77815077 2.48886871 192.76367569 C0.55375719 192.76061475 -1.38135491 192.77719627 -3.31639099 192.79455566 C-13.13544903 192.72434428 -21.57106323 190.60156971 -29.30395508 184.2746582 C-38.22439336 174.83871721 -39.90325198 163.98495039 -39.8215332 151.42480469 C-39.82696703 150.06995903 -39.8340967 148.7151193 -39.84277344 147.36029053 C-39.86085874 143.71354241 -39.85400186 140.06725182 -39.8412571 136.4204967 C-39.83105399 132.58550045 -39.8405427 128.75054057 -39.84680176 124.9155426 C-39.85405619 118.47926883 -39.84454779 112.04317932 -39.82543945 105.60693359 C-39.80366556 98.18761866 -39.8107345 90.76874342 -39.83274508 83.34943908 C-39.8509512 76.95417144 -39.85343233 70.55903544 -39.8429904 64.16375023 C-39.83678516 60.35508499 -39.8358374 56.54662581 -39.84913635 52.73797417 C-39.86077102 49.15654491 -39.8525323 45.57567762 -39.82955933 41.99430847 C-39.82182905 40.06880953 -39.83356217 38.14326253 -39.84606934 36.2177887 C-39.77376196 28.73391029 -38.66563053 22.97126387 -35.30395508 16.2746582 C-34.93611153 15.52229102 -34.56826797 14.76992384 -34.18927765 13.99475765 C-30.6773983 7.14669569 -24.48532717 3.83623784 -17.46699524 1.21516418 C-11.77213401 -0.35805012 -5.86040841 -0.01161936 0 0 Z " fill="#FEFEFE" transform="translate(199.303955078125,415.725341796875)"/>
<path d="M0 0 C1.34042299 -0.0051547 2.68083915 -0.01244754 4.02124023 -0.02168274 C7.62066357 -0.04000859 11.21933472 -0.02737957 14.81872559 -0.00759244 C18.61092812 0.00895314 22.40308889 -0.0000407 26.1953125 -0.00511169 C32.56001616 -0.00961509 38.92442426 0.00612746 45.2890625 0.03417969 C52.61521622 0.06622376 59.94083729 0.06621015 67.26702881 0.04896492 C74.35614606 0.03302216 81.4450707 0.03988288 88.53417969 0.05690193 C91.53227969 0.06371933 94.53022281 0.06279534 97.52832031 0.05535698 C101.06795075 0.04761413 104.60698555 0.0600759 108.14651489 0.08720589 C110.04158175 0.09721563 111.93672079 0.08799088 113.83178711 0.07788086 C122.16312956 0.16925169 129.24032578 1.78556871 137.0625 4.63110352 C137.0625 5.29110352 137.0625 5.95110352 137.0625 6.63110352 C137.76375 6.81672852 138.465 7.00235352 139.1875 7.19360352 C145.96618358 10.58294531 148.83540905 16.55939418 151.24180794 23.47808647 C152.70166246 29.08670194 152.60933229 34.62437598 152.56420898 40.38916016 C152.56800165 41.73415184 152.57350944 43.0791396 152.58058167 44.42411804 C152.59442908 48.04402674 152.58344362 51.66345442 152.56687045 55.28333592 C152.55291556 59.09029626 152.55949171 62.89723161 152.56300354 66.70420837 C152.56569715 73.09341083 152.55230242 79.48242451 152.52905273 85.87158203 C152.50243689 93.2363098 152.50070268 100.60072241 152.5124411 107.96548182 C152.52325555 115.08020779 152.51700388 122.19482084 152.50288582 129.30953789 C152.49715886 132.32404722 152.49718254 135.33847303 152.50195122 138.35298347 C152.50675706 141.90807578 152.49647194 145.46282712 152.47499657 149.01785469 C152.46686507 150.92903139 152.47323993 152.84025298 152.48019409 154.75143433 C152.37494174 167.06767197 149.62444385 177.06915967 140.75 185.94360352 C133.57827532 190.44677948 126.77685618 192.74200626 118.289505 192.77827454 C116.55914253 192.78900749 116.55914253 192.78900749 114.79382324 192.79995728 C112.90875061 192.80399063 112.90875061 192.80399063 110.9855957 192.80810547 C109.64149299 192.81437578 108.29739199 192.82102308 106.95329285 192.82801819 C102.54830111 192.84899464 98.14330928 192.859415 93.73828125 192.86938477 C92.21764801 192.87343481 90.69701495 192.8775518 89.17638206 192.88173485 C82.03018285 192.90077293 74.88399387 192.9150065 67.73777419 192.92334682 C59.50779912 192.93311244 51.27809349 192.95941995 43.0482133 192.99984771 C36.67433366 193.0300763 30.30053098 193.04482208 23.92658108 193.04812783 C20.12560272 193.05047073 16.32491264 193.05933127 12.52401161 193.084589 C8.94437121 193.10799329 5.36520641 193.11205403 1.78550911 193.10182762 C-0.14009573 193.10110193 -2.0656771 193.12010601 -3.99118042 193.13989258 C-11.49234078 193.09528537 -17.22338074 191.98773276 -23.9375 188.63110352 C-24.68986278 188.27359166 -25.44222555 187.91607981 -26.2173872 187.54773426 C-32.51849958 184.41613039 -35.35337254 178.97620629 -37.9375 172.63110352 C-40.19954931 165.47282777 -40.2334615 158.68359977 -40.22802734 151.21362305 C-40.23402115 149.86907583 -40.24082864 148.52453203 -40.24838257 147.17999268 C-40.26596124 143.54766077 -40.27073443 139.91542326 -40.27201414 136.28305292 C-40.2734407 134.00881006 -40.27771978 131.73459082 -40.28300858 129.46035385 C-40.30148057 121.51253499 -40.30968257 113.56478298 -40.30810547 105.61694336 C-40.30690421 98.23009719 -40.32801066 90.84354326 -40.3595928 83.45677102 C-40.38581268 77.09555802 -40.39647041 70.73444016 -40.39519465 64.37317359 C-40.39468678 60.58231738 -40.40027282 56.7917213 -40.42155075 53.00091934 C-40.44103055 49.43352804 -40.44099209 45.86664247 -40.42651749 42.29923248 C-40.42345703 40.38082911 -40.44003661 38.46242515 -40.45739746 36.5440979 C-40.40347611 29.06657239 -39.29745003 23.32182747 -35.9375 16.63110352 C-35.37769723 15.50512599 -35.37769723 15.50512599 -34.80658531 14.35640144 C-34.51978716 13.78705313 -34.23298901 13.21770481 -33.9375 12.63110352 C-33.2775 12.63110352 -32.6175 12.63110352 -31.9375 12.63110352 C-31.669375 11.99172852 -31.40125 11.35235352 -31.125 10.69360352 C-29.9375 8.63110352 -29.9375 8.63110352 -26.9375 7.63110352 C-26.9375 6.97110352 -26.9375 6.31110352 -26.9375 5.63110352 C-17.74752743 1.44731527 -10.05441282 -0.09610398 0 0 Z " fill="#FEFEFE" transform="translate(455.9375,671.368896484375)"/>
<path d="M0 0 C1.3549926 -0.00351089 2.70998103 -0.00918031 4.06495667 -0.01681519 C7.70764344 -0.03093165 11.34956338 -0.01413462 14.99217653 0.00946999 C18.82448151 0.02974416 22.65675975 0.02369104 26.48910522 0.0213623 C32.91945876 0.02141569 39.34951659 0.04106095 45.77978516 0.07324219 C53.1916885 0.11015812 60.60320551 0.11891136 68.01518881 0.11194468 C75.17744905 0.10561934 82.33957824 0.1164294 89.50181198 0.13591003 C92.5358506 0.14403943 95.56982182 0.14680189 98.60387039 0.1452179 C102.18115411 0.14433289 105.75807606 0.15871873 109.33526421 0.18444443 C111.25834743 0.19491145 113.18149262 0.19095887 115.104599 0.18643188 C126.98599538 0.30208764 136.7888204 2.78314295 145.60302734 11.09179688 C151.3446473 17.50184423 153.15201445 24.99120584 153.17706299 33.3502655 C153.18277313 34.49542633 153.18848328 35.64058716 153.19436646 36.82044983 C153.19604324 38.69149635 153.19604324 38.69149635 153.19775391 40.6003418 C153.20238613 41.93459204 153.20741133 43.26884097 153.21279907 44.60308838 C153.22588786 48.22111646 153.23236137 51.83912602 153.23680973 55.45717406 C153.23974671 57.72117532 153.24385273 59.98517158 153.2483139 62.2491703 C153.26198079 69.34304695 153.27165088 76.4369121 153.27551579 83.530801 C153.27999193 91.70016697 153.29752249 99.86936525 153.32651639 108.03868026 C153.34818717 114.36585235 153.35822298 120.69297746 153.35955691 127.02018625 C153.36060127 130.79316276 153.3664296 134.56598147 153.38437653 138.33891869 C153.40095047 141.89223795 153.40296801 145.44528237 153.39423752 148.99862671 C153.39310964 150.90989698 153.40675556 152.82115851 153.42098999 154.7323761 C153.36517013 166.35168811 151.06569249 175.89452012 143.03662109 184.61523438 C133.32242099 192.27268201 123.56552805 192.91445232 111.61914062 192.90576172 C110.27459341 192.91175552 108.93004961 192.91856301 107.58551025 192.92611694 C103.95317835 192.94369561 100.32094083 192.94846881 96.6885705 192.94974852 C94.41432764 192.95117508 92.1401084 192.95545415 89.86587143 192.96074295 C81.91805257 192.97921494 73.97030055 192.98741695 66.02246094 192.98583984 C58.63561477 192.98463858 51.24906084 193.00574503 43.86228859 193.03732717 C37.5010756 193.06354705 31.13995774 193.07420478 24.77869117 193.07292902 C20.98783496 193.07242115 17.19723887 193.07800719 13.40643692 193.09928513 C9.83904562 193.11876493 6.27216005 193.11872647 2.70475006 193.10425186 C0.78634669 193.1011914 -1.13205727 193.11777099 -3.05038452 193.13513184 C-10.55240275 193.08103387 -16.23610846 191.92548261 -22.96337891 188.61523438 C-23.70557112 188.28827765 -24.44776333 187.96132092 -25.21244621 187.62445641 C-32.45266507 184.32180832 -35.03363656 176.52772792 -37.96337891 169.61523438 C-39.00456962 166.49166222 -39.09926717 164.29811359 -39.11727905 161.02027893 C-39.13017975 159.27313347 -39.13017975 159.27313347 -39.14334106 157.49069214 C-39.14760101 156.21122711 -39.15186096 154.93176208 -39.15625 153.61352539 C-39.16415345 152.25325818 -39.17242255 150.89299304 -39.18103027 149.5327301 C-39.20723823 145.06155393 -39.22256391 140.5903685 -39.23681641 136.11914062 C-39.24217796 134.57688835 -39.24755547 133.03463612 -39.25294876 131.49238396 C-39.27458213 125.07139299 -39.2933141 118.65040452 -39.30457115 112.22938633 C-39.32077706 103.04728265 -39.35386723 93.86560439 -39.410972 84.68366104 C-39.44980073 78.21807382 -39.46921948 71.75259971 -39.47449172 65.28689903 C-39.47812964 61.43098189 -39.48998159 57.57551859 -39.52259445 53.71972847 C-39.55290136 50.08422741 -39.55890782 46.44944929 -39.54721069 42.8138485 C-39.54688835 40.86234084 -39.57120656 38.9108763 -39.59658813 36.95953369 C-39.52413861 26.59403288 -36.72912385 16.69047834 -29.96337891 8.61523438 C-27.71337891 7.74023438 -27.71337891 7.74023438 -25.96337891 7.61523438 C-25.96337891 6.95523438 -25.96337891 6.29523438 -25.96337891 5.61523438 C-17.13046639 1.17779085 -9.82048763 -0.10496547 0 0 Z " fill="#FEFEFE" transform="translate(710.96337890625,159.384765625)"/>
<path d="M0 0 C1.34454778 -0.00407156 2.68909221 -0.0094167 4.03363037 -0.01593018 C7.66602797 -0.02954295 11.29816835 -0.02432963 14.93057013 -0.01479292 C18.74555972 -0.0071617 22.56052828 -0.01425179 26.3755188 -0.01895142 C32.78261234 -0.02440026 39.18960195 -0.0172417 45.59667969 -0.00292969 C52.98348871 0.01338125 60.37004907 0.00811621 67.75685203 -0.0084089 C74.11807267 -0.02206539 80.47921887 -0.02392276 86.84044945 -0.0160929 C90.63124225 -0.01143737 94.42191858 -0.01073237 98.2127037 -0.02070236 C101.78004974 -0.02943013 105.34707846 -0.02324542 108.91439056 -0.00601959 C110.83276444 -0.00022208 112.75116545 -0.00902148 114.66952515 -0.0184021 C127.486927 0.07480246 137.05333531 3.14918534 146.39501953 12.07568359 C152.26118419 20.95873294 153.16591438 29.71036028 153.08422852 40.14624023 C153.08802118 41.49123192 153.09352897 42.83621968 153.1006012 44.18119812 C153.11444861 47.80110682 153.10346315 51.4205345 153.08688998 55.040416 C153.0729351 58.84737634 153.07951124 62.65431169 153.08302307 66.46128845 C153.08571669 72.85049091 153.07232195 79.23950459 153.04907227 85.62866211 C153.02245642 92.99338988 153.02072221 100.35780249 153.03246063 107.7225619 C153.04327508 114.83728787 153.03702341 121.95190092 153.02290535 129.06661797 C153.01717839 132.0811273 153.01720207 135.09555311 153.02197075 138.11006355 C153.02677659 141.66515585 153.01649147 145.2199072 152.9950161 148.77493477 C152.9868846 150.68611147 152.99325946 152.59733306 153.00021362 154.5085144 C152.90716717 165.39646283 150.97991982 175.05016559 143.58251953 183.38818359 C140.73668404 185.69548425 137.78381729 187.61291847 134.58251953 189.38818359 C133.95603516 189.75041016 133.32955078 190.11263672 132.68408203 190.48583984 C128.22823496 192.39903812 123.47990307 192.51486432 118.68927002 192.53535461 C117.53432037 192.54250992 116.37937073 192.54966522 115.18942261 192.55703735 C113.9363028 192.55972626 112.68318298 192.56241516 111.39208984 192.56518555 C110.04783964 192.57145786 108.70359113 192.57810533 107.35934448 192.58509827 C102.9597899 192.60604718 98.56023533 192.61649104 94.16064453 192.62646484 C92.64093763 192.63051562 91.1212309 192.63463264 89.60152435 192.63881493 C82.46066793 192.65784529 75.31982171 192.67208164 68.17894483 192.6804269 C59.95746984 192.69019595 51.73626432 192.71651571 43.51488423 192.75692779 C37.14523069 192.78715534 30.77565412 192.80190198 24.40593028 192.80520791 C20.60832014 192.80755049 16.81099858 192.81640721 13.01346588 192.84166908 C9.43791594 192.86507227 5.86284215 192.86913455 2.28723526 192.8589077 C0.36402536 192.85818203 -1.55916104 192.87718577 -3.48226929 192.89697266 C-13.52612197 192.83717078 -23.69055988 190.27334467 -31.41748047 183.38818359 C-31.41748047 182.39818359 -31.41748047 181.40818359 -31.41748047 180.38818359 C-32.07748047 180.38818359 -32.73748047 180.38818359 -33.41748047 180.38818359 C-34.05057238 179.20497783 -34.67344765 178.01630512 -35.29248047 176.82568359 C-35.81455078 175.83375 -35.81455078 175.83375 -36.34716797 174.82177734 C-39.70118499 167.19567295 -39.71395099 160.24701572 -39.70800781 151.99243164 C-39.7139996 150.63817985 -39.72080663 149.28393146 -39.72836304 147.9296875 C-39.7459644 144.26630583 -39.75071593 140.60301772 -39.75199461 136.93959785 C-39.75342013 134.64643184 -39.75769729 132.35328932 -39.76298904 130.06012917 C-39.78147009 122.04747646 -39.7896621 114.03489011 -39.78808594 106.0222168 C-39.78688514 98.57347636 -39.80798022 91.12502596 -39.83957326 83.67635888 C-39.86579307 77.26421116 -39.87645085 70.85215783 -39.87517512 64.43995696 C-39.87466715 60.6177876 -39.88025835 56.79587619 -39.90153122 52.9737606 C-39.92101026 49.37601521 -39.92097304 45.7787713 -39.90649796 42.18100739 C-39.90343701 40.24589586 -39.92001853 38.31078376 -39.93737793 36.37574768 C-39.88371356 28.87078847 -38.79516091 23.1020756 -35.41748047 16.38818359 C-35.04427862 15.6376707 -34.67107677 14.8871578 -34.28656578 14.11390209 C-33.85636855 13.25967144 -33.85636855 13.25967144 -33.41748047 12.38818359 C-32.75748047 12.38818359 -32.09748047 12.38818359 -31.41748047 12.38818359 C-31.29566406 11.47746094 -31.29566406 11.47746094 -31.17138672 10.54833984 C-30.17115372 7.68238725 -29.01632713 7.20885347 -26.35498047 5.82568359 C-25.62150391 5.43251953 -24.88802734 5.03935547 -24.13232422 4.63427734 C-23.23642578 4.22306641 -22.34052734 3.81185547 -21.41748047 3.38818359 C-20.31822235 2.8754892 -19.21896423 2.3627948 -18.08639526 1.83456421 C-12.19367324 -0.33904232 -6.20649329 -0.03025062 0 0 Z " fill="#FEFEFE" transform="translate(711.41748046875,415.61181640625)"/>
<path d="M0 0 C5.61 0 11.22 0 17 0 C17 0.33 17 0.66 17 1 C19.97 1 22.94 1 26 1 C26 0.67 26 0.34 26 0 C35.9 0 45.8 0 56 0 C56.495 1.98 56.495 1.98 57 4 C59.64 4 62.28 4 65 4 C65 3.34 65 2.68 65 2 C68.9166043 1.9419034 72.83309763 1.90637107 76.75 1.875 C77.86117187 1.85824219 78.97234375 1.84148437 80.1171875 1.82421875 C81.72207031 1.81455078 81.72207031 1.81455078 83.359375 1.8046875 C84.34389648 1.79421387 85.32841797 1.78374023 86.34277344 1.77294922 C89.05973111 2.00510382 90.68112513 2.60963727 93 4 C89.9162151 4.90003318 87.15990415 5.12762785 83.95227051 5.13371277 C82.93443985 5.13797775 81.91660919 5.14224274 80.86793518 5.14663696 C79.7571611 5.14618378 78.64638702 5.14573059 77.50195312 5.14526367 C75.74044167 5.15030159 75.74044167 5.15030159 73.94334412 5.15544128 C70.72646276 5.16331117 67.50962016 5.16661867 64.29273033 5.16725707 C62.28255818 5.16796829 60.27239277 5.17010392 58.26222229 5.17275429 C51.24854096 5.18200112 44.23487863 5.18608985 37.22119141 5.18530273 C30.68418064 5.18470154 24.14725229 5.19526315 17.61026239 5.2110464 C11.99572438 5.22411925 6.38121333 5.22948677 0.76666021 5.22884732 C-2.58580074 5.22859234 -5.93818837 5.23144414 -9.29063416 5.24202538 C-13.02781073 5.25179038 -16.76477332 5.24896115 -20.50195312 5.24291992 C-21.6127272 5.24853943 -22.72350128 5.25415894 -23.86793518 5.25994873 C-24.88576584 5.25575424 -25.9035965 5.25155975 -26.95227051 5.24723816 C-27.83568367 5.24778293 -28.71909683 5.24832769 -29.62928009 5.24888897 C-32 5 -32 5 -36 3 C-29.07 3.33 -22.14 3.66 -15 4 C-15 3.34 -15 2.68 -15 2 C-10.05 1.67 -5.1 1.34 0 1 C0 0.67 0 0.34 0 0 Z " fill="#022C54" transform="translate(487,154)"/>
<path d="M0 0 C4.63917012 1.82253112 6.93341765 4.75822385 9.05434799 9.21606159 C12.12655772 16.89620641 12.54851231 23.70499605 12.45410156 31.91674805 C12.45297051 33.27795885 12.45361197 34.63917208 12.45587158 36.00038147 C12.45700963 39.66098956 12.43364993 43.32106316 12.40557575 46.98154807 C12.38040856 50.8198492 12.37820812 54.65816535 12.37347412 58.49653625 C12.36108899 65.74947698 12.32832857 73.00217379 12.28807616 80.25500757 C12.24321863 88.51867424 12.22133642 96.78235316 12.20129442 105.04611146 C12.15959137 122.03088158 12.08932718 139.01541492 12 156 C11.67 156 11.34 156 11 156 C10.99576806 155.3154754 10.99153612 154.63095079 10.98717594 153.92568302 C10.88400946 137.2933056 10.77539302 120.6609737 10.66066074 104.02867222 C10.60531014 95.98551978 10.55182519 87.9423629 10.50268555 79.89916992 C10.45986615 72.89124256 10.41359392 65.88334811 10.36312145 58.87547153 C10.33650235 55.16258741 10.31164892 51.4497099 10.29092598 47.7367878 C10.26776522 43.59864563 10.23689796 39.46059627 10.20532227 35.32250977 C10.1995668 34.08245682 10.19381134 32.84240387 10.18788147 31.56477356 C10.17809265 30.44431641 10.16830383 29.32385925 10.15821838 28.16944885 C10.15176583 27.18958291 10.14531328 26.20971697 10.1386652 25.20015812 C10.24497984 23.02457006 10.24497984 23.02457006 9 22 C8.95936168 20.33382885 8.957279 18.66611905 9 17 C8.01 16.67 7.02 16.34 6 16 C6.165 14.989375 6.33 13.97875 6.5 12.9375 C5.83980176 7.73843883 3.72326054 6.42375616 -0.25 3.28515625 C-1.11625 2.64900391 -1.11625 2.64900391 -2 2 C-1.34 1.34 -0.68 0.68 0 0 Z " fill="#EBF2F0" transform="translate(340,424)"/>
<path d="M0 0 C1.3713577 0.00141467 2.74271918 0.00061034 4.11407471 -0.00221252 C7.79328205 -0.00363182 11.47165408 0.02551217 15.15066934 0.06065726 C19.01163119 0.09217281 22.87261772 0.09487115 26.73368835 0.1007843 C34.02558535 0.11624947 41.31710207 0.15717713 48.60883254 0.20753175 C56.91847454 0.26365519 65.22813587 0.29096918 73.53792059 0.31600893 C90.61363415 0.36810078 107.68897886 0.45589831 124.7644043 0.56762695 C124.7644043 0.89762695 124.7644043 1.22762695 124.7644043 1.56762695 C123.71084307 1.5684441 123.71084307 1.5684441 122.63599777 1.56927776 C105.55182117 1.58423997 88.46793444 1.62666383 71.38390732 1.69971752 C63.12220045 1.73438231 54.86066068 1.75972498 46.59887695 1.76318359 C39.3985382 1.76622144 32.19849695 1.78668741 24.99827313 1.82815152 C21.18511648 1.84949995 17.37238294 1.86207295 13.55916595 1.85378075 C9.97038308 1.84625183 6.38245832 1.86201414 2.79383278 1.8956871 C0.84801588 1.90786919 -1.09790651 1.8953152 -3.04371643 1.88206482 C-4.20195419 1.89735229 -5.36019196 1.91263977 -6.55352783 1.9283905 C-8.06342474 1.93253857 -8.06342474 1.93253857 -9.60382462 1.93677044 C-13.17712293 2.79331854 -14.14469782 4.65044216 -16.2355957 7.56762695 C-18.4543457 8.02075195 -18.4543457 8.02075195 -20.7355957 7.81762695 C-23.84431203 7.5834086 -26.23584854 7.6677028 -29.2355957 8.56762695 C-28.5755957 8.23762695 -27.9155957 7.90762695 -27.2355957 7.56762695 C-27.2355957 6.90762695 -27.2355957 6.24762695 -27.2355957 5.56762695 C-17.93711051 1.30665016 -10.17849831 -0.14602593 0 0 Z " fill="#E3EBEB" transform="translate(200.235595703125,671.432373046875)"/>
<path d="M0 0 C1.20975783 3.48139178 0.74538829 5.45779278 -0.41423035 8.90811157 C-2.32332182 15.48218696 -2.41548531 21.66116383 -2.37231445 28.47021484 C-2.37596512 29.77076813 -2.37961578 31.07132141 -2.38337708 32.4112854 C-2.3926975 35.94401606 -2.38343918 39.47646539 -2.37004495 43.00917387 C-2.35864639 46.71970832 -2.36284404 50.43023063 -2.36479187 54.14077759 C-2.36567155 60.36261543 -2.35465759 66.58434362 -2.33618164 72.80615234 C-2.31496309 79.99256634 -2.31151793 87.17882053 -2.3177436 94.36525953 C-2.3234405 101.29737728 -2.31779135 108.22943896 -2.30657005 115.16154861 C-2.30193408 118.1048143 -2.30104579 121.04804559 -2.3031559 123.99131393 C-2.30539169 128.09634508 -2.29092156 132.20115284 -2.2746582 136.30615234 C-2.27713562 137.52389343 -2.27961304 138.74163452 -2.28216553 139.99627686 C-2.27508072 141.11475006 -2.26799591 142.23322327 -2.26069641 143.3855896 C-2.25864354 144.35485571 -2.25659067 145.32412182 -2.25447559 146.32275963 C-2.12731782 149.05317006 -2.12731782 149.05317006 -0.92120647 151.60090065 C0.10566735 154.27518963 -0.02333098 155.36299365 -1 158 C-4.38027617 150.78001914 -4.43214582 144.29100901 -4.40405273 136.39892578 C-4.40976379 135.03467248 -4.41673089 133.67042395 -4.42485046 132.30618286 C-4.44271745 128.62008275 -4.44162559 124.93422154 -4.43590808 121.24809122 C-4.43280635 118.16183747 -4.43891969 115.07562896 -4.44494683 111.98938167 C-4.45896968 104.70333167 -4.45744992 97.41739897 -4.44604492 90.13134766 C-4.43457008 82.63542532 -4.44863361 75.13986103 -4.4754414 67.64398587 C-4.49765404 61.18934376 -4.50422317 54.73481358 -4.49836498 48.28013599 C-4.49500695 44.43340595 -4.4973329 40.58690527 -4.51461601 36.74020767 C-4.53017194 33.12026668 -4.52603513 29.50085268 -4.50731087 25.88093185 C-4.50191425 23.93391836 -4.51607372 21.98688071 -4.53100586 20.03991699 C-4.4685144 12.54049431 -3.38904742 6.72083973 0 0 Z " fill="#E3EAEB" transform="translate(676,176)"/>
<path d="M0 0 C16.17 0 32.34 0 49 0 C49 0.33 49 0.66 49 1 C56.59 1.33 64.18 1.66 72 2 C72 2.33 72 2.66 72 3 C48.24 3 24.48 3 0 3 C0 2.01 0 1.02 0 0 Z " fill="#022B53" transform="translate(760,156)"/>
<path d="M0 0 C4.62 0 9.24 0 14 0 C14 0.33 14 0.66 14 1 C22.25 1.33 30.5 1.66 39 2 C39 2.99 39 3.98 39 5 C17.88 5 -3.24 5 -25 5 C-25 4.01 -25 3.02 -25 2 C-12.625 1.505 -12.625 1.505 0 1 C0 0.67 0 0.34 0 0 Z " fill="#012A52" transform="translate(225,410)"/>
<path d="M0 0 C0 0.66 0 1.32 0 2 C0.56460938 1.67547852 1.12921875 1.35095703 1.7109375 1.01660156 C4.22188917 -0.09854378 5.89282801 -0.25783786 8.625 -0.265625 C9.93210937 -0.26949219 9.93210937 -0.26949219 11.265625 -0.2734375 C12.16796875 -0.26570313 13.0703125 -0.25796875 14 -0.25 C14.90234375 -0.25773437 15.8046875 -0.26546875 16.734375 -0.2734375 C17.60578125 -0.27085937 18.4771875 -0.26828125 19.375 -0.265625 C20.16648437 -0.26336914 20.95796875 -0.26111328 21.7734375 -0.25878906 C24.22919493 0.02663888 25.86954224 0.77547319 28 2 C25.10931453 2.82612979 22.54244319 3.12628439 19.53979492 3.12939453 C18.6581366 3.13250641 17.77647827 3.13561829 16.86810303 3.13882446 C15.91518372 3.13684052 14.9622644 3.13485657 13.98046875 3.1328125 C12.98106262 3.13413177 11.98165649 3.13545105 10.95196533 3.1368103 C7.69711213 3.13872821 4.44234447 3.1323904 1.1875 3.125 C0.08729523 3.12411377 -1.01290955 3.12322754 -2.14645386 3.12231445 C-20.114968 3.10525797 -38.04867098 2.79680082 -56 2 C-56 1.67 -56 1.34 -56 1 C-37.32707301 0.32954349 -18.68835554 -0.1749342 0 0 Z " fill="#022B57" transform="translate(808,412)"/>
<path d="M0 0 C0.33 0 0.66 0 1 0 C1.04241723 2.33294775 1.04092937 4.66702567 1 7 C0.67 7.33 0.34 7.66 0 8 C-0.10854981 9.77122886 -0.14687445 11.54678859 -0.15821838 13.32130432 C-0.1680072 14.47541809 -0.17779602 15.62953186 -0.18788147 16.81861877 C-0.19363693 18.09607468 -0.1993924 19.37353058 -0.20532227 20.68969727 C-0.21489564 22.03958439 -0.22490539 23.38946848 -0.23532104 24.73934937 C-0.26243483 28.41477343 -0.28340921 32.09021042 -0.30332303 35.7656796 C-0.3251428 39.60275729 -0.35255104 43.43979485 -0.37937927 47.27684021 C-0.42936054 54.54768307 -0.47427913 61.81854814 -0.51740164 69.08943456 C-0.56672767 77.36502202 -0.62166293 85.64056923 -0.67708123 93.91611779 C-0.79098466 110.94404134 -0.8978054 127.97200223 -1 145 C-1.33 145 -1.66 145 -2 145 C-2.04673483 126.98028543 -2.08199612 108.9605866 -2.10362434 90.94082451 C-2.11393392 82.5738103 -2.12798819 74.20683377 -2.15087891 65.83984375 C-2.17082251 58.54659949 -2.18371875 51.25338251 -2.18817699 43.96011174 C-2.19078272 40.09891133 -2.19690073 36.23778899 -2.21146011 32.37661362 C-2.22505935 28.74052898 -2.22921791 25.10455438 -2.22621536 21.46844673 C-2.22702582 19.5014976 -2.23777521 17.53456039 -2.24884033 15.56764221 C-2.246091 14.38982681 -2.24334167 13.21201141 -2.24050903 11.99850464 C-2.24235262 10.9790016 -2.24419621 9.95949856 -2.24609566 8.90910149 C-1.97374613 5.6896525 -1.13169233 3.01613613 0 0 Z " fill="#EAEDED" transform="translate(674,436)"/>
<path d="M0 0 C0.89588837 0.00141495 1.79177673 0.0028299 2.71481323 0.00428772 C5.53647403 0.00982184 8.35805126 0.02236136 11.1796875 0.03515625 C13.10937384 0.04017979 15.03906145 0.04474119 16.96875 0.04882812 C21.664094 0.05976956 26.35937665 0.07698747 31.0546875 0.09765625 C30.7246875 1.08765625 30.3946875 2.07765625 30.0546875 3.09765625 C23.25540331 3.14824565 16.4561674 3.18334292 9.65673828 3.20751953 C7.34226671 3.21759517 5.02780791 3.231256 2.71337891 3.24853516 C-0.60777943 3.2727149 -3.9287699 3.28412355 -7.25 3.29296875 C-8.28961884 3.30329132 -9.32923767 3.31361389 -10.40036011 3.32424927 C-11.36120514 3.32440033 -12.32205017 3.32455139 -13.31201172 3.32470703 C-14.16028534 3.32914825 -15.00855896 3.33358948 -15.88253784 3.33816528 C-17.9453125 3.09765625 -17.9453125 3.09765625 -19.9453125 1.09765625 C-13.27082187 0.31569805 -6.71755558 -0.04102074 0 0 Z " fill="#032C57" transform="translate(721.9453125,155.90234375)"/>
<path d="M0 0 C0.33 0 0.66 0 1 0 C1.76927736 14.20707968 2.06544338 28.36477603 1.98873901 42.58813477 C1.94395307 51.44504538 2.14053839 60.20203754 2.84375 69.03125 C3.04407875 72.83749619 2.70088042 76.26197109 2 80 C1.34 80 0.68 80 0 80 C0 53.6 0 27.2 0 0 Z " fill="#082F52" transform="translate(353,496)"/>
<path d="M0 0 C0.99 0.495 0.99 0.495 2 1 C1.98839844 1.99 1.97679687 2.98 1.96484375 4 C1.85696685 14.04106931 1.85696685 14.04106931 3 24 C3.33 24.33 3.66 24.66 4 25 C4.125 28 4.125 28 4 31 C3.67 31.33 3.34 31.66 3 32 C2.75895987 34.52645767 2.57604605 37.03005991 2.4375 39.5625 C2.39431641 40.25408203 2.35113281 40.94566406 2.30664062 41.65820312 C2.09726228 45.22428195 1.98182865 48.76736036 2.00390625 52.33984375 C2.00060326 55.4347444 1.74642924 58.01428303 1 61 C0.67 61 0.34 61 0 61 C0 40.87 0 20.74 0 0 Z " fill="#05294D" transform="translate(609,768)"/>
<path d="M0 0 C0.56688538 0.16298584 1.13377075 0.32597168 1.71783447 0.49389648 C4.07024199 1.01557719 6.10818139 1.11385848 8.51464844 1.09765625 C9.40367859 1.09435303 10.29270874 1.0910498 11.2086792 1.08764648 C12.16590881 1.07934814 13.12313843 1.0710498 14.109375 1.0625 C15.10898254 1.05871338 16.10859009 1.05492676 17.13848877 1.05102539 C21.40308775 1.03477203 25.66758967 1.00697579 29.93212891 0.97949219 C42.33618619 0.90642535 54.63157617 0.97804244 67 2 C66.67 2.66 66.34 3.32 66 4 C43.98965302 4.20506534 22.00058405 3.58124084 0 3 C0 2.01 0 1.02 0 0 Z " fill="#022B58" transform="translate(485,667)"/>
<path d="M0 0 C4.62657251 1.81758206 6.88763151 4.74302788 9.06152344 9.15380859 C12.41453754 17.33635046 12.4715393 24.95446265 12.25 33.6875 C12.22988145 35.08265633 12.21164025 36.47784104 12.1953125 37.87304688 C12.14858041 41.24944067 12.08307355 44.62433806 12 48 C11.67 48 11.34 48 11 48 C10.97494385 47.2479126 10.9498877 46.4958252 10.92407227 45.72094727 C10.80849486 42.33460804 10.68559655 38.94857387 10.5625 35.5625 C10.52318359 34.37849609 10.48386719 33.19449219 10.44335938 31.97460938 C10.40146484 30.84990234 10.35957031 29.72519531 10.31640625 28.56640625 C10.27974854 27.52427979 10.24309082 26.48215332 10.20532227 25.40844727 C10.26484659 23.0500174 10.26484659 23.0500174 9 22 C8.95936168 20.33382885 8.957279 18.66611905 9 17 C8.01 16.67 7.02 16.34 6 16 C6.165 14.989375 6.33 13.97875 6.5 12.9375 C5.83980176 7.73843883 3.72326054 6.42375616 -0.25 3.28515625 C-1.11625 2.64900391 -1.11625 2.64900391 -2 2 C-1.34 1.34 -0.68 0.68 0 0 Z " fill="#E2F0F1" transform="translate(340,424)"/>
<path d="M0 0 C0.33 0 0.66 0 1 0 C1.25161102 7.42252505 1.25161102 7.42252505 0.00772095 10.27738953 C-1.10720824 13.2896499 -1.27621456 15.59546091 -1.31884766 18.80004883 C-1.33871735 19.94085403 -1.35858704 21.08165924 -1.37905884 22.2570343 C-1.39061005 23.47803329 -1.40216125 24.69903229 -1.4140625 25.95703125 C-1.43342865 27.21513107 -1.4527948 28.4732309 -1.4727478 29.76945496 C-1.52233077 33.10174319 -1.56363098 36.43392331 -1.60089111 39.76635742 C-1.64101624 43.17181239 -1.6920696 46.5771019 -1.7421875 49.98242188 C-1.83817488 56.65484131 -1.9232417 63.32733315 -2 70 C-2.33 70 -2.66 70 -3 70 C-3.06974168 62.05440349 -3.12293312 54.10893649 -3.15543652 46.16310883 C-3.17104246 42.47288645 -3.19218682 38.78287465 -3.22631836 35.09277344 C-3.25909442 31.52659558 -3.27689109 27.96061932 -3.28463173 24.39430237 C-3.29281099 22.38255153 -3.31620093 20.37088093 -3.33988953 18.35925293 C-3.34114063 11.50896274 -2.96667398 6.21393304 0 0 Z " fill="#F0F0F0" transform="translate(163,434)"/>
<path d="M0 0 C0.33 0 0.66 0 1 0 C0.85915204 1.79206547 0.71216299 3.58364917 0.5625 5.375 C0.48128906 6.37273437 0.40007812 7.37046875 0.31640625 8.3984375 C0 11 0 11 -1 13 C-1.11957474 14.81718084 -1.1772468 16.63857835 -1.20532227 18.45947266 C-1.22526749 19.60050446 -1.24521271 20.74153625 -1.26576233 21.91714478 C-1.28247482 23.15362762 -1.29918732 24.39011047 -1.31640625 25.6640625 C-1.33718735 26.92640717 -1.35796844 28.18875183 -1.37937927 29.48934937 C-1.43377926 32.84632045 -1.48400236 36.20330189 -1.53222656 39.56036377 C-1.58245042 42.98561065 -1.63813186 46.41076829 -1.69335938 49.8359375 C-1.80061859 56.55722061 -1.9023744 63.27857044 -2 70 C-2.33 70 -2.66 70 -3 70 C-3.06974168 62.05440349 -3.12293312 54.10893649 -3.15543652 46.16310883 C-3.17104246 42.47288645 -3.19218682 38.78287465 -3.22631836 35.09277344 C-3.25909442 31.52659558 -3.27689109 27.96061932 -3.28463173 24.39430237 C-3.29281099 22.38255153 -3.31620093 20.37088093 -3.33988953 18.35925293 C-3.34114063 11.50896274 -2.96667398 6.21393304 0 0 Z " fill="#F0F0F0" transform="translate(419,178)"/>
<path d="M0 0 C7.73666719 -0.02319817 15.47333076 -0.04095318 23.21002483 -0.05181217 C26.80270811 -0.05702465 30.39536755 -0.06409257 33.98803711 -0.07543945 C37.45692491 -0.08632649 40.92578981 -0.09228916 44.39469337 -0.09487724 C46.35832602 -0.09761664 48.32194948 -0.10541944 50.28556824 -0.11329651 C52.08686943 -0.11340981 52.08686943 -0.11340981 53.92456055 -0.11352539 C54.97935104 -0.115746 56.03414154 -0.11796661 57.12089539 -0.12025452 C59.85647287 -0.00599485 62.33762934 0.38107618 65 1 C65 1.33 65 1.66 65 2 C58.25 3.125 58.25 3.125 56 2 C54.2134547 1.88055524 52.42263749 1.82277682 50.63232422 1.79467773 C48.95080765 1.7647599 48.95080765 1.7647599 47.23532104 1.73423767 C45.41340744 1.70916893 45.41340744 1.70916893 43.5546875 1.68359375 C42.31453888 1.66281265 41.07439026 1.64203156 39.79666138 1.62062073 C36.49888177 1.56622295 33.2010728 1.51599905 29.90319824 1.46777344 C26.53827347 1.41754766 23.1734395 1.36186723 19.80859375 1.30664062 C13.20580146 1.19938443 6.60294128 1.09762811 0 1 C0 0.67 0 0.34 0 0 Z " fill="#ECF1F2" transform="translate(264,416)"/>
<path d="M0 0 C0 0.33 0 0.66 0 1 C-4.42474001 1.17067352 -8.84971355 1.33082005 -13.27514648 1.48217773 C-14.77329171 1.53478631 -16.27134742 1.59002577 -17.76928711 1.64819336 C-27.93381295 2.04058022 -37.86070098 1.88970517 -48 1 C-48 0.67 -48 0.34 -48 0 C-32.04593132 -1.70561589 -15.99183183 -0.64159369 0 0 Z " fill="#012A57" transform="translate(304,669)"/>
<path d="M0 0 C0.99 0.33 1.98 0.66 3 1 C3.125 6.75 3.125 6.75 2 9 C1.7218975 12.6020895 1.55267776 16.20396821 1.37890625 19.8125 C1 23 1 23 -1 25 C-1.02886984 21.02084841 -1.04675406 17.04172347 -1.0625 13.0625 C-1.07087891 11.92619141 -1.07925781 10.78988281 -1.08789062 9.61914062 C-1.09111328 8.53955078 -1.09433594 7.45996094 -1.09765625 6.34765625 C-1.10289307 5.34742432 -1.10812988 4.34719238 -1.11352539 3.31665039 C-1 1 -1 1 0 0 Z " fill="#012A4C" transform="translate(866,200)"/>
<path d="M0 0 C-6 4 -6 4 -8.5625 4.375 C-11.16952088 4.74737559 -11.16952088 4.74737559 -12.3125 7.0625 C-12.539375 7.701875 -12.76625 8.34125 -13 9 C-13.66 9 -14.32 9 -15 9 C-15.33 9.66 -15.66 10.32 -16 11 C-18.0625 11.625 -18.0625 11.625 -20 12 C-18.71480435 9.13302508 -17.42870746 7.02392288 -15 5 C-14.34 5 -13.68 5 -13 5 C-13 4.34 -13 3.68 -13 3 C-11.5903653 2.29819469 -10.17192359 1.61406042 -8.75 0.9375 C-7.96109375 0.55464844 -7.1721875 0.17179687 -6.359375 -0.22265625 C-3.74006478 -1.08564091 -2.55144824 -0.93045933 0 0 Z " fill="#D2E3E8" transform="translate(442,418)"/>
<path d="M0 0 C0.33 0 0.66 0 1 0 C1.04241723 2.33294775 1.04092937 4.66702567 1 7 C0.67 7.33 0.34 7.66 0 8 C-0.12197808 9.38050858 -0.17768899 10.76697647 -0.20532227 12.15258789 C-0.22526749 13.03342545 -0.24521271 13.914263 -0.26576233 14.8217926 C-0.28247482 15.77907761 -0.29918732 16.73636261 -0.31640625 17.72265625 C-0.33718735 18.69786728 -0.35796844 19.67307831 -0.37937927 20.67784119 C-0.44498412 23.8059863 -0.50381028 26.93421822 -0.5625 30.0625 C-0.60567483 32.1777435 -0.64928877 34.29297809 -0.69335938 36.40820312 C-0.80067655 41.60537587 -0.9024222 46.80263577 -1 52 C-1.33 52 -1.66 52 -2 52 C-2.05081435 45.55879087 -2.08578161 39.11763368 -2.10986328 32.67626953 C-2.11990526 30.48614571 -2.13354147 28.29603525 -2.15087891 26.10595703 C-2.17520627 22.95341694 -2.18650131 19.80105452 -2.1953125 16.6484375 C-2.20563507 15.67321136 -2.21595764 14.69798523 -2.22659302 13.69320679 C-2.22740948 8.71808837 -1.97323633 4.66339243 0 0 Z " fill="#E6EBEA" transform="translate(674,436)"/>
<path d="M0 0 C0.33 0 0.66 0 1 0 C1.2475 0.94875 1.495 1.8975 1.75 2.875 C3.19885671 6.49714177 3.62703996 6.51830684 7 8 C8.42831735 8.81320258 9.84524447 9.64674108 11.25 10.5 C11.95640625 10.9228125 12.6628125 11.345625 13.390625 11.78125 C13.92171875 12.1834375 14.4528125 12.585625 15 13 C15 13.66 15 14.32 15 15 C12.25 15.375 12.25 15.375 9 15 C6.875 12.0625 6.875 12.0625 5 9 C2.87880872 8.04768403 2.87880872 8.04768403 1 8 C1 7.34 1 6.68 1 6 C0.34 6 -0.32 6 -1 6 C-0.67 4.02 -0.34 2.04 0 0 Z " fill="#0E3451" transform="translate(418,847)"/>
<path d="M0 0 C0.33 0 0.66 0 1 0 C2.33257403 16.8929385 2.33257403 16.8929385 1 24 C0.34 24 -0.32 24 -1 24 C-1.18451025 7.1070615 -1.18451025 7.1070615 0 0 Z " fill="#012A4A" transform="translate(354,552)"/>
<path d="M0 0 C0.66 0.99 1.32 1.98 2 3 C2.43699219 3.65097656 2.87398438 4.30195312 3.32421875 4.97265625 C3.77410156 5.66230469 4.22398437 6.35195313 4.6875 7.0625 C5.14511719 7.75472656 5.60273438 8.44695313 6.07421875 9.16015625 C6.37972656 9.76730469 6.68523437 10.37445312 7 11 C6.67 11.66 6.34 12.32 6 13 C5.21625 12.979375 4.4325 12.95875 3.625 12.9375 C1.01885039 12.81315937 1.01885039 12.81315937 -1 14 C-0.835 12.989375 -0.67 11.97875 -0.5 10.9375 C-0.03014231 7.23737067 0.07599849 3.72392609 0 0 Z " fill="#224965" transform="translate(417,585)"/>
<path d="M0 0 C0 0.66 0 1.32 0 2 C-0.99 2.66 -1.98 3.32 -3 4 C-3.33 4.99 -3.66 5.98 -4 7 C-4.66 7 -5.32 7 -6 7 C-6 7.66 -6 8.32 -6 9 C-6.66 9 -7.32 9 -8 9 C-8.33 9.99 -8.66 10.98 -9 12 C-9.99 12 -10.98 12 -12 12 C-11.67 10.68 -11.34 9.36 -11 8 C-10.34 8 -9.68 8 -9 8 C-8.731875 7.360625 -8.46375 6.72125 -8.1875 6.0625 C-7 4 -7 4 -4 3 C-4 2.34 -4 1.68 -4 1 C-2 0 -2 0 0 0 Z " fill="#D5E6EB" transform="translate(433,676)"/>
<path d="M0 0 C0.66 0.99 1.32 1.98 2 3 C1.01 3.33 0.02 3.66 -1 4 C-0.7525 4.7425 -0.505 5.485 -0.25 6.25 C0 9 0 9 -1.5625 11.3125 C-4.58388508 13.40422813 -6.39991481 13.32728047 -10 13 C-9.278125 12.34 -8.55625 11.68 -7.8125 11 C-4.54311134 7.75863467 -2.3069961 3.95625289 0 0 Z " fill="#20415D" transform="translate(860,590)"/>
<path d="M0 0 C2 1 2 1 3.125 4 C4.27521462 8.32229088 4.18124209 12.55956873 4 17 C-1.57835821 5.91604478 -1.57835821 5.91604478 -1 1 C-0.67 0.67 -0.34 0.34 0 0 Z " fill="#DBECEF" transform="translate(604,690)"/>
<path d="M0 0 C0.33 0 0.66 0 1 0 C1.17303612 5.10456549 0.95792436 8.27794713 -1 13 C-1.46113609 15.98978344 -1.75045912 18.9858089 -2 22 C-2.33 22 -2.66 22 -3 22 C-3.30372936 13.99054432 -3.50848663 7.30934715 0 0 Z " fill="#DFEDF2" transform="translate(163,434)"/>
<path d="M0 0 C0.27457031 0.55558594 0.54914063 1.11117187 0.83203125 1.68359375 C1.64223898 3.29046058 2.4746312 4.88625826 3.32421875 6.47265625 C3.77410156 7.32730469 4.22398437 8.18195312 4.6875 9.0625 C5.14511719 9.91972656 5.60273438 10.77695312 6.07421875 11.66015625 C7 14 7 14 6 17 C3 16 3 16 2.05078125 14.1796875 C0.46995165 9.24482262 -0.33070393 5.18102823 0 0 Z " fill="#294A65" transform="translate(160,581)"/>
<path d="M0 0 C0.33 0 0.66 0 1 0 C0.85915204 1.79206547 0.71216299 3.58364917 0.5625 5.375 C0.48128906 6.37273437 0.40007812 7.37046875 0.31640625 8.3984375 C0 11 0 11 -1 13 C-1.22467831 14.53668865 -1.40796805 16.07968054 -1.5625 17.625 C-1.64628906 18.44226563 -1.73007812 19.25953125 -1.81640625 20.1015625 C-1.87699219 20.72804687 -1.93757813 21.35453125 -2 22 C-2.33 22 -2.66 22 -3 22 C-3.30372936 13.99054432 -3.50848663 7.30934715 0 0 Z " fill="#DEECF0" transform="translate(419,178)"/>
<path d="M0 0 C0.33 0 0.66 0 1 0 C1.17015625 0.78503906 1.3403125 1.57007813 1.515625 2.37890625 C3.12845068 9.53915835 3.12845068 9.53915835 6.25 16.125 C6.8275 17.07375 7.405 18.0225 8 19 C7.67 19.66 7.34 20.32 7 21 C3.25951655 18.50634436 2.57642204 17.22767729 1 13 C0.45986106 8.67374428 0.18736658 4.35465774 0 0 Z " fill="#2F536E" transform="translate(159,832)"/>
<path d="M0 0 C0.66 0.33 1.32 0.66 2 1 C1.2884375 1.6496875 1.2884375 1.6496875 0.5625 2.3125 C-1.23686957 4.02309613 -1.23686957 4.02309613 -2 7 C-4.0625 7.6875 -4.0625 7.6875 -6 8 C-6 8.99 -6 9.98 -6 11 C-7.32 11.33 -8.64 11.66 -10 12 C-9.67 10.68 -9.34 9.36 -9 8 C-8.34 8 -7.68 8 -7 8 C-6.95875 7.4225 -6.9175 6.845 -6.875 6.25 C-5.55934042 2.86687535 -3.03447636 1.80777315 0 0 Z " fill="#D0E2E8" transform="translate(687,420)"/>
<path d="M0 0 C0.66 0.33 1.32 0.66 2 1 C-1.85055644 8.42607313 -1.85055644 8.42607313 -6 10 C-6.33 10.66 -6.66 11.32 -7 12 C-7.33 11.01 -7.66 10.02 -8 9 C-5.84140076 5.16249025 -3.71404629 2.38760119 0 0 Z " fill="#D0E0E7" transform="translate(429,165)"/>
<path d="M0 0 C2.60444348 -0.05394705 5.20776998 -0.09364469 7.8125 -0.125 C8.55048828 -0.14175781 9.28847656 -0.15851562 10.04882812 -0.17578125 C13.91246426 -0.21074628 15.70903668 -0.19397555 19 2 C16.24921116 2.91692961 14.64051087 3.10886083 11.8125 3.0625 C9.9253125 3.0315625 9.9253125 3.0315625 8 3 C8 2.34 8 1.68 8 1 C5.36 1 2.72 1 0 1 C0 0.67 0 0.34 0 0 Z " fill="#022C56" transform="translate(560,668)"/>
<path d="M0 0 C-0.33 1.32 -0.66 2.64 -1 4 C-1.66 4 -2.32 4 -3 4 C-3.268125 4.9075 -3.53625 5.815 -3.8125 6.75 C-4.89576294 9.71471963 -5.98359457 11.6169754 -8 14 C-8 9.8285133 -7.42128771 6.9085412 -6 3 C-2.90322581 0 -2.90322581 0 0 0 Z " fill="#153F59" transform="translate(681,424)"/>
<path d="M0 0 C4.02992782 0.55312735 8.02022924 1.1558062 12 2 C11.67 3.65 11.34 5.3 11 7 C7.37 5.35 3.74 3.7 0 2 C0 1.34 0 0.68 0 0 Z " fill="#1B4260" transform="translate(585,160)"/>
<path d="M0 0 C0.66 0.99 1.32 1.98 2 3 C1.67 3.99 1.34 4.98 1 6 C0.01 6 -0.98 6 -2 6 C-2 6.99 -2 7.98 -2 9 C-3.875 9.625 -3.875 9.625 -6 10 C-6.66 9.34 -7.32 8.68 -8 8 C-6.50260417 6.79557292 -5.00520833 5.59114583 -3.5078125 4.38671875 C-1.74707893 2.87729455 -1.74707893 2.87729455 0 0 Z " fill="#183A56" transform="translate(602,850)"/>
<path d="M0 0 C3.79379058 1.49041773 5.68343758 3.69062512 8 7 C8 7.66 8 8.32 8 9 C4.05860922 7.33248852 1.2107188 4.77289351 -2 2 C-1.34 1.34 -0.68 0.68 0 0 Z " fill="#D7E8EC" transform="translate(340,424)"/>
<path d="M0 0 C0.66 0.99 1.32 1.98 2 3 C2.43699219 3.65097656 2.87398437 4.30195313 3.32421875 4.97265625 C3.77410156 5.66230469 4.22398437 6.35195313 4.6875 7.0625 C5.14511719 7.75472656 5.60273437 8.44695312 6.07421875 9.16015625 C6.37972656 9.76730469 6.68523438 10.37445313 7 11 C6.67 11.66 6.34 12.32 6 13 C4.1875 12.5 4.1875 12.5 2 11 C0.62837997 8.43927389 -0.39748699 5.84363616 -1 3 C-0.67 2.01 -0.34 1.02 0 0 Z " fill="#2B506A" transform="translate(673,329)"/>
<path d="M0 0 C1.485 0.99 1.485 0.99 3 2 C3.66 1.67 4.32 1.34 5 1 C5.125 3.875 5.125 3.875 5 7 C4.34 7.66 3.68 8.32 3 9 C0.9375 6.75 0.9375 6.75 -1 4 C-0.75 1.6875 -0.75 1.6875 0 0 Z " fill="#083352" transform="translate(346,424)"/>
<path d="M0 0 C0.66 0.33 1.32 0.66 2 1 C0.51461988 5.7037037 0.51461988 5.7037037 -2.0625 7.1875 C-2.701875 7.455625 -3.34125 7.72375 -4 8 C-4.33 8.66 -4.66 9.32 -5 10 C-5.99 10.33 -6.98 10.66 -8 11 C-6.69386058 7.08158173 -5.16870152 4.67359191 -2 2 C-1.34 2 -0.68 2 0 2 C0 1.34 0 0.68 0 0 Z " fill="#CEDFE6" transform="translate(685,165)"/>
<path d="M0 0 C4.28577219 -0.36539443 6.34492062 0.51576402 9.8125 3 C10.60269531 3.556875 11.39289062 4.11375 12.20703125 4.6875 C12.79871094 5.120625 13.39039063 5.55375 14 6 C13.01 6.66 12.02 7.32 11 8 C10.29875 7.401875 9.5975 6.80375 8.875 6.1875 C6.02969023 4.02259039 3.23367233 2.50403364 0 1 C0 0.67 0 0.34 0 0 Z " fill="#D5E6EC" transform="translate(582,417)"/>
<path d="M0 0 C0.99 0.33 1.98 0.66 3 1 C2.67 2.32 2.34 3.64 2 5 C1.34 5 0.68 5 0 5 C-0.33 5.99 -0.66 6.98 -1 8 C-2.98 8 -4.96 8 -7 8 C-6.02133662 6.85373678 -5.04205413 5.70800212 -4.0625 4.5625 C-3.51722656 3.92441406 -2.97195313 3.28632813 -2.41015625 2.62890625 C-1.63204305 1.73008851 -0.84063472 0.84063472 0 0 Z " fill="#1D415D" transform="translate(857,339)"/>
<path d="M0 0 C3 1.25 3 1.25 5 4.25 C1.6875 4.5 1.6875 4.5 -2 4.25 C-3.9375 2.25 -3.9375 2.25 -5 0.25 C-3 -0.75 -3 -0.75 0 0 Z " fill="#0D3351" transform="translate(173,857.75)"/>
<path d="M0 0 C2.48862878 3.23521742 4.75421558 6.59260295 7 10 C6.67 10.66 6.34 11.32 6 12 C4.1875 11.5 4.1875 11.5 2 10 C0.65360636 7.43750887 -0.36972349 4.82740865 -1 2 C-0.67 1.34 -0.34 0.68 0 0 Z " fill="#2D4F69" transform="translate(417,842)"/>
<path d="M0 0 C-3.28463659 2.18975773 -6.20696275 2.99806563 -10 4 C-10 4.66 -10 5.32 -10 6 C-10.99 6.33 -11.98 6.66 -13 7 C-13.33 6.34 -13.66 5.68 -14 5 C-9.20407947 0.20407947 -6.75190546 -0.58206082 0 0 Z " fill="#2A536D" transform="translate(439,673)"/>
<path d="M0 0 C1.09658936 3.28976808 0.79953138 4.71303767 0 8 C-0.99 8 -1.98 8 -3 8 C-6 4.66666667 -6 4.66666667 -6 2 C-3.525 2.495 -3.525 2.495 -1 3 C-0.67 2.01 -0.34 1.02 0 0 Z " fill="#093452" transform="translate(863,424)"/>
<path d="M0 0 C2.31 0 4.62 0 7 0 C2.77614544 3.44165927 -0.50060584 5 -6 5 C-6 4.34 -6 3.68 -6 3 C-4.02 2.67 -2.04 2.34 0 2 C0 1.34 0 0.68 0 0 Z " fill="#E2F2F8" transform="translate(587,602)"/>
<path d="M0 0 C0.33 0 0.66 0 1 0 C1.04241723 2.33294775 1.04092937 4.66702567 1 7 C0.67 7.33 0.34 7.66 0 8 C-0.23427778 10.01594582 -0.41336124 12.038474 -0.5625 14.0625 C-0.64628906 15.16722656 -0.73007812 16.27195312 -0.81640625 17.41015625 C-0.87699219 18.26480469 -0.93757812 19.11945313 -1 20 C-1.33 20 -1.66 20 -2 20 C-2.0544452 17.79194476 -2.09299283 15.58349446 -2.125 13.375 C-2.14820313 12.14523437 -2.17140625 10.91546875 -2.1953125 9.6484375 C-2.0030428 6.05683959 -1.30258556 3.33338825 0 0 Z " fill="#CCE0E3" transform="translate(674,436)"/>
<path d="M0 0 C1.80411967 2.75924185 2.0127245 3.88972103 1.625 7.25 C1.41875 8.1575 1.2125 9.065 1 10 C-0.65 10 -2.3 10 -4 10 C-2.66666667 6.66666667 -1.33333333 3.33333333 0 0 Z " fill="#234863" transform="translate(606,585)"/>
<path d="M0 0 C1.31534494 3.65857532 0.65468309 6.08026481 -0.4375 9.75 C-0.86869141 11.22726563 -0.86869141 11.22726563 -1.30859375 12.734375 C-1.53675781 13.48203125 -1.76492188 14.2296875 -2 15 C-2.33 15 -2.66 15 -3 15 C-3.3152595 9.01006953 -2.68219822 5.36439644 0 0 Z " fill="#E0F1F6" transform="translate(676,176)"/>
<path d="M0 0 C5.70629354 0.42797202 9.41078616 2.84345952 14 6 C12.1171875 6.578125 12.1171875 6.578125 10 7 C8.125 5.75 8.125 5.75 6 4 C4.01549844 2.96958573 2.01800895 1.96314063 0 1 C0 0.67 0 0.34 0 0 Z " fill="#D9E9F0" transform="translate(326,673)"/>
<path d="M0 0 C0.66 0.33 1.32 0.66 2 1 C2 2.32 2 3.64 2 5 C-0.97 5 -3.94 5 -7 5 C-4.702779 3.25728062 -2.40133271 1.60088848 0 0 Z " fill="#234760" transform="translate(595,601)"/>
<path d="M0 0 C0.33 0 0.66 0 1 0 C0.28571429 8.57142857 0.28571429 8.57142857 -3 12 C-4.125 7.25 -4.125 7.25 -3 5 C-2.34 5 -1.68 5 -1 5 C-0.67 3.35 -0.34 1.7 0 0 Z " fill="#DFF2F6" transform="translate(350,580)"/>
<path d="M0 0 C1.7143618 1.95927063 3.38405168 3.95880212 5 6 C4.01 7.485 4.01 7.485 3 9 C2.401875 8.236875 1.80375 7.47375 1.1875 6.6875 C-0.46959332 4.6516425 -2.10297674 2.8021721 -4 1 C-2 0 -2 0 0 0 Z " fill="#1B415D" transform="translate(855,165)"/>
<path d="M0 0 C-1.4317616 0.69937202 -2.87067032 1.38412718 -4.3125 2.0625 C-5.51326172 2.63677734 -5.51326172 2.63677734 -6.73828125 3.22265625 C-9 4 -9 4 -12 3 C-10.35 2.34 -8.7 1.68 -7 1 C-7 0.34 -7 -0.32 -7 -1 C-3.51418144 -2.2020064 -3.32007656 -2.21338437 0 0 Z " fill="#DAECF1" transform="translate(338,603)"/>
<path d="M0 0 C2.64 0 5.28 0 8 0 C4.8745041 2.64465038 1.91211733 3.84414715 -2 5 C-1.34 3.35 -0.68 1.7 0 0 Z " fill="#E5F2F7" transform="translate(842,346)"/>
<path d="M0 0 C2.4375 0.6875 2.4375 0.6875 5 2 C5.8125 4.625 5.8125 4.625 6 7 C3.36 5.68 0.72 4.36 -2 3 C-1.34 2.67 -0.68 2.34 0 2 C0 1.34 0 0.68 0 0 Z " fill="#28516C" transform="translate(590,416)"/>
<path d="M0 0 C2 2 2 2 2 6 C0.35 5.67 -1.3 5.34 -3 5 C-3 3.68 -3 2.36 -3 1 C-2.01 0.67 -1.02 0.34 0 0 Z " fill="#043153" transform="translate(342,417)"/>
<path d="M0 0 C2 0 2 0 3.625 1.1875 C5.42149467 3.55560662 5.23521845 5.09897251 5 8 C2.00675737 6.9024777 1.15389099 6.32317108 -0.25 3.375 C-0.4975 2.59125 -0.745 1.8075 -1 1 C-0.67 0.67 -0.34 0.34 0 0 Z " fill="#D9E7EB" transform="translate(423,337)"/>
<path d="M0 0 C0 1.98 0 3.96 0 6 C-1.32 6 -2.64 6 -4 6 C-4 4.35 -4 2.7 -4 1 C-2 0 -2 0 0 0 Z " fill="#032C52" transform="translate(607,849)"/>
<path d="M0 0 C3.82097239 0.53069061 6.06171403 1.49701566 9 4 C5.71023192 5.09658936 4.28696233 4.79953138 1 4 C0.67 2.68 0.34 1.36 0 0 Z " fill="#DEEEF2" transform="translate(585,162)"/>
<path d="M0 0 C0.33 0 0.66 0 1 0 C1.2475 0.94875 1.495 1.8975 1.75 2.875 C2.6857077 6.08693191 2.6857077 6.08693191 5.125 7.375 C5.74375 7.58125 6.3625 7.7875 7 8 C4 9 4 9 1 8 C1 7.34 1 6.68 1 6 C0.34 6 -0.32 6 -1 6 C-0.67 4.02 -0.34 2.04 0 0 Z " fill="#012C4F" transform="translate(418,847)"/>
<path d="M0 0 C2.4375 0.625 2.4375 0.625 5 2 C5.8125 5.125 5.8125 5.125 6 8 C1.125 3.375 1.125 3.375 0 0 Z " fill="#E3F0F3" transform="translate(165,592)"/>
<path d="M0 0 C0.66 0.33 1.32 0.66 2 1 C2.625 4.0625 2.625 4.0625 3 7 C3.66 7 4.32 7 5 7 C4.67 7.66 4.34 8.32 4 9 C3.01 8.34 2.02 7.68 1 7 C1 6.01 1 5.02 1 4 C0.34 4 -0.32 4 -1 4 C-1.33 3.01 -1.66 2.02 -2 1 C-1.34 0.67 -0.68 0.34 0 0 Z " fill="#CCDDE3" transform="translate(679,592)"/>
<path d="M0 0 C2.875 0.1875 2.875 0.1875 6 1 C7.375 3.5625 7.375 3.5625 8 6 C7.01 6.495 7.01 6.495 6 7 C5.38125 6.21625 4.7625 5.4325 4.125 4.625 C2.10141339 2.03162353 2.10141339 2.03162353 0 0 Z " fill="#1B425E" transform="translate(596,167)"/>
<path d="M0 0 C0.33 1.32 0.66 2.64 1 4 C-0.98 4.33 -2.96 4.66 -5 5 C-5 3.68 -5 2.36 -5 1 C-3 0 -3 0 0 0 Z " fill="#042D4E" transform="translate(343,858)"/>
<path d="M0 0 C3.68754757 0.49831724 5.60490662 1.10067643 8 4 C7.67 4.66 7.34 5.32 7 6 C6.34 6 5.68 6 5 6 C5 5.34 5 4.68 5 4 C2.525 3.01 2.525 3.01 0 2 C0 1.34 0 0.68 0 0 Z " fill="#183E57" transform="translate(680,600)"/>
<path d="M0 0 C2 0 2 0 4 1.875 C4.66 2.57625 5.32 3.2775 6 4 C6.66 4.66 7.32 5.32 8 6 C4.28400809 6.20086443 3.22791555 6.1519437 0 4 C0 2.68 0 1.36 0 0 Z " fill="#274A61" transform="translate(424,598)"/>
<path d="M0 0 C0.66 0.33 1.32 0.66 2 1 C-0.475 4.465 -0.475 4.465 -3 8 C-3.66 6.68 -4.32 5.36 -5 4 C-4.01 4 -3.02 4 -2 4 C-1.34 2.68 -0.68 1.36 0 0 Z " fill="#E1EFF5" transform="translate(857,336)"/>
<path d="M0 0 C1.65 0 3.3 0 5 0 C5.33 1.65 5.66 3.3 6 5 C3.49642139 4.1654738 1.33214148 3.20628008 -1 2 C-0.67 1.34 -0.34 0.68 0 0 Z " fill="#032C4B" transform="translate(594,859)"/>
<path d="M0 0 C2.97 1.65 5.94 3.3 9 5 C5 6 5 6 2.8125 4.75 C1 3 1 3 0 0 Z " fill="#DEEDF2" transform="translate(331,418)"/>
<path d="M0 0 C0.6875 2.0625 0.6875 2.0625 1 4 C-4.75 2.25 -4.75 2.25 -7 0 C-3.98968256 -0.93423645 -3.13349732 -1.04449911 0 0 Z " fill="#DAE9ED" transform="translate(693,346)"/>
<path d="M0 0 C2.5 0.1875 2.5 0.1875 5 1 C5.66 1.99 6.32 2.98 7 4 C4 5 4 5 0.8125 3.5625 C-0.115625 3.046875 -1.04375 2.53125 -2 2 C-1.34 1.34 -0.68 0.68 0 0 Z " fill="#DCECF0" transform="translate(432,345)"/>
<path d="M0 0 C2.50298434 2.93828597 3.46930939 5.17902761 4 9 C3.01 9 2.02 9 1 9 C0.67 6.03 0.34 3.06 0 0 Z " fill="#D4E6EC" transform="translate(859,175)"/>
<path d="M0 0 C4.875 3.625 4.875 3.625 6 7 C5.01 7 4.02 7 3 7 C0 2.77777778 0 2.77777778 0 0 Z " fill="#D4E5EA" transform="translate(853,168)"/>
<path d="M0 0 C0.66 0 1.32 0 2 0 C0.25 5.75 0.25 5.75 -2 8 C-3.125 4.25 -3.125 4.25 -2 2 C-1.34 2 -0.68 2 0 2 C0 1.34 0 0.68 0 0 Z " fill="#173E5A" transform="translate(163,686)"/>
<path d="M0 0 C0.33 0.99 0.66 1.98 1 3 C-0.28745036 3.38922918 -1.58019597 3.76098036 -2.875 4.125 C-3.95394531 4.43824219 -3.95394531 4.43824219 -5.0546875 4.7578125 C-5.69664062 4.83773437 -6.33859375 4.91765625 -7 5 C-7.66 4.34 -8.32 3.68 -9 3 C-2.25 0 -2.25 0 0 0 Z " fill="#2F546D" transform="translate(338,603)"/>
<path d="M0 0 C2.475 0.495 2.475 0.495 5 1 C4.67 2.32 4.34 3.64 4 5 C2.68 4.34 1.36 3.68 0 3 C0 2.01 0 1.02 0 0 Z " fill="#0A304E" transform="translate(169,601)"/>
<path d="M0 0 C0.33 0.99 0.66 1.98 1 3 C-4.75 1.25 -4.75 1.25 -7 -1 C-3.51418144 -2.2020064 -3.32007656 -2.21338437 0 0 Z " fill="#D8E9ED" transform="translate(437,603)"/>
<path d="M0 0 C3.375 -0.1875 3.375 -0.1875 7 0 C7.66 0.99 8.32 1.98 9 3 C6 4 6 4 2.8125 2.5625 C1.884375 2.046875 0.95625 1.53125 0 1 C0 0.67 0 0.34 0 0 Z " fill="#DDECF0" transform="translate(174,602)"/>
<path d="M0 0 C0.99 0.66 1.98 1.32 3 2 C3 2.66 3 3.32 3 4 C2.34 4 1.68 4 1 4 C0.67 4.99 0.34 5.98 0 7 C-0.66 6.67 -1.32 6.34 -2 6 C-2 3.53721199 -1.14547137 2.14775881 0 0 Z " fill="#042E50" transform="translate(348,593)"/>
<path d="M0 0 C2.5 1.3125 2.5 1.3125 5 3 C5 3.99 5 4.98 5 6 C3.68 5.67 2.36 5.34 1 5 C0.67 3.35 0.34 1.7 0 0 Z " fill="#D7E7EE" transform="translate(850,422)"/>
<path d="M0 0 C1.32 0.66 2.64 1.32 4 2 C2.69593116 4.01920337 1.36176581 6.01924973 0 8 C-0.33 8 -0.66 8 -1 8 C-1.125 2.25 -1.125 2.25 0 0 Z " fill="#173C58" transform="translate(165,424)"/>
<path d="M0 0 C-1.125 1.5625 -1.125 1.5625 -3 3 C-6.1875 2.6875 -6.1875 2.6875 -9 2 C-5.945634 -1.054366 -3.9532319 -1.22686507 0 0 Z " fill="#D3E5ED" transform="translate(186,418)"/>
<path d="M0 0 C3.3 0.99 6.6 1.98 10 3 C10 3.33 10 3.66 10 4 C7.36 4 4.72 4 2 4 C2 3.34 2 2.68 2 2 C1.34 2 0.68 2 0 2 C0 1.34 0 0.68 0 0 Z " fill="#1F4159" transform="translate(688,348)"/>
<path d="M0 0 C-1.125 1.5625 -1.125 1.5625 -3 3 C-6.1875 2.6875 -6.1875 2.6875 -9 2 C-5.945634 -1.054366 -3.9532319 -1.22686507 0 0 Z " fill="#D3E5ED" transform="translate(442,162)"/>
<path d="M0 0 C2.31 0 4.62 0 7 0 C3.93882432 2.62386487 3.26826873 3 -1 3 C-0.67 2.01 -0.34 1.02 0 0 Z " fill="#DCEFF6" transform="translate(327,860)"/>
<path d="M0 0 C2.50298434 2.93828597 3.46930939 5.17902761 4 9 C3.34 9 2.68 9 2 9 C0.14223235 5.86501708 -0.20140476 3.62528568 0 0 Z " fill="#C2DBE4" transform="translate(347,687)"/>
<path d="M0 0 C0.66 0.33 1.32 0.66 2 1 C1 4 1 4 -1 5 C-1.33 5.99 -1.66 6.98 -2 8 C-2.66 8 -3.32 8 -4 8 C-2.25 2.25 -2.25 2.25 0 0 Z " fill="#D0DFE8" transform="translate(168,682)"/>
<path d="M0 0 C3.3 0 6.6 0 10 0 C10 0.99 10 1.98 10 3 C6.7 2.34 3.4 1.68 0 1 C0 0.67 0 0.34 0 0 Z " fill="#30536C" transform="translate(580,672)"/>
<path d="M0 0 C0 1.65 0 3.3 0 5 C-1.65 5 -3.3 5 -5 5 C-3.33333333 0 -3.33333333 0 0 0 Z " fill="#1E415A" transform="translate(343,599)"/>
<path d="M0 0 C0.99 0.33 1.98 0.66 3 1 C2.34 2.32 1.68 3.64 1 5 C0.01 5 -0.98 5 -2 5 C-1.34 3.35 -0.68 1.7 0 0 Z " fill="#062D4D" transform="translate(603,594)"/>
<path d="M0 0 C2.45823172 3.68734758 3.01242616 6.69699971 4 11 C3.01 10.67 2.02 10.34 1 10 C0.37542727 6.56484998 0 3.50935186 0 0 Z " fill="#436279" transform="translate(672,581)"/>
<path d="M0 0 C2.62187494 1.04874998 3.79371361 1.64931313 5.25 4.125 C5.4975 4.74375 5.745 5.3625 6 6 C5.34 6 4.68 6 4 6 C4 5.34 4 4.68 4 4 C2.68 3.67 1.36 3.34 0 3 C0 2.01 0 1.02 0 0 Z " fill="#D3E6ED" transform="translate(596,424)"/>
<path d="M0 0 C2.31 0.66 4.62 1.32 7 2 C6.67 2.66 6.34 3.32 6 4 C5.01 3.67 4.02 3.34 3 3 C2.67 3.66 2.34 4.32 2 5 C1.01 4.01 0.02 3.02 -1 2 C-0.67 1.34 -0.34 0.68 0 0 Z " fill="#173D5C" transform="translate(849,418)"/>
<path d="M0 0 C2.125 0.9375 2.125 0.9375 4 2 C3.67 2.66 3.34 3.32 3 4 C1.02 4 -0.96 4 -3 4 C-2.67 3.01 -2.34 2.02 -2 1 C-1.34 0.67 -0.68 0.34 0 0 Z " fill="#042B4A" transform="translate(852,346)"/>
<path d="M0 0 C1.39195915 4.17587745 -0.17676781 6.13474776 -2 10 C-2.33 10 -2.66 10 -3 10 C-2.25 3.375 -2.25 3.375 0 0 Z " fill="#D7ECF2" transform="translate(606,326)"/>
</svg>
