<?xml version="1.0" encoding="UTF-8"?>
<svg version="1.1" xmlns="http://www.w3.org/2000/svg" width="1024" height="1024">
<path d="M0 0 C337.92 0 675.84 0 1024 0 C1024 337.92 1024 675.84 1024 1024 C686.08 1024 348.16 1024 0 1024 C0 686.08 0 348.16 0 0 Z " fill="#02365E" transform="translate(0,0)"/>
<path d="M0 0 C1.74742493 -0.00639748 1.74742493 -0.00639748 3.53015137 -0.01292419 C5.44171272 -0.01224442 5.44171272 -0.01224442 7.39189148 -0.0115509 C8.75056551 -0.01454384 10.1092387 -0.01794668 11.46791077 -0.02172852 C15.15604737 -0.03055994 18.84416076 -0.03290629 22.53230691 -0.0335443 C24.83798924 -0.0342554 27.14366568 -0.03639086 29.44934654 -0.03904152 C37.49741871 -0.04829273 45.54547432 -0.05237676 53.59355164 -0.05158997 C61.08820915 -0.05098952 68.5827946 -0.06153545 76.07743388 -0.07733363 C82.51748915 -0.09042365 88.95752092 -0.09577323 95.39758939 -0.09513456 C99.24142724 -0.09487996 103.08520108 -0.09770984 106.92902565 -0.10831261 C110.5462997 -0.11801798 114.16344885 -0.11805611 117.78072739 -0.11079597 C119.7343176 -0.10925742 121.68790785 -0.11758021 123.64147949 -0.12623596 C135.12639147 -0.08518181 143.66414522 2.17493377 152.39067078 10.03215027 C157.96015485 16.19754621 160.40527998 23.61945248 160.42955017 31.78645325 C160.43526031 32.93865356 160.44097046 34.09085388 160.44685364 35.27796936 C160.44853043 37.16843491 160.44853043 37.16843491 160.45024109 39.09709167 C160.45487177 40.4410465 160.45989677 41.78500003 160.46528625 43.12895203 C160.47839166 46.77803007 160.48485205 50.42708972 160.48929691 54.07618761 C160.49223178 56.35911206 160.49633746 58.64203153 160.50080109 60.92495346 C160.51447364 68.07649862 160.52414041 75.22803235 160.52800298 82.37958968 C160.53247761 90.61801574 160.54999879 98.85627538 160.57900357 107.09465086 C160.60067426 113.47275777 160.61071019 119.85081805 160.6120441 126.22896135 C160.61308865 130.03325135 160.61892101 133.83738486 160.63686371 137.64163589 C160.65343698 141.22530991 160.6554555 144.80871141 160.6467247 148.39241028 C160.64559664 150.32038874 160.65924394 152.24835854 160.67347717 154.17628479 C160.61801098 165.82017336 158.34812651 175.39683319 150.28910828 184.13371277 C140.65540624 191.61800135 131.72599296 192.43275944 119.89335632 192.42424011 C118.53910453 192.4302319 117.18485615 192.43703893 115.83061218 192.44459534 C112.16723052 192.4621967 108.5039424 192.46694823 104.84052253 192.46822691 C102.54735652 192.46965243 100.254214 192.47392959 97.96105385 192.47922134 C89.94840114 192.49770239 81.9358148 192.5058944 73.92314148 192.50431824 C66.47440105 192.50311744 59.02595064 192.52421252 51.57728356 192.55580556 C45.16513584 192.58202537 38.75308252 192.59268315 32.34088165 192.59140742 C28.51871228 192.59089945 24.69680087 192.59649065 20.87468529 192.61776352 C17.27693989 192.63724256 13.67969599 192.63720534 10.08193207 192.62273026 C8.14682054 192.61966931 6.21170844 192.63625083 4.27667236 192.65361023 C-3.23656747 192.59988665 -8.98596997 191.49732281 -15.71089172 188.13371277 C-16.83931976 187.59735482 -16.83931976 187.59735482 -17.99054432 187.05016136 C-25.19420789 183.47108881 -28.07671255 176.52583138 -30.76939392 169.28881836 C-32.35391963 163.57095978 -32.00565629 157.62310484 -32.00141907 151.73796082 C-32.00741085 150.38370903 -32.01421789 149.02946064 -32.02177429 147.67521667 C-32.03937565 144.01183501 -32.04412719 140.34854689 -32.04540586 136.68512702 C-32.04683138 134.39196101 -32.05110855 132.09881849 -32.0564003 129.80565834 C-32.07488135 121.79300563 -32.08307335 113.78041929 -32.08149719 105.76774597 C-32.08029639 98.31900554 -32.10139147 90.87055513 -32.13298452 83.42188805 C-32.15920432 77.00974033 -32.1698621 70.59768701 -32.16858637 64.18548614 C-32.1680784 60.36331677 -32.1736696 56.54140536 -32.19494247 52.71928978 C-32.21442152 49.12154439 -32.21438429 45.52430048 -32.19990921 41.92653656 C-32.19684827 39.99142504 -32.21342979 38.05631294 -32.23078918 36.12127686 C-32.15904815 26.08829695 -29.62599013 15.83279035 -22.71089172 8.13371277 C-20.55464172 7.41886902 -20.55464172 7.41886902 -18.71089172 7.13371277 C-18.71089172 6.47371277 -18.71089172 5.81371277 -18.71089172 5.13371277 C-17.29611037 4.4837598 -15.87897685 3.83892554 -14.46089172 3.19621277 C-13.67198547 2.83656433 -12.88307922 2.47691589 -12.07026672 2.10636902 C-7.95305763 0.40904275 -4.45532191 0.00737603 0 0 Z " fill="#FEFEFE" transform="translate(447.7108917236328,415.8662872314453)"/>
<path d="M0 0 C1.33997665 -0.00571517 2.67994845 -0.01268383 4.01991272 -0.02079773 C7.63171972 -0.03862092 11.24328232 -0.03758104 14.85511994 -0.03185534 C17.88402895 -0.02874673 20.91289213 -0.03487463 23.94179457 -0.04089409 C31.09567588 -0.05490304 38.24943769 -0.05340929 45.40332031 -0.04199219 C52.75153782 -0.03052312 60.09938983 -0.04457435 67.44755918 -0.07138866 C73.78509245 -0.09363804 80.12251178 -0.10016212 86.46008128 -0.09431225 C90.23254352 -0.09096239 94.00477178 -0.0932245 97.7772007 -0.11056328 C101.32905597 -0.12617803 104.88037571 -0.12191887 108.43221092 -0.10325813 C110.33449547 -0.09789173 112.23680492 -0.11197639 114.13903809 -0.12695312 C125.52535302 -0.03080231 136.16554648 1.90618352 144.52807617 10.11499023 C149.88761098 16.65808898 152.51859508 23.67012272 152.54351807 32.05679321 C152.54922821 33.20899353 152.55493835 34.36119385 152.56082153 35.54830933 C152.56249832 37.43877487 152.56249832 37.43877487 152.56420898 39.36743164 C152.56883967 40.71138647 152.57386467 42.05533999 152.57925415 43.39929199 C152.59235956 47.04837003 152.59881994 50.69742968 152.60326481 54.34652758 C152.60619968 56.62945202 152.61030535 58.91237149 152.61476898 61.19529343 C152.62844153 68.34683859 152.63810831 75.49837232 152.64197087 82.64992964 C152.64644551 90.8883557 152.66396668 99.12661535 152.69297147 107.36499083 C152.71464215 113.74309773 152.72467809 120.12115801 152.72601199 126.49930131 C152.72705655 130.30359131 152.7328889 134.10772483 152.7508316 137.91197586 C152.76740488 141.49564988 152.7694234 145.07905137 152.7606926 148.66275024 C152.75956453 150.59072871 152.77321184 152.5186985 152.78744507 154.44662476 C152.73197888 166.09051333 150.4620944 175.66717316 142.40307617 184.40405273 C132.76937414 191.88834132 123.83996086 192.70309941 112.00732422 192.69458008 C110.65307243 192.70057186 109.29882404 192.7073789 107.94458008 192.7149353 C104.28119841 192.73253666 100.61791029 192.7372882 96.95449042 192.73856688 C94.66132442 192.73999239 92.3681819 192.74426956 90.07502174 192.74956131 C82.06236904 192.76804236 74.04978269 192.77623436 66.03710938 192.7746582 C58.58836894 192.7734574 51.13991854 192.79455249 43.69125146 192.82614553 C37.27910373 192.85236533 30.86705041 192.86302311 24.45484954 192.86174738 C20.63268017 192.86123941 16.81076876 192.86683062 12.98865318 192.88810349 C9.39090779 192.90758253 5.79366388 192.9075453 2.19589996 192.89307022 C0.26078844 192.89000928 -1.67432366 192.9065908 -3.60935974 192.9239502 C-11.13909976 192.87010863 -16.84618764 191.73180139 -23.59692383 188.40405273 C-24.33897725 188.077096 -25.08103067 187.75013927 -25.84557056 187.41327477 C-33.08618049 184.11116474 -35.66717748 176.31655572 -38.59692383 169.40405273 C-39.64008647 166.27456481 -39.73028941 164.07993161 -39.74409485 160.79563904 C-39.75125015 159.62798508 -39.75840546 158.46033112 -39.76577759 157.2572937 C-39.76846649 155.97468658 -39.7711554 154.69207947 -39.77392578 153.37060547 C-39.78019199 152.00709358 -39.78683893 150.64358339 -39.7938385 149.28007507 C-39.81487098 144.79927762 -39.82524336 140.31847987 -39.83520508 135.83764648 C-39.8392536 134.29287257 -39.84337055 132.74809883 -39.84755516 131.20332527 C-39.86660878 123.94178898 -39.88083678 116.68026284 -39.88916713 109.41870636 C-39.8989263 101.0506118 -39.92521035 92.6827827 -39.96566802 84.31478161 C-39.99589639 77.83903233 -40.01064254 71.36335882 -40.01394814 64.8875404 C-40.01629191 61.023936 -40.02516327 57.1606151 -40.05040932 53.29708672 C-40.07381175 49.65673773 -40.07787503 46.01685641 -40.06764793 42.37645149 C-40.06692201 40.41743061 -40.08592958 38.45843284 -40.10571289 36.49951172 C-40.04404014 25.95347204 -37.25596823 16.73715858 -30.59692383 8.40405273 C-22.30089819 0.23565826 -10.98001172 -0.04005439 0 0 Z " fill="#FEFEFE" transform="translate(199.596923828125,415.595947265625)"/>
<path d="M0 0 C1.35189751 -0.00515446 2.70378827 -0.01244713 4.05566406 -0.02168274 C7.68600874 -0.0400098 11.31560773 -0.02737948 14.94592023 -0.00759244 C18.76928716 0.00894871 22.59261254 -0.00003995 26.41600037 -0.00511169 C32.83197769 -0.00961502 39.2476618 0.00612843 45.66357422 0.03417969 C53.05223048 0.06623743 60.44035871 0.06620484 67.82905251 0.04896492 C74.97583779 0.0330325 82.12243185 0.03987543 89.26920891 0.05690193 C92.29325472 0.06372516 95.31714506 0.06278924 98.34118843 0.05535698 C101.90954148 0.04762453 105.47730259 0.06004312 109.04555511 0.08720589 C110.9587063 0.09723501 112.87192914 0.08798047 114.78507996 0.07788086 C125.47398365 0.19440039 135.38598249 2.03708584 143.27124023 9.70922852 C151.45163955 19.04741057 152.2533903 27.88166915 152.22949219 39.93505859 C152.23384488 41.27945742 152.23902988 42.62385376 152.24497986 43.96824646 C152.25832316 47.60477921 152.25895362 51.24120773 152.25641656 54.87776017 C152.25534339 57.92170435 152.2602392 60.96562774 152.26502198 64.00956744 C152.27610164 71.19633566 152.27656367 78.3830516 152.27050781 85.56982422 C152.26447259 92.96398628 152.27677102 100.35795784 152.29807788 107.75208741 C152.31574058 114.11752491 152.32168779 120.48290203 152.31844014 126.8483631 C152.31663411 130.64253561 152.31919474 134.43657229 152.33315468 138.23072243 C152.34580425 141.8021417 152.34372232 145.373266 152.33074379 148.94468117 C152.32728095 150.86546231 152.33850407 152.78625276 152.35031128 154.70700073 C152.28024701 166.34174297 149.9963334 175.89689067 141.95483398 184.63110352 C132.24063388 192.28855115 122.48374094 192.93032146 110.53735352 192.92163086 C109.1928063 192.92762466 107.8482625 192.93443215 106.50372314 192.94198608 C102.87139124 192.95956475 99.23915372 192.96433795 95.60678339 192.96561766 C93.33254053 192.96704422 91.05832129 192.97132329 88.78408432 192.97661209 C80.83626546 192.99508408 72.88851345 193.00328609 64.94067383 193.00170898 C57.55382766 193.00050772 50.16727373 193.02161417 42.78050148 193.05319631 C36.41928849 193.07941619 30.05817063 193.09007393 23.69690406 193.08879817 C19.90604785 193.08829029 16.11545176 193.09387633 12.32464981 193.11515427 C8.75725851 193.13463407 5.19037294 193.13459561 1.62296295 193.120121 C-0.29544042 193.11706054 -2.21384438 193.13364013 -4.13217163 193.15100098 C-11.63418986 193.09690301 -17.31789557 191.94135175 -24.04516602 188.63110352 C-24.78735823 188.30414679 -25.52955044 187.97719006 -26.29423332 187.64032555 C-33.53445218 184.33767746 -36.11542367 176.54359706 -39.04516602 169.63110352 C-40.08832866 166.50161559 -40.1785316 164.30698239 -40.19233704 161.02268982 C-40.19949234 159.85503586 -40.20664764 158.6873819 -40.21401978 157.48434448 C-40.21670868 156.20173737 -40.21939758 154.91913025 -40.22216797 153.59765625 C-40.22843417 152.23414436 -40.23508111 150.87063418 -40.24208069 149.50712585 C-40.26311316 145.0263284 -40.27348555 140.54553065 -40.28344727 136.06469727 C-40.28749579 134.51992335 -40.29161274 132.97514961 -40.29579735 131.43037605 C-40.31485097 124.16883976 -40.32907897 116.90731362 -40.33740932 109.64575714 C-40.34716849 101.27766258 -40.37345253 92.90983348 -40.41391021 84.54183239 C-40.44413858 78.06608311 -40.45888473 71.5904096 -40.46219033 65.11459118 C-40.4645341 61.25098678 -40.47340545 57.38766588 -40.4986515 53.5241375 C-40.52205394 49.88378851 -40.52611722 46.24390719 -40.51589012 42.60350227 C-40.5151642 40.64448139 -40.53417177 38.68548362 -40.55395508 36.7265625 C-40.49499161 26.64380863 -37.99768944 16.37184907 -31.04516602 8.63110352 C-28.88891602 7.91625977 -28.88891602 7.91625977 -27.04516602 7.63110352 C-27.04516602 6.97110352 -27.04516602 6.31110352 -27.04516602 5.63110352 C-17.82031803 1.42467358 -10.0938398 -0.09562702 0 0 Z " fill="#FDFEFE" transform="translate(200.045166015625,671.368896484375)"/>
<path d="M0 0 C1.72830048 -0.00856522 1.72830048 -0.00856522 3.49151611 -0.01730347 C4.75182648 -0.01842133 6.01213684 -0.01953918 7.31063843 -0.02069092 C8.65459326 -0.0253216 9.99854678 -0.0303466 11.34249878 -0.03573608 C14.99157682 -0.04884149 18.64063647 -0.05530188 22.28973436 -0.05974674 C24.57265881 -0.06268161 26.85557828 -0.06678729 29.13850021 -0.07125092 C36.29004538 -0.08492346 43.44157911 -0.09459024 50.59313643 -0.09845281 C58.83156249 -0.10292744 67.06982213 -0.12044862 75.30819762 -0.1494534 C81.68630452 -0.17112409 88.0643648 -0.18116002 94.4425081 -0.18249393 C98.2467981 -0.18353848 102.05093162 -0.18937083 105.85518265 -0.20731354 C109.43885667 -0.22388681 113.02225816 -0.22590533 116.60595703 -0.21717453 C118.53393549 -0.21604647 120.46190529 -0.22969377 122.38983154 -0.243927 C135.23242936 -0.1827507 144.80025325 2.88441368 154.15975952 11.82794189 C160.02592418 20.71099124 160.93065437 29.46261858 160.84896851 39.89849854 C160.85276117 41.24349022 160.85826896 42.58847798 160.86534119 43.93345642 C160.8791886 47.55336512 160.86820314 51.1727928 160.85162997 54.7926743 C160.83767509 58.59963464 160.84425123 62.40656999 160.84776306 66.21354675 C160.85045668 72.60274921 160.83706194 78.99176289 160.81381226 85.38092041 C160.78719641 92.74564818 160.7854622 100.11006079 160.79720062 107.4748202 C160.80801507 114.58954617 160.8017634 121.70415922 160.78764534 128.81887627 C160.78191838 131.8333856 160.78194206 134.84781141 160.78671074 137.86232185 C160.79151658 141.41741416 160.78123146 144.9721655 160.75975609 148.52719307 C160.75162459 150.43836977 160.75799945 152.34959136 160.76495361 154.26077271 C160.66580253 165.8630621 158.37679332 175.43552675 150.34725952 184.14044189 C140.71355748 191.62473048 131.78414421 192.43948857 119.95150757 192.43096924 C118.59725578 192.43696102 117.24300739 192.44376806 115.88876343 192.45132446 C112.22538176 192.46892582 108.56209364 192.47367736 104.89867377 192.47495604 C102.60550777 192.47638155 100.31236525 192.48065872 98.01920509 192.48595047 C90.00655239 192.50443152 81.99396604 192.51262352 73.98129272 192.51104736 C66.53255229 192.50984656 59.08410189 192.53094165 51.63543481 192.56253469 C45.22328708 192.58875449 38.81123376 192.59941227 32.39903289 192.59813654 C28.57686352 192.59762857 24.75495211 192.60321978 20.93283653 192.62449265 C17.33509114 192.64397169 13.73784723 192.64393446 10.14008331 192.62945938 C8.20497179 192.62639844 6.26985969 192.64297996 4.33482361 192.66033936 C-6.36032421 192.58386347 -15.93693982 189.92247261 -23.65274048 182.14044189 C-28.59878538 175.39183841 -31.89213619 168.65031461 -31.92016602 160.17126465 C-31.92869598 158.99948669 -31.93722595 157.82770874 -31.9460144 156.62042236 C-31.94465485 154.71269043 -31.94465485 154.71269043 -31.94326782 152.76641846 C-31.94925762 151.4024621 -31.9560642 150.03850911 -31.96362305 148.67456055 C-31.98124677 144.98012911 -31.98597695 141.2857904 -31.98725462 137.59132099 C-31.98867911 135.27923184 -31.99295439 132.96716604 -31.99824905 130.6550827 C-32.01673902 122.57759615 -32.02492117 114.50017547 -32.02334595 106.42266846 C-32.0221456 98.91203374 -32.0432295 91.40168688 -32.07483327 83.89112496 C-32.101053 77.42804251 -32.11171083 70.96505373 -32.11043513 64.50191855 C-32.10992706 60.64843601 -32.11552334 56.79520931 -32.13679123 52.94178009 C-32.15626953 49.31368058 -32.15623351 45.68607838 -32.14175797 42.05796051 C-32.13869654 40.10614083 -32.15527997 38.15432058 -32.17263794 36.20257568 C-32.10126519 26.13721838 -29.59248378 15.86695842 -22.65274048 8.14044189 C-20.49649048 7.42559814 -20.49649048 7.42559814 -18.65274048 7.14044189 C-18.65274048 6.48044189 -18.65274048 5.82044189 -18.65274048 5.14044189 C-17.23795913 4.49048892 -15.82082561 3.84565467 -14.40274048 3.20294189 C-13.61383423 2.84329346 -12.82492798 2.48364502 -12.01211548 2.11309814 C-7.91705826 0.42490403 -4.43068075 0.01316682 0 0 Z " fill="#FEFEFE" transform="translate(447.6527404785156,159.85955810546875)"/>
<path d="M0 0 C1.74714546 -0.0129007 1.74714546 -0.0129007 3.52958679 -0.02606201 C4.80905182 -0.03032196 6.08851685 -0.03458191 7.40675354 -0.03897095 C8.76702076 -0.04687439 10.12728589 -0.0551435 11.48754883 -0.06375122 C15.958725 -0.08995918 20.42991043 -0.10528486 24.90113831 -0.11953735 C26.44339058 -0.12489891 27.98564281 -0.13027642 29.52789497 -0.13566971 C35.94888594 -0.15730308 42.36987441 -0.17603505 48.7908926 -0.1872921 C57.97299628 -0.20349801 67.15467454 -0.23658818 76.33661789 -0.29369295 C82.80220511 -0.33252168 89.26767922 -0.35194042 95.7333799 -0.35721266 C99.58929704 -0.36085059 103.44476035 -0.37270254 107.30055046 -0.4053154 C110.93605152 -0.4356223 114.57082964 -0.44162877 118.20643044 -0.42993164 C120.15793809 -0.4296093 122.10940263 -0.45392751 124.06074524 -0.47930908 C134.96650982 -0.40308339 144.66862832 2.47617972 152.71754456 10.12265015 C158.02477222 16.51097974 160.51740479 23.63460221 160.55221558 31.83787537 C160.56294853 33.57662933 160.56294853 33.57662933 160.57389832 35.35050964 C160.57658722 36.6185997 160.57927612 37.88668976 160.58204651 39.19320679 C160.58831482 40.54539157 160.59496195 41.89757465 160.60195923 43.24975586 C160.62296559 47.68784392 160.63336125 52.12593218 160.64332581 56.5640564 C160.64737522 58.09549922 160.6514922 59.62694186 160.65567589 61.15838432 C160.67472331 68.35744871 160.68895295 75.5565029 160.69728786 82.75558764 C160.70704645 91.04612258 160.73333157 99.33638956 160.77378875 107.62683016 C160.80403362 114.04656474 160.8187648 120.46622288 160.82206887 126.88602728 C160.82441063 130.71443838 160.83325556 134.54256308 160.85853004 138.37089729 C160.8819618 141.97843278 160.88598422 145.58549641 160.87576866 149.19308853 C160.87504411 151.13163064 160.89403049 153.0701496 160.91383362 155.0085907 C160.85390435 165.18326873 158.77241376 174.32679459 152.23316956 182.3687439 C142.69502649 191.68269984 131.62714315 192.45362236 118.98756409 192.44442749 C117.64301687 192.45042129 116.29847307 192.45722878 114.95393372 192.46478271 C111.32160181 192.48236138 107.6893643 192.48713458 104.05699396 192.48841429 C101.7827511 192.48984085 99.50853186 192.49411992 97.23429489 192.49940872 C89.28647603 192.51788072 81.33872402 192.52608272 73.3908844 192.52450562 C66.00403823 192.52330435 58.6174843 192.5444108 51.23071206 192.57599294 C44.86949906 192.60221282 38.5083812 192.61287056 32.14711463 192.6115948 C28.35625842 192.61108692 24.56566234 192.61667296 20.77486038 192.6379509 C17.20746908 192.6574307 13.64058351 192.65739224 10.07317352 192.64291763 C8.15477016 192.63985718 6.23636619 192.65643676 4.31803894 192.67379761 C-6.35274028 192.59684931 -15.8942495 189.90418145 -23.59495544 182.15390015 C-30.92758255 172.29559038 -31.89411267 163.74434075 -31.88548279 151.75814819 C-31.89147457 150.4038964 -31.89828161 149.04964802 -31.90583801 147.69540405 C-31.92343937 144.03202239 -31.92819091 140.36873427 -31.92946959 136.7053144 C-31.9308951 134.41214839 -31.93517227 132.11900587 -31.94046402 129.82584572 C-31.95894507 121.81319301 -31.96713707 113.80060667 -31.96556091 105.78793335 C-31.96436011 98.33919292 -31.9854552 90.89074251 -32.01704824 83.44207543 C-32.04326804 77.02992771 -32.05392582 70.61787439 -32.05265009 64.20567352 C-32.05214212 60.38350415 -32.05773333 56.56159274 -32.0790062 52.73947716 C-32.09848524 49.14173176 -32.09844801 45.54448786 -32.08397293 41.94672394 C-32.08091199 40.01161241 -32.09749351 38.07650031 -32.11485291 36.14146423 C-32.03972319 25.63457746 -29.20969814 16.46571969 -22.59495544 8.15390015 C-16.34056165 3.01139859 -8.05614434 0.04426897 0 0 Z " fill="#FEFEFE" transform="translate(703.5949554443359,415.8460998535156)"/>
<path d="M0 0 C1.15082565 -0.00571014 2.30165131 -0.01142029 3.48735046 -0.01730347 C4.7512561 -0.01842133 6.01516174 -0.01953918 7.31736755 -0.02069092 C8.66117489 -0.02532012 10.00498091 -0.03034492 11.3487854 -0.03573608 C15.00205475 -0.04885757 18.65530571 -0.05530526 22.30859494 -0.05974674 C24.59369163 -0.0626796 26.87878332 -0.06678495 29.16387749 -0.07125092 C36.32076544 -0.084929 43.47764193 -0.09459251 50.63454205 -0.09845281 C58.88146819 -0.10292588 67.12822796 -0.1204374 75.37510353 -0.1494534 C81.75743652 -0.17112483 88.13972292 -0.18116009 94.52209228 -0.18249393 C98.32975057 -0.18353862 102.13725253 -0.18937376 105.9448719 -0.20731354 C109.53263645 -0.22388759 113.12012879 -0.22590495 116.70791817 -0.21717453 C118.6382916 -0.21604643 120.56865637 -0.229694 122.49897766 -0.243927 C135.34673759 -0.18280167 144.91637196 2.88046168 154.28001404 11.82794189 C160.15993168 20.73181718 161.0532308 29.51476436 160.98509216 39.97442627 C160.99052606 41.32764942 160.99765577 42.68086664 161.0063324 44.03407288 C161.02441855 47.6767562 161.01755999 51.31898149 161.00481606 54.96167183 C160.99461132 58.79353089 161.0041023 62.62535358 161.01036072 66.45721436 C161.01761556 72.889292 161.00810659 79.32118528 160.98899841 85.75323486 C160.96723371 93.16457761 160.97428663 100.57548003 160.99630404 107.98681211 C161.01452007 114.3769999 161.01698622 120.76705598 161.00654936 127.15726137 C161.00034833 130.96204617 160.99938433 134.76662474 161.01269531 138.57139587 C161.02434421 142.15036576 161.0160659 145.72877403 160.99311829 149.30768394 C160.98540154 151.22941209 160.99710952 153.15118837 161.0096283 155.07289124 C160.91185161 165.20478162 158.80677896 174.34789892 152.29563904 182.35528564 C142.75749597 191.66924159 131.68961263 192.44016411 119.05003357 192.43096924 C117.70548635 192.43696304 116.36094256 192.44377053 115.0164032 192.45132446 C111.3840713 192.46890313 107.75183378 192.47367633 104.11946344 192.47495604 C101.84522058 192.4763826 99.57100134 192.48066167 97.29676437 192.48595047 C89.34894551 192.50442246 81.4011935 192.51262447 73.45335388 192.51104736 C66.06650771 192.5098461 58.67995378 192.53095255 51.29318154 192.56253469 C44.93196854 192.58875457 38.57085069 192.5994123 32.20958412 192.59813654 C28.41872791 192.59762867 24.62813182 192.60321471 20.83732986 192.62449265 C17.26993856 192.64397245 13.703053 192.64393399 10.13564301 192.62945938 C8.21723964 192.62639892 6.29883568 192.64297851 4.38050842 192.66033936 C-3.10519077 192.60635906 -8.83084428 191.48642808 -15.53248596 188.14044189 C-16.28491011 187.78286993 -17.03733425 187.42529797 -17.81255913 187.05689049 C-25.01581096 183.47725843 -27.89829993 176.53257893 -30.59098816 169.29554749 C-32.17551386 163.5776889 -31.82725052 157.62983396 -31.82301331 151.74468994 C-31.82900509 150.39043815 -31.83581213 149.03618976 -31.84336853 147.6819458 C-31.86096989 144.01856413 -31.86572143 140.35527602 -31.8670001 136.69185615 C-31.86842562 134.39869014 -31.87270278 132.10554762 -31.87799454 129.81238747 C-31.89647559 121.79973476 -31.90466759 113.78714841 -31.90309143 105.7744751 C-31.90189063 98.32573466 -31.92298571 90.87728426 -31.95457876 83.42861718 C-31.98079856 77.01646946 -31.99145634 70.60441613 -31.99018061 64.19221526 C-31.98967264 60.3700459 -31.99526384 56.54813449 -32.01653671 52.72601891 C-32.03601576 49.12827351 -32.03597853 45.5310296 -32.02150345 41.93326569 C-32.01844251 39.99815416 -32.03502403 38.06304206 -32.05238342 36.12800598 C-31.9772537 25.62111921 -29.14722866 16.45226143 -22.53248596 8.14044189 C-16.30510189 3.02014833 -8.02694231 0.02383203 0 0 Z " fill="#FEFEFE" transform="translate(447.53248596191406,671.8595581054688)"/>
<path d="M0 0 C1.1424115 -0.00571014 2.284823 -0.01142029 3.46185303 -0.01730347 C5.34368538 -0.01898026 5.34368538 -0.01898026 7.26353455 -0.02069092 C8.5974898 -0.02532016 9.93144373 -0.03034496 11.26539612 -0.03573608 C14.89180681 -0.04885728 18.51819899 -0.05530521 22.14462972 -0.05974674 C24.41297545 -0.06267967 26.68131615 -0.06678503 28.94965935 -0.07125092 C36.05422157 -0.08492896 43.15877226 -0.09459248 50.26334673 -0.09845281 C58.44971287 -0.10292578 66.63591139 -0.12043688 74.82222658 -0.1494534 C81.15785086 -0.17112568 87.49342819 -0.18116014 93.82908911 -0.18249393 C97.6088022 -0.18353857 101.38835781 -0.18937252 105.16803169 -0.20731354 C108.72953202 -0.22388905 112.29075813 -0.22590426 115.85228348 -0.21717453 C117.76834368 -0.21604658 119.68439517 -0.22969304 121.60040283 -0.243927 C133.63396721 -0.18626083 142.18475402 2.44443135 151.50547791 10.14044189 C157.68421458 16.47760771 159.61579952 24.29456178 159.65264893 32.90670776 C159.66338188 34.6349025 159.66338188 34.6349025 159.67433167 36.39801025 C159.67702057 37.6531543 159.67970947 38.90829834 159.68247986 40.20147705 C159.68875024 41.54395725 159.69539755 42.88643573 159.70239258 44.22891235 C159.7233707 48.62909756 159.73379054 53.02928285 159.74375916 57.42950439 C159.74780934 58.94887688 159.75192634 60.46824918 159.75610924 61.98762131 C159.77514884 69.12901716 159.78938127 76.27040277 159.79772121 83.4118191 C159.80748302 91.63329431 159.83377991 99.85449954 159.8742221 108.07587969 C159.90446721 114.44467945 159.91919809 120.81340218 159.92250222 127.18227232 C159.92484352 130.97937041 159.93368281 134.77617969 159.95896339 138.57320023 C159.98239632 142.15038143 159.98641713 145.72708677 159.97620201 149.3043251 C159.97547759 151.2261592 159.99446204 153.14796996 160.01426697 155.06970215 C159.95119551 165.68830197 157.58241561 174.83204514 150.70079041 183.12872314 C143.70194428 189.54225652 135.04577617 192.24781521 125.73248291 192.28761292 C124.00212044 192.29834587 124.00212044 192.29834587 122.23680115 192.30929565 C120.35172852 192.31332901 120.35172852 192.31332901 118.42857361 192.31744385 C117.08447089 192.32371416 115.74036989 192.33036146 114.39627075 192.33735657 C109.99127901 192.35833302 105.58628719 192.36875338 101.18125916 192.37872314 C99.66062591 192.38277319 98.13999285 192.38689018 96.61935997 192.39107323 C89.47316076 192.41011131 82.32697178 192.42434487 75.1807521 192.4326852 C66.95077703 192.44245082 58.72107139 192.46875833 50.49119121 192.50918609 C44.11731157 192.53941468 37.74350888 192.55416046 31.36955899 192.55746621 C27.56858062 192.55980911 23.76789054 192.56866965 19.96698952 192.59392738 C16.38734911 192.61733167 12.80818431 192.62139241 9.22848701 192.611166 C7.30288217 192.61044031 5.3773008 192.62944439 3.45179749 192.64923096 C-7.23671604 192.58566949 -16.78032771 189.90429848 -24.49452209 182.14044189 C-31.81584569 172.29732906 -32.7945838 163.74440557 -32.80091858 151.77642822 C-32.80854972 150.4254206 -32.81697885 149.07441729 -32.82614136 147.72341919 C-32.84800227 144.06817734 -32.85687415 140.4130191 -32.8619678 136.75771928 C-32.8656221 134.46855776 -32.87186775 132.17941777 -32.87896919 129.89026451 C-32.90343686 121.88827944 -32.91650926 113.88635893 -32.9200592 105.88433838 C-32.92368989 98.45148376 -32.95355835 91.01904319 -32.99546379 83.58631498 C-33.03027918 77.18432656 -33.0456096 70.78247459 -33.04630524 64.38039225 C-33.0470944 60.56591424 -33.05566441 56.75185833 -33.0843029 52.93747902 C-33.11067702 49.34457544 -33.11258301 45.7524381 -33.09664726 42.15948105 C-33.09399791 40.23188665 -33.11588515 38.30430585 -33.13883972 36.37684631 C-33.05320014 26.0622896 -30.22481086 16.1733672 -23.49452209 8.14044189 C-21.24452209 7.26544189 -21.24452209 7.26544189 -19.49452209 7.14044189 C-19.49452209 6.48044189 -19.49452209 5.82044189 -19.49452209 5.14044189 C-17.72387098 4.49410915 -15.95299456 3.8483936 -14.18202209 3.20294189 C-13.19588928 2.84329346 -12.20975647 2.48364502 -11.19374084 2.11309814 C-7.21258024 0.67849758 -4.22621846 0.0126407 0 0 Z " fill="#FEFEFE" transform="translate(704.4945220947266,159.85955810546875)"/>
<path d="M0 0 C0.33 0 0.66 0 1 0 C1.06993164 0.67466309 1.13986328 1.34932617 1.21191406 2.04443359 C1.54307705 5.15640734 1.89639907 8.26549903 2.25 11.375 C2.41435547 12.96634766 2.41435547 12.96634766 2.58203125 14.58984375 C3.62418972 23.5304664 5.85589176 31.48163699 11.0625 38.9375 C11.54847656 39.64777344 12.03445313 40.35804688 12.53515625 41.08984375 C13.94926106 43.03085507 13.94926106 43.03085507 15.68359375 44.62890625 C17 46 17 46 17 48 C18.485 48.495 18.485 48.495 20 49 C21.14464637 50.17831244 22.28876261 51.35714629 23.4296875 52.5390625 C34.29739527 62.6498155 46.85217559 64.98542306 61 67 C61 67.33 61 67.66 61 68 C40.87 68 20.74 68 0 68 C0 45.56 0 23.12 0 0 Z " fill="#F3F8FA" transform="translate(0,956)"/>
<path d="M0 0 C0.33 0 0.66 0 1 0 C1 20.46 1 40.92 1 62 C-16.49 62 -33.98 62 -52 62 C-49.47925268 59.47925268 -47.56174003 59.2231949 -44.125 58.3125 C-33.63109413 55.1782582 -25.30527052 50.11696725 -18 42 C-17.175 41.2575 -16.35 40.515 -15.5 39.75 C-5.02321282 28.22553411 -1.70117244 15.1314812 0 0 Z " fill="#F5FAFB" transform="translate(1023,962)"/>
<path d="M0 0 C19.14 0 38.28 0 58 0 C58 0.33 58 0.66 58 1 C57.29617187 1.07476562 56.59234375 1.14953125 55.8671875 1.2265625 C41.02448583 3.2030058 26.28418861 9.8757289 16.7578125 21.80859375 C16.17773438 22.53175781 15.59765625 23.25492188 15 24 C14.34 24 13.68 24 13 24 C12.731875 24.54140625 12.46375 25.0828125 12.1875 25.640625 C11.32875309 27.34681952 10.45133359 29.04365892 9.5625 30.734375 C3.84927819 41.76089309 2.3854711 51.85501929 1 64 C0.67 64 0.34 64 0 64 C0 42.88 0 21.76 0 0 Z " fill="#F6FAFB" transform="translate(0,0)"/>
<path d="M0 0 C21.12 0 42.24 0 64 0 C64 17.49 64 34.98 64 53 C63.67 53 63.34 53 63 53 C62.79246094 52.21238281 62.58492187 51.42476562 62.37109375 50.61328125 C57.02581302 31.71469456 47.04441959 17.83644565 30 8 C22.45183631 3.91187047 15.73119949 2.42159731 7.25561523 2.27612305 C2.17920927 2.17920927 2.17920927 2.17920927 0 0 Z " fill="#FAFCFC" transform="translate(960,0)"/>
<path d="M0 0 C10.23 0 20.46 0 31 0 C31 0.33 31 0.66 31 1 C33.97 1 36.94 1 40 1 C40 0.67 40 0.34 40 0 C49.9 0 59.8 0 70 0 C70 0.33 70 0.66 70 1 C70.84183838 1.02505615 71.68367676 1.0501123 72.55102539 1.07592773 C75.70266144 1.17160279 78.85416226 1.27080076 82.00561523 1.37231445 C83.3642958 1.41537294 84.72302041 1.45706565 86.08178711 1.49731445 C88.04552303 1.55572893 90.00909364 1.61961803 91.97265625 1.68359375 C93.74008179 1.73858032 93.74008179 1.73858032 95.54321289 1.79467773 C99.07288765 2.0043293 102.50818611 2.4521498 106 3 C102.68838353 5.20774431 101.7046354 5.24816843 97.85578918 5.24050903 C96.79148178 5.24325836 95.72717438 5.24600769 94.63061523 5.24884033 C92.87950439 5.2380545 92.87950439 5.2380545 91.09301758 5.22705078 C89.24893562 5.22748886 89.24893562 5.22748886 87.36759949 5.22793579 C83.99588803 5.22678029 80.62442077 5.2167424 77.25275254 5.20278788 C73.72935596 5.19029454 70.20595621 5.18911112 66.68254089 5.18673706 C60.01024113 5.18051818 53.33800683 5.16410185 46.6657359 5.14403808 C39.06968948 5.12169177 31.47363995 5.11068885 23.87756884 5.10064721 C8.25167464 5.07973596 -7.37415424 5.04455208 -23 5 C-22.67 4.34 -22.34 3.68 -22 3 C-17.50651447 1.61269087 -12.84090843 1.88679228 -8.1875 1.9375 C-7.00510742 1.94426758 -7.00510742 1.94426758 -5.79882812 1.95117188 C-3.86585239 1.96288688 -1.93291607 1.98082002 0 2 C0 1.34 0 0.68 0 0 Z " fill="#022C55" transform="translate(473,154)"/>
<path d="M0 0 C9.18815053 -0.04633899 18.37626083 -0.08187715 27.56450272 -0.10362434 C31.83096697 -0.11406186 36.09735128 -0.12822048 40.36376953 -0.15087891 C44.48104386 -0.17260842 48.59824129 -0.18456887 52.71556854 -0.18975449 C54.28644776 -0.19345005 55.85732277 -0.20066652 57.42816925 -0.21146011 C59.62831216 -0.22597658 61.82813722 -0.22797789 64.02832031 -0.22705078 C65.28074524 -0.231492 66.53317017 -0.23593323 67.82354736 -0.24050903 C70.82159813 -0.01350792 72.48812257 0.41700463 75 2 C71.49356462 3.16881179 68.75098532 3.11998427 65.05004883 3.11352539 C63.99600609 3.11374443 63.99600609 3.11374443 62.92066956 3.1139679 C60.59942532 3.11327157 58.27826146 3.10549226 55.95703125 3.09765625 C54.3470616 3.09579108 52.73709139 3.09436764 51.12712097 3.09336853 C46.89057853 3.08955118 42.6540704 3.07972755 38.4175415 3.06866455 C34.09412093 3.05843364 29.77069481 3.05386731 25.44726562 3.04882812 C16.96482801 3.03810459 8.48241827 3.02103753 0 3 C0 2.01 0 1.02 0 0 Z " fill="#022B53" transform="translate(760,156)"/>
<path d="M0 0 C0.33 1.32 0.66 2.64 1 4 C1.66 4 2.32 4 3 4 C3 4.99 3 5.98 3 7 C1.02 7.99 1.02 7.99 -1 9 C-1.33 54.54 -1.66 100.08 -2 147 C-2.33 147 -2.66 147 -3 147 C-3.07014975 129.01484019 -3.12301737 111.029716 -3.15543652 93.04444885 C-3.17089086 84.6931602 -3.19195293 76.34195667 -3.22631836 67.99072266 C-3.25626465 60.70991075 -3.27558541 53.42916051 -3.28226548 46.14828873 C-3.28616891 42.29480606 -3.29531244 38.44149975 -3.31719017 34.58807373 C-3.33763811 30.95687119 -3.34381715 27.32591674 -3.33932304 23.69466209 C-3.34053458 21.73523663 -3.3566331 19.77583783 -3.3732605 17.81648254 C-3.34996956 11.14904591 -2.84840702 6.05957744 0 0 Z " fill="#E1EFFA" transform="translate(419,690)"/>
<path d="M0 0 C-7.72596605 3.13975604 -14.49784769 3.41107193 -22.78149414 3.34057617 C-24.15226218 3.33972844 -25.52303158 3.3402079 -26.89379883 3.34190369 C-30.58955048 3.34275936 -34.28500604 3.32520375 -37.98068929 3.30418181 C-41.85238063 3.28534296 -45.72407983 3.28365892 -49.59580994 3.28010559 C-56.91605564 3.27080619 -64.23616586 3.24622115 -71.55635208 3.21605712 C-79.89495613 3.18244729 -88.23356688 3.1660106 -96.57222188 3.15097082 C-113.71489276 3.11966954 -130.85743202 3.06695033 -148 3 C-148 2.67 -148 2.34 -148 2 C-147.30516793 1.99576806 -146.61033587 1.99153612 -145.89444828 1.98717594 C-129.01171542 1.88400999 -112.12902741 1.77539363 -95.24636936 1.66066074 C-87.08214838 1.60530986 -78.91792303 1.55182486 -70.75366211 1.50268555 C-63.64025973 1.45986649 -56.52688978 1.41359435 -49.41353744 1.36312145 C-45.64476181 1.33650208 -41.87599269 1.31164864 -38.10717964 1.29092598 C-33.90677217 1.26776567 -29.70645615 1.23689831 -25.50610352 1.20532227 C-23.61797188 1.19668907 -23.61797188 1.19668907 -21.69169617 1.18788147 C-20.55441071 1.17809265 -19.41712524 1.16830383 -18.24537659 1.15821838 C-16.75345464 1.14853956 -16.75345464 1.14853956 -15.23139286 1.1386652 C-13.02823098 1.24886043 -13.02823098 1.24886043 -12 0 C-7.51079204 -0.73593573 -4.38677368 -1.18654404 0 0 Z " fill="#DCEEF7" transform="translate(590,605)"/>
<path d="M0 0 C0.33 0 0.66 0 1 0 C0.85950482 1.47968324 0.71245174 2.95874516 0.5625 4.4375 C0.48128906 5.26121094 0.40007813 6.08492188 0.31640625 6.93359375 C0 9 0 9 -1 10 C-1.10854981 11.77122886 -1.14687445 13.54678859 -1.15821838 15.32130432 C-1.1680072 16.47541809 -1.17779602 17.62953186 -1.18788147 18.81861877 C-1.19363693 20.09607468 -1.1993924 21.37353058 -1.20532227 22.68969727 C-1.21489564 24.03958439 -1.22490539 25.38946848 -1.23532104 26.73934937 C-1.26243483 30.41477343 -1.28340921 34.09021042 -1.30332303 37.7656796 C-1.3251428 41.60275729 -1.35255104 45.43979485 -1.37937927 49.27684021 C-1.42936054 56.54768307 -1.47427913 63.81854814 -1.51740164 71.08943456 C-1.56672767 79.36502202 -1.62166293 87.64056923 -1.67708123 95.91611779 C-1.79098466 112.94404134 -1.8978054 129.97200223 -2 147 C-2.33 147 -2.66 147 -3 147 C-3.07014975 129.01484019 -3.12301737 111.029716 -3.15543652 93.04444885 C-3.17089086 84.6931602 -3.19195293 76.34195667 -3.22631836 67.99072266 C-3.25626465 60.70991075 -3.27558541 53.42916051 -3.28226548 46.14828873 C-3.28616891 42.29480606 -3.29531244 38.44149975 -3.31719017 34.58807373 C-3.33763811 30.95687119 -3.34381715 27.32591674 -3.33932304 23.69466209 C-3.34053458 21.73523663 -3.3566331 19.77583783 -3.3732605 17.81648254 C-3.34996956 11.14904591 -2.84840702 6.05957744 0 0 Z " fill="#E2EFFA" transform="translate(675,434)"/>
<path d="M0 0 C3.0077506 4.5116259 3.12510477 8.50985587 3.12025452 13.84028625 C3.12162918 15.00831284 3.12300385 16.17633942 3.12442017 17.37976074 C3.12082489 18.65218628 3.11722961 19.92461182 3.11352539 21.2355957 C3.11324316 22.59592181 3.11340195 23.95624808 3.1139679 25.3165741 C3.11425448 29.00212428 3.10838016 32.68764183 3.10139394 36.37318444 C3.09513732 40.22756296 3.09455477 44.08194226 3.09336853 47.93632507 C3.09026202 55.23185503 3.0820578 62.52736997 3.07201904 69.82289332 C3.06083678 78.12998337 3.05534213 86.43707413 3.05032361 94.74416983 C3.03987463 111.82945523 3.02228835 128.91472603 3 146 C2.67 146 2.34 146 2 146 C1.67 101.45 1.34 56.9 1 11 C0.67 11 0.34 11 0 11 C0 7.37 0 3.74 0 0 Z " fill="#EBF8FD" transform="translate(861,179)"/>
<path d="M0 0 C0.33 0 0.66 0 1 0 C1.25 5.625 1.25 5.625 -1 9 C-1.31226686 11.61121601 -1.31226686 11.61121601 -1.2784729 14.59977722 C-1.28963638 15.76505447 -1.30079987 16.93033173 -1.31230164 18.13092041 C-1.31446182 19.4105365 -1.31662201 20.69015259 -1.31884766 22.00854492 C-1.32814503 23.36858212 -1.33831341 24.72861361 -1.34928894 26.08863831 C-1.3766247 29.78254558 -1.39174887 33.47641466 -1.40471697 37.17039657 C-1.42033191 41.03017171 -1.44712732 44.88986865 -1.4727478 48.74958801 C-1.51956464 56.05931438 -1.55629465 63.36905541 -1.58942068 70.67885524 C-1.62762158 79.00045924 -1.67703703 87.32198475 -1.72740483 95.64352262 C-1.83076787 112.76229166 -1.92001402 129.8811061 -2 147 C-2.33 147 -2.66 147 -3 147 C-3.07014975 129.01484019 -3.12301737 111.029716 -3.15543652 93.04444885 C-3.17089086 84.6931602 -3.19195293 76.34195667 -3.22631836 67.99072266 C-3.25626465 60.70991075 -3.27558541 53.42916051 -3.28226548 46.14828873 C-3.28616891 42.29480606 -3.29531244 38.44149975 -3.31719017 34.58807373 C-3.33763811 30.95687119 -3.34381715 27.32591674 -3.33932304 23.69466209 C-3.34053458 21.73523663 -3.3566331 19.77583783 -3.3732605 17.81648254 C-3.34996956 11.14904591 -2.84840702 6.05957744 0 0 Z " fill="#DFEEF8" transform="translate(675,178)"/>
<path d="M0 0 C0 0.66 0 1.32 0 2 C0.56388428 1.67547852 1.12776855 1.35095703 1.70874023 1.01660156 C4.23032605 -0.10219261 5.91628007 -0.25786689 8.66015625 -0.265625 C9.9740332 -0.26949219 9.9740332 -0.26949219 11.31445312 -0.2734375 C12.22130859 -0.26570313 13.12816406 -0.25796875 14.0625 -0.25 C14.97322266 -0.25773437 15.88394531 -0.26546875 16.82226562 -0.2734375 C17.69689453 -0.27085937 18.57152344 -0.26828125 19.47265625 -0.265625 C20.26937744 -0.26336914 21.06609863 -0.26111328 21.88696289 -0.25878906 C24 0 24 0 27 2 C24.2095846 2.93013847 22.53505852 3.12641823 19.65332031 3.12939453 C18.33071953 3.13406235 18.33071953 3.13406235 16.98139954 3.13882446 C16.02331894 3.13684052 15.06523834 3.13485657 14.078125 3.1328125 C13.07730392 3.13413177 12.07648285 3.13545105 11.04533386 3.1368103 C7.78019136 3.13873095 4.51513382 3.13238509 1.25 3.125 C-0.4040535 3.12367065 -0.4040535 3.12367065 -2.09152222 3.12231445 C-20.0783966 3.10527165 -38.03033086 2.79761487 -56 2 C-56 1.67 -56 1.34 -56 1 C-37.32707301 0.32954349 -18.68835554 -0.1749342 0 0 Z " fill="#022B57" transform="translate(808,412)"/>
<path d="M0 0 C21.12 0 42.24 0 64 0 C64 0.99 64 1.98 64 3 C42.88 3 21.76 3 0 3 C0 2.01 0 1.02 0 0 Z " fill="#012A51" transform="translate(200,412)"/>
<path d="M0 0 C0.33 0 0.66 0 1 0 C1 7.92 1 15.84 1 24 C1.66 24.33 2.32 24.66 3 25 C2.34 29.95 1.68 34.9 1 40 C1.99 40.33 2.98 40.66 4 41 C4.02693575 43.12493141 4.04636628 45.24995912 4.0625 47.375 C4.07410156 48.55835938 4.08570313 49.74171875 4.09765625 50.9609375 C4 54 4 54 3 56 C2.60772162 58.70872518 2.25430502 61.40751693 1.9375 64.125 C1.80118164 65.25615234 1.80118164 65.25615234 1.66210938 66.41015625 C1.43809148 68.27304188 1.21861427 70.13647252 1 72 C0.67 72 0.34 72 0 72 C0 48.24 0 24.48 0 0 Z " fill="#042E51" transform="translate(609,488)"/>
<path d="M0 0 C2 2 2 2 2.22705078 5.16455078 C2.22673389 6.50817963 2.21542181 7.8518341 2.1953125 9.1953125 C2.1924826 9.90275604 2.18965271 10.61019958 2.18673706 11.33908081 C2.17553137 13.6012251 2.15042679 15.86297515 2.125 18.125 C2.11497067 19.65754637 2.10584474 21.19009894 2.09765625 22.72265625 C2.07559086 26.48192301 2.04105896 30.24089464 2 34 C2.66 34 3.32 34 4 34 C4.02692484 36.29160319 4.04636124 38.58329546 4.0625 40.875 C4.07410156 42.15117188 4.08570313 43.42734375 4.09765625 44.7421875 C4 48 4 48 3 50 C2.76827173 52.54615009 2.58105471 55.07396225 2.4375 57.625 C2.39431641 58.33140625 2.35113281 59.0378125 2.30664062 59.765625 C2.20055249 61.51018537 2.09977111 63.25506697 2 65 C1.34 65 0.68 65 0 65 C0 43.55 0 22.1 0 0 Z " fill="#042E50" transform="translate(353,495)"/>
<path d="M0 0 C0.33 0 0.66 0 1 0 C1.33 13.53 1.66 27.06 2 41 C2.66 41.33 3.32 41.66 4 42 C4.02694851 43.95825873 4.04637218 45.91662226 4.0625 47.875 C4.07410156 48.96554687 4.08570313 50.05609375 4.09765625 51.1796875 C4 54 4 54 3 56 C2.60772162 58.70872518 2.25430502 61.40751693 1.9375 64.125 C1.80118164 65.25615234 1.80118164 65.25615234 1.66210938 66.41015625 C1.43809148 68.27304188 1.21861427 70.13647252 1 72 C0.67 72 0.34 72 0 72 C0 48.24 0 24.48 0 0 Z " fill="#042F50" transform="translate(353,744)"/>
<path d="M0 0 C4.65285685 0.50067847 7.69503896 2.59707123 11.3125 5.375 C12.13717773 5.97441406 12.13717773 5.97441406 12.97851562 6.5859375 C14.55078125 7.7734375 14.55078125 7.7734375 17 10 C17 10.99 17 11.98 17 13 C17.33 13.66 17.66 14.32 18 15 C16.68 14.67 15.36 14.34 14 14 C13.67 12.35 13.34 10.7 13 9 C12.38511719 8.93941406 11.77023437 8.87882813 11.13671875 8.81640625 C10.32847656 8.73261719 9.52023437 8.64882812 8.6875 8.5625 C7.88699219 8.48128906 7.08648438 8.40007813 6.26171875 8.31640625 C4 8 4 8 1 7 C0.01 7 -0.98 7 -2 7 C-1.67 6.01 -1.34 5.02 -1 4 C-0.65772583 2.66893378 -0.32248257 1.33599921 0 0 Z " fill="#103658" transform="translate(987,7)"/>
<path d="M0 0 C1 3 1 3 0 6 C-1.64488294 7.68816933 -3.31337542 9.35353315 -5 11 C-6.03145371 12.30915279 -7.03542166 13.64082143 -8 15 C-8.804375 16.0209375 -8.804375 16.0209375 -9.625 17.0625 C-11.17980963 19.05415953 -11.17980963 19.05415953 -12 22 C-12.99 22 -13.98 22 -15 22 C-13.58163643 16.8423143 -11.32608425 12.20024742 -8 8 C-7.34 8 -6.68 8 -6 8 C-5.7525 7.4225 -5.505 6.845 -5.25 6.25 C-3.83316683 3.6997003 -2.12372463 1.98214299 0 0 Z " fill="#1B3958" transform="translate(21,16)"/>
<path d="M0 0 C0.33 0 0.66 0 1 0 C0.85950482 1.47968324 0.71245174 2.95874516 0.5625 4.4375 C0.48128906 5.26121094 0.40007813 6.08492188 0.31640625 6.93359375 C0 9 0 9 -1 10 C-1.12197808 11.38050858 -1.17768899 12.76697647 -1.20532227 14.15258789 C-1.22526749 15.03342545 -1.24521271 15.914263 -1.26576233 16.8217926 C-1.28247482 17.77907761 -1.29918732 18.73636261 -1.31640625 19.72265625 C-1.33718735 20.69786728 -1.35796844 21.67307831 -1.37937927 22.67784119 C-1.44498412 25.8059863 -1.50381028 28.93421822 -1.5625 32.0625 C-1.60567483 34.1777435 -1.64928877 36.29297809 -1.69335938 38.40820312 C-1.80067655 43.60537587 -1.9024222 48.80263577 -2 54 C-2.33 54 -2.66 54 -3 54 C-3.0763903 47.59545578 -3.12874214 41.19103014 -3.16479492 34.78613281 C-3.17983299 32.60965585 -3.20026873 30.43320895 -3.22631836 28.25683594 C-3.2629209 25.11906492 -3.27977661 21.9816964 -3.29296875 18.84375 C-3.30845261 17.87884644 -3.32393646 16.91394287 -3.33988953 15.9197998 C-3.34136994 9.90682354 -2.45369096 5.50170152 0 0 Z " fill="#DCEDF6" transform="translate(675,434)"/>
<path d="M0 0 C-0.33 0.99 -0.66 1.98 -1 3 C-4.95827235 3.05785647 -8.9164367 3.09354717 -12.875 3.125 C-14.00292969 3.14175781 -15.13085938 3.15851563 -16.29296875 3.17578125 C-17.90751953 3.18544922 -17.90751953 3.18544922 -19.5546875 3.1953125 C-21.04718018 3.21102295 -21.04718018 3.21102295 -22.56982422 3.22705078 C-25 3 -25 3 -27 1 C-17.98185679 -0.14516104 -9.0719352 -0.09471858 0 0 Z " fill="#022C56" transform="translate(729,156)"/>
<path d="M0 0 C0.66 0.33 1.32 0.66 2 1 C1.21625 1.61875 0.4325 2.2375 -0.375 2.875 C-2.96837647 4.89858661 -2.96837647 4.89858661 -5 7 C-5.78375 7.556875 -6.5675 8.11375 -7.375 8.6875 C-10.59714994 11.52606066 -12.02974793 14.20544045 -14 18 C-14.66 18 -15.32 18 -16 18 C-13.74991646 10.1247076 -10.02016752 5.08831101 -3 1 C-2.01 0.67 -1.02 0.34 0 0 Z " fill="#D2E3EB" transform="translate(179,418)"/>
<path d="M0 0 C0.66 0.33 1.32 0.66 2 1 C1.62952882 3.74148672 1.31412056 5.58593199 -0.375 7.8125 C-2 9 -2 9 -5 9 C-5.33 9.66 -5.66 10.32 -6 11 C-10.105618 12.47182532 -12.82604157 13.29917911 -17 12 C-16.19175781 11.63648438 -15.38351562 11.27296875 -14.55078125 10.8984375 C-8.37487883 7.99300693 -3.82000477 5.73000716 0 0 Z " fill="#20415C" transform="translate(602,850)"/>
<path d="M0 0 C0.33 0 0.66 0 1 0 C1.33 5.28 1.66 10.56 2 16 C2.66 16 3.32 16 4 16 C4.25 18.8125 4.25 18.8125 4 22 C2.68 22.99 1.36 23.98 0 25 C0 16.75 0 8.5 0 0 Z " fill="#052E51" transform="translate(609,264)"/>
<path d="M0 0 C0.66 0.33 1.32 0.66 2 1 C2 1.99 2 2.98 2 4 C-0.75 6.75 -0.75 6.75 -4 9 C-6.3125 9 -6.3125 9 -8 8 C-8.33 7.01 -8.66 6.02 -9 5 C-7.54735962 4.1361871 -6.0876837 3.28419546 -4.625 2.4375 C-3.40683594 1.72400391 -3.40683594 1.72400391 -2.1640625 0.99609375 C-1.44992188 0.66738281 -0.73578125 0.33867188 0 0 Z " fill="#13395C" transform="translate(38,5)"/>
<path d="M0 0 C0.33 0.66 0.66 1.32 1 2 C-1.4 8.4 -1.4 8.4 -4 11 C-6.8203125 11.4140625 -6.8203125 11.4140625 -10.125 11.625 C-11.22070312 11.69976563 -12.31640625 11.77453125 -13.4453125 11.8515625 C-14.28835938 11.90054688 -15.13140625 11.94953125 -16 12 C-12.55167303 9.70111535 -8.97697824 7.68036561 -5.375 5.6328125 C-2.96863248 3.97843483 -1.59453824 2.42327851 0 0 Z " fill="#214660" transform="translate(601,595)"/>
<path d="M0 0 C0.33 1.32 0.66 2.64 1 4 C1.66 4 2.32 4 3 4 C3 4.99 3 5.98 3 7 C1.02 7.99 1.02 7.99 -1 9 C-1.33 15.93 -1.66 22.86 -2 30 C-2.33 30 -2.66 30 -3 30 C-3.08803772 26.50016197 -3.14073608 23.00061362 -3.1875 19.5 C-3.21263672 18.51773438 -3.23777344 17.53546875 -3.26367188 16.5234375 C-3.32622356 10.26826941 -2.58892681 5.70787013 0 0 Z " fill="#D5E7EF" transform="translate(419,690)"/>
<path d="M0 0 C1.98 0 3.96 0 6 0 C6 0.66 6 1.32 6 2 C13.59 2 21.18 2 29 2 C29 2.33 29 2.66 29 3 C24.49807684 3.19244514 19.99589691 3.37113658 15.49291992 3.53710938 C13.96119563 3.59550403 12.42960967 3.65765305 10.89819336 3.72363281 C8.69670803 3.81782927 6.49507811 3.89850637 4.29296875 3.9765625 C3.60849167 4.00875885 2.92401459 4.0409552 2.21879578 4.0741272 C-1.47299643 4.19040732 -2.82710738 4.11526175 -6 2 C-4.02 1.67 -2.04 1.34 0 1 C0 0.67 0 0.34 0 0 Z " fill="#012C57" transform="translate(451,667)"/>
<path d="M0 0 C6.6 0 13.2 0 20 0 C20.66 1.32 21.32 2.64 22 4 C21.50757813 3.84402344 21.01515625 3.68804687 20.5078125 3.52734375 C16.29002271 2.64042534 11.96631475 2.63837956 7.66796875 2.48242188 C2.21533345 2.21533345 2.21533345 2.21533345 0 0 Z " fill="#A2C4DF" transform="translate(960,0)"/>
<path d="M0 0 C3.05983795 0.52958734 6.10467415 0.91397225 9.1953125 1.2109375 C11.13753963 1.41281774 13.07040179 1.70057959 15 2 C15.33 2.66 15.66 3.32 16 4 C6.83808082 3.43708547 -2.01728306 1.79203512 -11 0 C-11 -0.33 -11 -0.66 -11 -1 C-6.44610979 -1.87574812 -4.02544348 -2.26431196 0 0 Z " fill="#235680" transform="translate(51,1020)"/>
<path d="M0 0 C2.917199 0.02599999 5.3619924 0.4186231 8.1875 1.125 C10.37453385 0.74592718 10.37453385 0.74592718 12.1875 0.125 C11.8575 1.115 11.5275 2.105 11.1875 3.125 C3.5975 3.125 -3.9925 3.125 -11.8125 3.125 C-11.8125 2.795 -11.8125 2.465 -11.8125 2.125 C-10.678125 1.980625 -9.54375 1.83625 -8.375 1.6875 C-4.2741578 1.0399986 -4.22873268 0.13864697 0 0 Z " fill="#012B53" transform="translate(291.8125,411.875)"/>
<path d="M0 0 C0.99 0.33 1.98 0.66 3 1 C1.67207471 4.71424647 0.04416905 7.57638521 -2.375 10.6875 C-2.96023438 11.45449219 -3.54546875 12.22148438 -4.1484375 13.01171875 C-6.00544377 15.00584574 -7.50147185 15.97087056 -10 17 C-10 16.01 -10 15.02 -10 14 C-9.01 14 -8.02 14 -7 14 C-7 13.01 -7 12.02 -7 11 C-6.34 11 -5.68 11 -5 11 C-5 10.01 -5 9.02 -5 8 C-4.01 8 -3.02 8 -2 8 C-2.33 6.68 -2.66 5.36 -3 4 C-2.01 3.34 -1.02 2.68 0 2 C0 1.34 0 0.68 0 0 Z " fill="#1A415E" transform="translate(1013,989)"/>
<path d="M0 0 C0.66 0 1.32 0 2 0 C1.49396008 2.16874252 1.00016187 3.99967627 0 6 C-0.66 6 -1.32 6 -2 6 C-2 6.66 -2 7.32 -2 8 C-2.66 8 -3.32 8 -4 8 C-4 8.66 -4 9.32 -4 10 C-4.66 10 -5.32 10 -6 10 C-6.33 10.66 -6.66 11.32 -7 12 C-7.33 11.01 -7.66 10.02 -8 9 C-4.96202532 3.37412096 -4.96202532 3.37412096 -1.75 2.125 C-1.1725 2.08375 -0.595 2.0425 0 2 C0 1.34 0 0.68 0 0 Z " fill="#D8E7EE" transform="translate(429,165)"/>
<path d="M0 0 C4.81775674 7.22663511 4.22786088 14.58180626 4 23 C3.67 23 3.34 23 3 23 C1.31438733 17.78556404 0.61487302 13.02460865 0.375 7.5625 C0.33632813 6.83095703 0.29765625 6.09941406 0.2578125 5.34570312 C0.16466016 3.56416468 0.08129714 1.78211878 0 0 Z " fill="#5D96B3" transform="translate(1020,43)"/>
<path d="M0 0 C0 0.66 0 1.32 0 2 C-0.66 2 -1.32 2 -2 2 C-2 2.66 -2 3.32 -2 4 C-5.33333333 5.33333333 -8.66666667 6.66666667 -12 8 C-12.33 6.68 -12.66 5.36 -13 4 C-11.58774074 3.32404685 -10.16997095 2.65959941 -8.75 2 C-7.56664062 1.443125 -7.56664062 1.443125 -6.359375 0.875 C-4 0 -4 0 0 0 Z " fill="#E0EEF4" transform="translate(186,673)"/>
<path d="M0 0 C6.0546875 -0.1953125 6.0546875 -0.1953125 8 0 C8.66 0.66 9.32 1.32 10 2 C8.7625 2.433125 7.525 2.86625 6.25 3.3125 C3.05909498 4.49640469 0.66007502 5.85147787 -2 8 C-2.66 8 -3.32 8 -4 8 C-4.33 8.66 -4.66 9.32 -5 10 C-4.67 8.68 -4.34 7.36 -4 6 C-3.01 6 -2.02 6 -1 6 C-0.67 4.02 -0.34 2.04 0 0 Z " fill="#1F4B68" transform="translate(685,416)"/>
<path d="M0 0 C0 0.66 0 1.32 0 2 C1.32 2.33 2.64 2.66 4 3 C3.2575 3.28875 2.515 3.5775 1.75 3.875 C-1.78308975 5.3203549 -4.81893718 6.87929145 -8 9 C-8.33 8.34 -8.66 7.68 -9 7 C-3.34042553 0 -3.34042553 0 0 0 Z " fill="#082C51" transform="translate(30,11)"/>
<path d="M0 0 C0.66 0.33 1.32 0.66 2 1 C0.88121617 2.17262904 -0.24523051 3.33795138 -1.375 4.5 C-2.00148438 5.1496875 -2.62796875 5.799375 -3.2734375 6.46875 C-5 8 -5 8 -7 8 C-7 9.32 -7 10.64 -7 12 C-8.375 13.75 -8.375 13.75 -10 15 C-10.66 15 -11.32 15 -12 15 C-10.16113043 7.81169169 -5.70039245 4.3974456 0 0 Z " fill="#C6DAE3" transform="translate(432,675)"/>
<path d="M0 0 C1.45792884 -0.05399736 2.91642712 -0.09279177 4.375 -0.125 C5.18710937 -0.14820313 5.99921875 -0.17140625 6.8359375 -0.1953125 C9 0 9 0 11 2 C9.1746875 2.6496875 9.1746875 2.6496875 7.3125 3.3125 C3.96260633 4.56201629 1.00002183 6.03123567 -2 8 C-2.66 7.01 -3.32 6.02 -4 5 C-2.35 4.67 -0.7 4.34 1 4 C0.67 2.68 0.34 1.36 0 0 Z " fill="#1E4B68" transform="translate(428,672)"/>
<path d="M0 0 C0.99 0.33 1.98 0.66 3 1 C2.42906864 4.3114019 1.45395174 5.75054423 -1 8 C-1.33 8.66 -1.66 9.32 -2 10 C-2.66 10 -3.32 10 -4 10 C-4 9.34 -4 8.68 -4 8 C-4.99 7.67 -5.98 7.34 -7 7 C-6.21625 6.401875 -5.4325 5.80375 -4.625 5.1875 C-1.85425677 3.08914751 -1.85425677 3.08914751 0 0 Z " fill="#173D59" transform="translate(857,339)"/>
<path d="M0 0 C4.26672384 0.47408043 6.2455048 2.88307122 9 6 C10.3125 8.3125 10.3125 8.3125 11 10 C10.01 10.495 10.01 10.495 9 11 C8.46375 10.2575 7.9275 9.515 7.375 8.75 C4.84735261 5.82325039 2.28172632 4.01378661 -1 2 C-0.67 1.34 -0.34 0.68 0 0 Z " fill="#18425C" transform="translate(593,675)"/>
<path d="M0 0 C4.51478398 0.53115106 7.34666857 2.36620292 11 5 C10.67 6.32 10.34 7.64 10 9 C7.42262834 7.96905133 6.23715753 7.4891374 5 4.9375 C4.1704178 2.78719721 4.1704178 2.78719721 1.875 2.25 C0.946875 2.12625 0.946875 2.12625 0 2 C0 1.34 0 0.68 0 0 Z " fill="#0A3351" transform="translate(419,597)"/>
<path d="M0 0 C0.53625 0.226875 1.0725 0.45375 1.625 0.6875 C-2.37113521 4.39819698 -4.74582652 6.28541618 -10.375 6.6875 C-10.375 6.0275 -10.375 5.3675 -10.375 4.6875 C-9.715 4.6875 -9.055 4.6875 -8.375 4.6875 C-8.375 4.0275 -8.375 3.3675 -8.375 2.6875 C-2.95961538 -0.38942308 -2.95961538 -0.38942308 0 0 Z " fill="#0B3255" transform="translate(999.375,1008.3125)"/>
<path d="M0 0 C0.66 0.33 1.32 0.66 2 1 C1.09373216 2.2989839 0.17450463 3.58893167 -0.75 4.875 C-1.26046875 5.59429688 -1.7709375 6.31359375 -2.296875 7.0546875 C-4.12885187 9.14717484 -5.36670921 10.12558665 -8 11 C-10.25 10.625 -10.25 10.625 -12 10 C-11.46890625 9.61328125 -10.9378125 9.2265625 -10.390625 8.828125 C-6.67177773 6.08649307 -3.14670262 3.40892784 0 0 Z " fill="#C9DBE6" transform="translate(1005,1004)"/>
<path d="M0 0 C1.7882302 2.68234531 2.85190382 4.95514077 4 7.9375 C5.20033981 11.04619256 6.46276424 14.04219369 8 17 C6.35 16.67 4.7 16.34 3 16 C2.814375 14.88625 2.814375 14.88625 2.625 13.75 C2.15212322 11.05867476 2.15212322 11.05867476 0.9375 9.125 C-0.40862112 6.07379213 -0.12652313 3.28960139 0 0 Z " fill="#40607A" transform="translate(416,581)"/>
<path d="M0 0 C0.66 0.33 1.32 0.66 2 1 C1.071875 1.8971875 1.071875 1.8971875 0.125 2.8125 C-2.13676954 5.00811144 -2.13676954 5.00811144 -4 8 C-5.92491372 9.7703222 -7.96009844 11.35920962 -10 13 C-10.33 12.34 -10.66 11.68 -11 11 C-8.22622499 6.30591922 -5.77309505 3.86385703 -1 1 C-0.67 0.67 -0.34 0.34 0 0 Z " fill="#C4D9E2" transform="translate(688,419)"/>
<path d="M0 0 C0.66 0.33 1.32 0.66 2 1 C1.34 2.65 0.68 4.3 0 6 C-0.66 6 -1.32 6 -2 6 C-2.2475 6.639375 -2.495 7.27875 -2.75 7.9375 C-4 10 -4 10 -6.125 10.75 C-7.053125 10.87375 -7.053125 10.87375 -8 11 C-6.69386058 7.08158173 -5.16870152 4.67359191 -2 2 C-1.34 2 -0.68 2 0 2 C0 1.34 0 0.68 0 0 Z " fill="#D2E3EA" transform="translate(685,165)"/>
<path d="M0 0 C0.99 0.495 0.99 0.495 2 1 C1.34 1.66 0.68 2.32 0 3 C0 2.01 0 1.02 0 0 Z M-1 3 C-1 3.99 -1 4.98 -1 6 C-1.62390625 6.44988281 -2.2478125 6.89976563 -2.890625 7.36328125 C-5.55328003 9.42930432 -5.9129624 10.96490525 -6.75 14.1875 C-6.99234375 15.08855469 -7.2346875 15.98960938 -7.484375 16.91796875 C-7.73960938 17.94857422 -7.73960938 17.94857422 -8 19 C-9.07310858 15.72814447 -8.89263102 13.57052408 -8.0625 10.25 C-7.77052734 9.05117188 -7.77052734 9.05117188 -7.47265625 7.828125 C-7.31667969 7.22484375 -7.16070312 6.6215625 -7 6 C-6.01 6 -5.02 6 -4 6 C-4 5.34 -4 4.68 -4 4 C-3.01 3.67 -2.02 3.34 -1 3 Z " fill="#022A4F" transform="translate(13,32)"/>
<path d="M0 0 C0.66 0 1.32 0 2 0 C2.80967438 2.91482778 3.21845993 4.46113217 2.0625 7.3125 C1.5365625 8.1478125 1.5365625 8.1478125 1 9 C-0.32 9 -1.64 9 -3 9 C-1.125 2.25 -1.125 2.25 0 0 Z " fill="#143956" transform="translate(604,590)"/>
<path d="M0 0 C1.21816406 0.03480469 1.21816406 0.03480469 2.4609375 0.0703125 C3.68683594 0.09738281 3.68683594 0.09738281 4.9375 0.125 C5.87722656 0.15980469 5.87722656 0.15980469 6.8359375 0.1953125 C-2.1640625 6.1953125 -2.1640625 6.1953125 -6.1640625 6.1953125 C-3.41682632 0.30837783 -3.41682632 0.30837783 0 0 Z " fill="#143C5A" transform="translate(175.1640625,416.8046875)"/>
<path d="M0 0 C0.99 0 1.98 0 3 0 C3 0.66 3 1.32 3 2 C3.66 2 4.32 2 5 2 C5 2.99 5 3.98 5 5 C5.99 5.33 6.98 5.66 8 6 C8.6875 8.0625 8.6875 8.0625 9 10 C6.07176325 9.34928072 4.41562022 8.65065146 2.77734375 6.0859375 C1.78790585 4.07869072 0.85994693 2.0657943 0 0 Z " fill="#DBEAF0" transform="translate(164,591)"/>
<path d="M0 0 C10.55808656 0.96355353 10.55808656 0.96355353 15 2 C15 2.33 15 2.66 15 3 C9.72 3 4.44 3 -1 3 C-0.67 2.01 -0.34 1.02 0 0 Z " fill="#ACCCE6" transform="translate(46,1021)"/>
<path d="M0 0 C1.58971965 2.38457948 2.86741593 4.6304124 4.125 7.1875 C4.47820312 7.90292969 4.83140625 8.61835937 5.1953125 9.35546875 C5.46085938 9.89816406 5.72640625 10.44085937 6 11 C4.68 11.33 3.36 11.66 2 12 C0.40861915 7.82262526 -0.21278058 4.46839215 0 0 Z M-1 9 C-0.01 9.495 -0.01 9.495 1 10 C0.67 10.66 0.34 11.32 0 12 C-0.33 11.01 -0.66 10.02 -1 9 Z " fill="#274B66" transform="translate(161,841)"/>
<path d="M0 0 C6 9 6 9 6 12 C5.01 12 4.02 12 3 12 C3 11.34 3 10.68 3 10 C2.34 10 1.68 10 1 10 C-1.125 3.375 -1.125 3.375 0 0 Z " fill="#284A64" transform="translate(161,585)"/>
<path d="M0 0 C3.1108633 4.66629496 3.12311555 8.79648451 3.0625 14.3125 C3.05347656 15.38113281 3.04445313 16.44976562 3.03515625 17.55078125 C3.02355469 18.35902344 3.01195312 19.16726562 3 20 C2.67 20 2.34 20 2 20 C1.67 17.03 1.34 14.06 1 11 C0.67 11 0.34 11 0 11 C0 7.37 0 3.74 0 0 Z " fill="#DBECF3" transform="translate(861,179)"/>
<path d="M0 0 C1.8075209 2.71128135 2.89445991 5.0469136 4.0625 8.0625 C5.42417865 11.57884439 5.42417865 11.57884439 7 15 C5.68 15 4.36 15 3 15 C0.74315457 9.63999211 -0.36263859 5.8022175 0 0 Z " fill="#3B5B74" transform="translate(416,837)"/>
<path d="M0 0 C0.33 0.66 0.66 1.32 1 2 C0.0625 4.625 0.0625 4.625 -1 7 C-3.97 7 -6.94 7 -10 7 C-6.76478258 4.51137122 -3.40739705 2.24578442 0 0 Z " fill="#274760" transform="translate(854,599)"/>
<path d="M0 0 C1.8075209 2.71128135 2.89445991 5.0469136 4.0625 8.0625 C5.42417865 11.57884439 5.42417865 11.57884439 7 15 C5.68 15 4.36 15 3 15 C0.74315457 9.63999211 -0.36263859 5.8022175 0 0 Z " fill="#3B5C74" transform="translate(672,581)"/>
<path d="M0 0 C-3.60178588 2.40119059 -6.50866369 2.43771322 -10.6875 2.625 C-11.38939453 2.66367187 -12.09128906 2.70234375 -12.81445312 2.7421875 C-14.54254655 2.8362334 -16.27123675 2.9191968 -18 3 C-15.42516172 0.42516172 -13.69010659 0.3921567 -10.125 -0.1875 C-8.55105469 -0.45626953 -8.55105469 -0.45626953 -6.9453125 -0.73046875 C-4.24750843 -0.97735002 -2.53388914 -0.86299123 0 0 Z " fill="#56839F" transform="translate(62,1)"/>
<path d="M0 0 C0.99 0.495 0.99 0.495 2 1 C2 1.66 2 2.32 2 3 C3.65 3 5.3 3 7 3 C6.01 4.98 5.02 6.96 4 9 C3.01 8.34 2.02 7.68 1 7 C0.3125 3.375 0.3125 3.375 0 0 Z " fill="#093654" transform="translate(416,680)"/>
<path d="M0 0 C0.33 0 0.66 0 1 0 C0.52013969 5.56890517 -0.29915181 10.67067568 -2 16 C-2.33 16 -2.66 16 -3 16 C-3.33266291 9.79029227 -2.45029331 5.71735105 0 0 Z " fill="#C9E1EA" transform="translate(675,434)"/>
<path d="M0 0 C3.82946843 1.45255699 5.12050295 3.42895561 7 7 C3.09161134 7 1.88405893 5.49432124 -1 3 C-0.67 2.01 -0.34 1.02 0 0 Z " fill="#DCEBF1" transform="translate(596,168)"/>
<path d="M0 0 C2.97 0.33 5.94 0.66 9 1 C6 3 6 3 2.875 4 C-0.12511062 4.6686673 -0.12511062 4.6686673 -1 7 C-0.67 4.69 -0.34 2.38 0 0 Z " fill="#15435F" transform="translate(429,416)"/>
<path d="M0 0 C3.82946843 1.45255699 5.12050295 3.42895561 7 7 C3.64404172 6.40072174 1.62198774 5.15377564 -1 3 C-0.67 2.01 -0.34 1.02 0 0 Z " fill="#DCEBF1" transform="translate(852,168)"/>
<path d="M0 0 C3.7910119 1.44950455 7.3874638 3.15172566 11 5 C11 5.33 11 5.66 11 6 C6.74808535 6.36444983 4.41482003 5.56111503 1 3 C0.67 2.01 0.34 1.02 0 0 Z " fill="#1B3E56" transform="translate(169,856)"/>
<path d="M0 0 C0.226875 0.61875 0.45375 1.2375 0.6875 1.875 C2.38416443 4.6219805 4.05251711 4.86635273 7 6 C7.33 6.99 7.66 7.98 8 9 C4.01328937 7.63312778 1.11505367 5.84804907 -2 3 C-2 2.34 -2 1.68 -2 1 C-1.34 0.67 -0.68 0.34 0 0 Z " fill="#D8EAEF" transform="translate(682,595)"/>
<path d="M0 0 C0.33 0 0.66 0 1 0 C1.25 5.625 1.25 5.625 -1 9 C-1.39387788 11.32387947 -1.73486085 13.65793749 -2 16 C-2.33 16 -2.66 16 -3 16 C-3.33266291 9.79029227 -2.45029331 5.71735105 0 0 Z " fill="#D0E5EE" transform="translate(675,178)"/>
<path d="M0 0 C0.99 0.99 1.98 1.98 3 3 C2.01 3.495 2.01 3.495 1 4 C0.67 4.99 0.34 5.98 0 7 C-0.99 6.67 -1.98 6.34 -3 6 C-1.125 1.125 -1.125 1.125 0 0 Z " fill="#042D4E" transform="translate(348,849)"/>
<path d="M0 0 C1.58971965 2.38457948 2.86741593 4.6304124 4.125 7.1875 C4.47820313 7.90292969 4.83140625 8.61835938 5.1953125 9.35546875 C5.46085938 9.89816406 5.72640625 10.44085938 6 11 C4.68 11 3.36 11 2 11 C1.46770674 9.73392393 0.94955456 8.46189588 0.4375 7.1875 C0.14746094 6.47980469 -0.14257812 5.77210938 -0.44140625 5.04296875 C-1 3 -1 3 0 0 Z " fill="#33566F" transform="translate(673,329)"/>
<path d="M0 0 C1.58971965 2.38457948 2.86741593 4.6304124 4.125 7.1875 C4.47820312 7.90292969 4.83140625 8.61835938 5.1953125 9.35546875 C5.46085937 9.89816406 5.72640625 10.44085938 6 11 C4.35 10.67 2.7 10.34 1 10 C-0.1577506 6.52674819 -0.06866652 3.63932552 0 0 Z " fill="#33546E" transform="translate(417,329)"/>
<path d="M0 0 C3.4375 0.8125 3.4375 0.8125 7 2 C7.33 2.99 7.66 3.98 8 5 C5 6 5 6 2 5 C2 4.01 2 3.02 2 2 C1.34 2 0.68 2 0 2 C0 1.34 0 0.68 0 0 Z " fill="#063053" transform="translate(592,161)"/>
<path d="M0 0 C0.66 0 1.32 0 2 0 C1.56179109 4.55737263 1.14958831 7.57653445 -2 11 C-2.19622241 6.78121808 -1.80230168 3.82989106 0 0 Z " fill="#DDF0F6" transform="translate(349,581)"/>
<path d="M0 0 C4.875 4.625 4.875 4.625 6 8 C2.63279613 6.60667426 1.0140476 5.0210714 -1 2 C-0.67 1.34 -0.34 0.68 0 0 Z " fill="#D5E6ED" transform="translate(854,425)"/>
<path d="M0 0 C0.66 0 1.32 0 2 0 C2 0.66 2 1.32 2 2 C3.32 1.67 4.64 1.34 6 1 C6.66 1.99 7.32 2.98 8 4 C7.01 4 6.02 4 5 4 C4.67 4.66 4.34 5.32 4 6 C2.35 4.68 0.7 3.36 -1 2 C-0.67 1.34 -0.34 0.68 0 0 Z " fill="#133A5A" transform="translate(847,417)"/>
<path d="M0 0 C2.31 0.33 4.62 0.66 7 1 C7 1.66 7 2.32 7 3 C7.66 3 8.32 3 9 3 C9 3.66 9 4.32 9 5 C6.03 4.01 3.06 3.02 0 2 C0 1.34 0 0.68 0 0 Z " fill="#214763" transform="translate(585,160)"/>
<path d="M0 0 C2.05078125 0.03255208 4.1015625 0.06510417 6.15234375 0.09765625 C5.82234375 1.41765625 5.49234375 2.73765625 5.15234375 4.09765625 C4.16234375 4.09765625 3.17234375 4.09765625 2.15234375 4.09765625 C1.82234375 3.43765625 1.49234375 2.77765625 1.15234375 2.09765625 C-0.8722888 1.44552333 -0.8722888 1.44552333 -2.84765625 1.09765625 C-1.84765625 0.09765625 -1.84765625 0.09765625 0 0 Z " fill="#002B54" transform="translate(974.84765625,3.90234375)"/>
<path d="M0 0 C1.46726798 3.81489674 0.43336419 6.29011622 -1 10 C-1.99 9.34 -2.98 8.68 -4 8 C-3.67 6.35 -3.34 4.7 -3 3 C-2.01 3 -1.02 3 0 3 C0 2.01 0 1.02 0 0 Z " fill="#1D5176" transform="translate(1021,972)"/>
<path d="M0 0 C-1.43429001 0.67354499 -2.87257057 1.33859701 -4.3125 2 C-5.51326172 2.556875 -5.51326172 2.556875 -6.73828125 3.125 C-9 4 -9 4 -12 4 C-12 3.34 -12 2.68 -12 2 C-10.56656 1.46809459 -9.12804633 0.94984742 -7.6875 0.4375 C-6.48673828 0.00244141 -6.48673828 0.00244141 -5.26171875 -0.44140625 C-3 -1 -3 -1 0 0 Z " fill="#DFEFF7" transform="translate(850,347)"/>
<path d="M0 0 C-1.52701044 3.05402088 -3.95157912 3.65869481 -7 5 C-7.99 5 -8.98 5 -10 5 C-9 2 -9 2 -7.25 0.8125 C-4.70039426 -0.10819096 -2.69076919 -0.14948718 0 0 Z " fill="#274866" transform="translate(993,1014)"/>
<path d="M0 0 C1.32 0.33 2.64 0.66 4 1 C4.33 2.32 4.66 3.64 5 5 C3.68 4.67 2.36 4.34 1 4 C0.67 2.68 0.34 1.36 0 0 Z " fill="#062B4E" transform="translate(18,1001)"/>
<path d="M0 0 C-0.63808594 0.19335938 -1.27617187 0.38671875 -1.93359375 0.5859375 C-3.17302734 0.97652344 -3.17302734 0.97652344 -4.4375 1.375 C-5.67306641 1.75785156 -5.67306641 1.75785156 -6.93359375 2.1484375 C-9.17798016 2.80882227 -9.17798016 2.80882227 -10 5 C-9.67 3.35 -9.34 1.7 -9 0 C-5.5657338 -0.85856655 -3.38317487 -0.97591583 0 0 Z " fill="#274C67" transform="translate(182,674)"/>
<path d="M0 0 C0.66 0 1.32 0 2 0 C2 0.66 2 1.32 2 2 C3.32 2 4.64 2 6 2 C6.33 2.99 6.66 3.98 7 5 C3.28400809 5.20086443 2.22791555 5.1519437 -1 3 C-0.67 2.01 -0.34 1.02 0 0 Z " fill="#052D4E" transform="translate(162,595)"/>
<path d="M0 0 C0.45375 0.639375 0.9075 1.27875 1.375 1.9375 C2.83921726 4.09702406 2.83921726 4.09702406 5 5 C4.67 5.99 4.34 6.98 4 8 C2.35 7.67 0.7 7.34 -1 7 C-0.67 4.69 -0.34 2.38 0 0 Z " fill="#042F4F" transform="translate(674,591)"/>
<path d="M0 0 C1.39195915 4.17587745 -0.17676781 6.13474776 -2 10 C-2.33 10 -2.66 10 -3 10 C-3 7.69 -3 5.38 -3 3 C-2.01 2.67 -1.02 2.34 0 2 C0 1.34 0 0.68 0 0 Z " fill="#DFF0F7" transform="translate(606,582)"/>
<path d="M0 0 C1.485 0.99 1.485 0.99 3 2 C3.66 1.67 4.32 1.34 5 1 C4.67 2.32 4.34 3.64 4 5 C2.68 5.33 1.36 5.66 0 6 C0 4.02 0 2.04 0 0 Z " fill="#083250" transform="translate(346,424)"/>
<path d="M0 0 C1.32 0.66 2.64 1.32 4 2 C2.69593116 4.01920337 1.36176581 6.01924973 0 8 C-0.33 8 -0.66 8 -1 8 C-1.625 5.125 -1.625 5.125 -2 2 C-1.34 1.34 -0.68 0.68 0 0 Z " fill="#153A57" transform="translate(165,424)"/>
<path d="M0 0 C0.66 0 1.32 0 2 0 C1.34 1.98 0.68 3.96 0 6 C-1.65 6 -3.3 6 -5 6 C-4.67 5.01 -4.34 4.02 -4 3 C-1.9375 2.3125 -1.9375 2.3125 0 2 C0 1.34 0 0.68 0 0 Z " fill="#CDE1E9" transform="translate(429,421)"/>
<path d="M0 0 C0 0.33 0 0.66 0 1 C-1.258125 1.04125 -2.51625 1.0825 -3.8125 1.125 C-4.52019531 1.14820313 -5.22789063 1.17140625 -5.95703125 1.1953125 C-8 1 -8 1 -11 -1 C-3.57142857 -2.42857143 -3.57142857 -2.42857143 0 0 Z " fill="#2A4E70" transform="translate(51,1020)"/>
<path d="M0 0 C0.66 0 1.32 0 2 0 C2 2.31 2 4.62 2 7 C1.34 7 0.68 7 0 7 C-0.33 7.66 -0.66 8.32 -1 9 C-1.80967438 6.08517222 -2.21845993 4.53886783 -1.0625 1.6875 C-0.711875 1.130625 -0.36125 0.57375 0 0 Z " fill="#022E50" transform="translate(349,590)"/>
<path d="M0 0 C1.65 0.33 3.3 0.66 5 1 C4.67 2.32 4.34 3.64 4 5 C3.38125 4.649375 2.7625 4.29875 2.125 3.9375 C1.42375 3.628125 0.7225 3.31875 0 3 C-0.99 3.495 -0.99 3.495 -2 4 C-1.34 2.68 -0.68 1.36 0 0 Z " fill="#043050" transform="translate(674,339)"/>
<path d="M0 0 C-1.24976756 3.65316671 -1.67098753 4.78065836 -5 7 C-5.1875 4.625 -5.1875 4.625 -5 2 C-2 0 -2 0 0 0 Z " fill="#E2F1F6" transform="translate(602,337)"/>
<path d="M0 0 C1.3921875 0.0928125 1.3921875 0.0928125 2.8125 0.1875 C2.8125 0.8475 2.8125 1.5075 2.8125 2.1875 C-1.6425 2.6825 -1.6425 2.6825 -6.1875 3.1875 C-3.1875 0.1875 -3.1875 0.1875 0 0 Z " fill="#052E4F" transform="translate(45.1875,3.8125)"/>
<path d="M0 0 C0.66 0.99 1.32 1.98 2 3 C0.35 4.65 -1.3 6.3 -3 8 C-3.66 7.67 -4.32 7.34 -5 7 C-3.35 4.69 -1.7 2.38 0 0 Z " fill="#D2E5ED" transform="translate(1012,996)"/>
<path d="M0 0 C3.68754757 0.49831724 5.60490662 1.10067643 8 4 C6.25 4.75 6.25 4.75 4 5 C1.75 3.125 1.75 3.125 0 1 C0 0.67 0 0.34 0 0 Z " fill="#1B3D56" transform="translate(424,856)"/>
<path d="M0 0 C-3.20336822 2.83374881 -5.78087253 3.5205537 -10 4 C-10 3.34 -10 2.68 -10 2 C-6.49223216 0.39644899 -3.85645121 -0.22036864 0 0 Z " fill="#E1F2FA" transform="translate(336,859)"/>
<path d="M0 0 C1.39195915 4.17587745 -0.17676781 6.13474776 -2 10 C-2.33 10 -2.66 10 -3 10 C-3.36923077 4.58461538 -3.36923077 4.58461538 -1.5 1.625 C-1.005 1.08875 -0.51 0.5525 0 0 Z " fill="#DDEFF6" transform="translate(350,838)"/>
<path d="M0 0 C-1.75 5.75 -1.75 5.75 -4 8 C-5.03864166 4.88407501 -5.09036928 3.9737344 -4 1 C-2 0 -2 0 0 0 Z " fill="#173D59" transform="translate(165,686)"/>
<path d="M0 0 C0.33 0.66 0.66 1.32 1 2 C1.66 2 2.32 2 3 2 C3 1.34 3 0.68 3 0 C3.66 0 4.32 0 5 0 C3.63016497 3.16115776 3.0109362 3.9927092 0 6 C-0.66 4.35 -1.32 2.7 -2 1 C-1.34 0.67 -0.68 0.34 0 0 Z " fill="#053151" transform="translate(419,425)"/>
<path d="M0 0 C3.465 1.98 3.465 1.98 7 4 C5.02 4.99 5.02 4.99 3 6 C2.01 5.34 1.02 4.68 0 4 C0 2.68 0 1.36 0 0 Z " fill="#1F415A" transform="translate(425,343)"/>
<path d="M0 0 C0.99 0.99 1.98 1.98 3 3 C1.68 4.65 0.36 6.3 -1 8 C-1.625 5.125 -1.625 5.125 -2 2 C-1.34 1.34 -0.68 0.68 0 0 Z " fill="#133955" transform="translate(421,168)"/>
<path d="M0 0 C4.18199633 2.09099816 4.99659367 2.99318733 7 7 C7 7.66 7 8.32 7 9 C6.34 9 5.68 9 5 9 C3.35 6.03 1.7 3.06 0 0 Z " fill="#DEEFF5" transform="translate(1011,25)"/>
<path d="M0 0 C1.70884005 1.62339805 3.37446717 3.29319053 5 5 C5 5.66 5 6.32 5 7 C3.68 6.67 2.36 6.34 1 6 C0.67 4.02 0.34 2.04 0 0 Z " fill="#163955" transform="translate(1009,24)"/>
<path d="M0 0 C0.66 0 1.32 0 2 0 C2.66 1.32 3.32 2.64 4 4 C2.68 4.99 1.36 5.98 0 7 C0 4.69 0 2.38 0 0 Z " fill="#022D55" transform="translate(4,973)"/>
<path d="M0 0 C-1 3 -1 3 -3.375 4.3125 C-4.24125 4.539375 -5.1075 4.76625 -6 5 C-6.99 4.34 -7.98 3.68 -9 3 C-2.25 0 -2.25 0 0 0 Z " fill="#33546D" transform="translate(338,859)"/>
<path d="M0 0 C0 1.65 0 3.3 0 5 C-1.65 5 -3.3 5 -5 5 C-3.33333333 0 -3.33333333 0 0 0 Z " fill="#1C3F59" transform="translate(343,855)"/>
<path d="M0 0 C0.8353125 0.556875 0.8353125 0.556875 1.6875 1.125 C-1.68347383 2.62321059 -3.51692119 3.125 -7.3125 3.125 C-7.3125 2.465 -7.3125 1.805 -7.3125 1.125 C-2.88173077 -1.09038462 -2.88173077 -1.09038462 0 0 Z " fill="#DBF0F6" transform="translate(332.3125,603.875)"/>
<path d="M0 0 C3.465 1.98 3.465 1.98 7 4 C5.02 4.99 5.02 4.99 3 6 C2.01 5.34 1.02 4.68 0 4 C0 2.68 0 1.36 0 0 Z " fill="#1F435B" transform="translate(681,599)"/>
<path d="M0 0 C0.66 0 1.32 0 2 0 C3.625 2 3.625 2 5 4 C4.67 4.66 4.34 5.32 4 6 C2.68 5.67 1.36 5.34 0 5 C0 3.35 0 1.7 0 0 Z " fill="#2C4F66" transform="translate(419,592)"/>
<path d="M0 0 C1.98 0.99 1.98 0.99 4 2 C4 3.98 4 5.96 4 8 C1.84622436 5.37801226 0.59927826 3.35595828 0 0 Z " fill="#E4F2F8" transform="translate(418,586)"/>
<path d="M0 0 C3.14624993 -0.26218749 4.61837017 -0.24754367 7.3125 1.5 C8.1478125 2.2425 8.1478125 2.2425 9 3 C6.75 3.75 6.75 3.75 4 4 C1.6875 2.0625 1.6875 2.0625 0 0 Z " fill="#C1D5E2" transform="translate(582,417)"/>
<path d="M0 0 C0.8353125 0.556875 0.8353125 0.556875 1.6875 1.125 C-1.68347383 2.62321059 -3.51692119 3.125 -7.3125 3.125 C-7.3125 2.465 -7.3125 1.805 -7.3125 1.125 C-2.88173077 -1.09038462 -2.88173077 -1.09038462 0 0 Z " fill="#DBEFF6" transform="translate(588.3125,347.875)"/>
<path d="M0 0 C0.66 0.33 1.32 0.66 2 1 C4.09821215 0.60061233 4.09821215 0.60061233 6 0 C6.33 0.99 6.66 1.98 7 3 C4.6875 3.6875 4.6875 3.6875 2 4 C0.1875 2.5625 0.1875 2.5625 -1 1 C-0.67 0.67 -0.34 0.34 0 0 Z " fill="#E5EFF1" transform="translate(430,344)"/>
<path d="M0 0 C0.66 0 1.32 0 2 0 C4.67927341 4.01891012 4.15601248 6.24161923 4 11 C3.67 11 3.34 11 3 11 C2.01 7.37 1.02 3.74 0 0 Z " fill="#D7F8FC" transform="translate(1020,42)"/>
</svg>
