<?xml version="1.0" standalone="no"?>
<!DOCTYPE svg PUBLIC "-//W3C//DTD SVG 20010904//EN"
 "http://www.w3.org/TR/2001/REC-SVG-20010904/DTD/svg10.dtd">
<svg version="1.0" xmlns="http://www.w3.org/2000/svg"
 width="276.000000pt" height="274.000000pt" viewBox="0 0 276.000000 274.000000"
 preserveAspectRatio="xMidYMid meet">

<g transform="translate(0.000000,274.000000) scale(0.100000,-0.100000)"
fill="#000000" stroke="none">
<path d="M0 1370 l0 -1370 1380 0 1380 0 0 1370 0 1370 -1380 0 -1380 0 0
-1370z m1360 460 l0 -440 -430 0 -430 0 0 44 c0 56 40 214 74 289 99 224 301
413 526 492 71 25 188 52 238 54 l22 1 0 -440z m300 409 c95 -24 239 -95 324
-160 186 -141 327 -392 351 -627 l6 -62 -438 2 -438 3 -3 438 -2 439 62 -7
c35 -4 97 -16 138 -26z m-302 -1374 c1 -231 0 -425 -2 -431 -3 -8 -20 -9 -58
-3 -280 48 -500 185 -646 403 -28 41 -53 72 -58 68 -4 -4 -4 -2 -1 4 4 7 -6
40 -22 75 -32 72 -57 166 -67 252 l-7 57 429 -2 429 -3 3 -420z m974 370 c-7
-106 -59 -258 -127 -371 -116 -193 -334 -353 -555 -407 -58 -14 -123 -27 -145
-29 l-40 -3 -3 420 c-1 231 0 426 3 433 3 10 96 12 437 10 l433 -3 -3 -50z"/>
</g>
</svg>
